<mxfile host="65bd71144e">
    <diagram id="hoUTU9O463d6i-gwngBV" name="Page-1">
        <mxGraphModel dx="960" dy="320" grid="1" gridSize="10" guides="1" tooltips="1" connect="1" arrows="1" fold="1" page="1" pageScale="1" pageWidth="850" pageHeight="1100" background="#280b0b" math="0" shadow="0">
            <root>
                <mxCell id="0"/>
                <mxCell id="1" parent="0"/>
                <mxCell id="2" value="" style="shape=image;verticalLabelPosition=bottom;labelBackgroundColor=default;verticalAlign=top;aspect=fixed;imageAspect=0;image=data:image/png,iVBORw0KGgoAAAANSUhEUgAABJUAAAMtCAYAAAAmCkBIAAAAAXNSR0IArs4c6QAAAARnQU1BAACxjwv8YQUAAAAJcEhZcwAAEnQAABJ0Ad5mH3gAAP+lSURBVHhe7N07cuq+28Dx5/9uhKTIQMEeGJrQpIMFUIUqVRpmqJmhSZWKVCwAujSkybAHCs6kSFjJ75VkGXwDJGPu38+MzwnEsa2LjfUgyf8rl8v/CQAAAAAAAODh/+z/AAAAAAAAgDOCSgAAAAAAAPBGUAkAAAAAAADeCCoBAAAAAADAG0ElAAAAAAAAeCOoBAAAAAAAAG+eQaWqdKcLWSym0q3ql12ZLtTraVf95tw0ZaiPLbIMm/ZXofD4F0O19hk62+O7pHqwjWc6qC8X5lrqKQAAAACcpyvtqaQDSn2pzXpSqVRWS2dif31SQbBralq5RTj37WE/1BcAAAAAwHnyDCrN5edP//8nP3P98kf9pF/+qN+sNYe6d0B6SfUUcrHqfbF5STVom49Sk6WM3ndEkeYDaZiAU0fOIt6UdLbH51YPzp9nOqgv5yVybci+tlxLPQUAAACA83TAnkoz6ZkGbrC0Rkup9XP2aFiOpBXZVnTR202qPtypf21DEsCVscPa3kQ+Ms5/AAAAAMBx/K9cLv9nfy6M7qnUr+mgUrzHROp93dNgXJfvVkM+n6YybpfMeqJ7Gan3BjoopNdRjcfXxkDK5u/179fbqHan8iav0jArB/R74/Zfav8rZr9tCfdmglZq+8kYlNlO/Vv97kde9HA6+77oYXWpsXR6GFBknWgalOCYVntMWY5a6zQ4HJ/P9rLzwx6vTYvX8d0a6ouyb33RgaCxrP8knl4f+jry/BtsPzyOWe9chrcCAAAAwO04wZxKd/IQ66xUkvZ4IeP7D9v7qCWjpXrvLT2Z7qRjeyj1RPrJyYibw9VwuKCxW1PrrIfIxSbnXQ0TqkhvZt/bpNSWsWpMqxa23bf6g1o/Mdwm0uC2261UPuQ+kob5oGHf74nepW50r9etxBvgDsfntT0HRW/vqlBfUvy2p9M7lvbfOr2tkZjzPs+QWH0duOn6CAAAAABn4ohBpaqYUWnLb/lMtgdjPTnm8vm9VI3zeynbd1ImX6ohmwhOTTqRBqseEhMfflfJ6FniKtYLwuxb5C668+qDOhq13le0q8REOnvsE5eL+hJX7T5LTZ+Pka5E88Gr6NO09pgjqgQAAAAAOAtHCypVu29m6MvsI91wjjeuw14QGUPX9DAf0/OoL3ej11xDZ/zNJHF4Ruk+EvKyEwDrOaNyTUaOK0J9iavKU12f+F+J89lOon33sO5BCAAAAAC4KAcMKsWHnwVztOw574lujNtJu89r+MtEOmbYXhAoCNI8FZ6yjmy3VF/Kcm9Go/ZtOteLmR9tW49EAAAAAMBZO9rT34p5zPk5DxGay6ARplXPMxPMFUXPJWS7lfryT37NaNTo/FHRpYjrAgAAAADgFE4wUfcezGTcl9CjQ/dECSYwjs2lYwSN7NhwqL3k3J6d1yet6OPDbtdcXxjmBgAAAADX6rKCSmYy7nyPIT+o5lCmiUhXMDnxUr5Ts5LbRnbtuaDg2O7tzT+/1ZHUZDUncvIR9DFFHx9Sbqy+TN5HstRPxaPbHgAAAABclcsIKpnHtMfnYwmXsZ7921O1O139fTCvy3r7yca+k0lHXuVttU29qDa4jFrZAbBJR8+nEwx3CteP7tf3+HZtTz9y/nW0XM/fM76XDzunT5ad27sx1Jc964vaXkP3xMqYVylX/pkei8Hfh+f/6linXXpEAQAAAMCR/K9cLv9nfwYAAAAAAACcXNbwNwAAAAAAAJwFgkoAAAAAAADwxvA3ACfWlOGiL3o6qK2WI2k1BnJu8/QDAAAAwK0iqAQAAAAAAABvDH8DAAAAAACAN4JKAAAAAAAA8EZQCQAAAAAAAN4IKgEAAAAAAMCbZ1CpKt3pQhaLqXSr+mVXpgv1etpVvzk/1e5UHas6vmHTvuOpOVynFTmce325rPp8POQLAAAAAGA3eioVRj8WfSFTIlAAAAAAAOAGeAaV5vLzp///k5+5fvmjftIvf9Rv1ppD3cshveTtMJTXfNCQSqUilc7EvoPjcqsvp+N5fGGPnS11edU7LlyyeveYHnCRdTatFxMELfW6qcBl1vbMMlR/lWW9rez1zr3cAAAAAADn4IA9lWbS0wEdu7RGS6n16cmDS2SHg72JfKh6vIkOKI3r39Ja1fuezEptGScDRpPO6rwIlpaMJGO9iOawLzX7c7aljFrRbeqlI8lwahD06svdqLV1PQAAAAAAdvEOKk060UboRDq6UerQE0j3GurNRErtl3WvCNPzI5i3Jd7DI2seo2TvinRvkVQvEbtkB7LCeWPCJWufGVa9QoLeHet9Bo3+UntsXwdLdN9mXRM4SKQlkZBgm8neI/ZvwnVXebfelv7V6njCAIXreisO+eJRbnnry7G4HF9zOJb6d0sqjYH8s+9lMT3j1Drr3jwTeddBqFJdnpJ5GDOXwYc+OTasp/L7WVWuWa8naq381Hbe2iW1nYo0Btv7HJ17uQEAAAAATu8EcyrdyUOs4VyS9ngh4/sP1YjVDdmWjJbqvbdIsMMEMeK9K8KeT9F4zGq422rZ1AjXAZaxtP96q3VbIzHHkYjvxOmAUt+07tXfBA3u9T6DfS1jPUAyGu+654pKi6iGvVlHR9pq/e373aL+9iy/LZ1nejM2H1Vilmo/L5Ftuq3nky8O5XYldIBlVxBmu5Lcl+2PG1Qf7tS/drhZTFW6b20pqTq3b0yn+lSX0nIk78SGAAAAAAAFOGJQqSqm3bz8ls9kw1kHaVYt5rl8fuveHfcStMPXjepowz7s+VR79g9iVLvPUtPD8yKt9PngNQi4PG6I7tiAkgka7dm61z1FVpuYfJlg1F080uaoJKW/DxnMwzlwljLKjBi4reedL1vLDVr5vqT+Xcrvti5OtgfRcvRuewatVbtv0i7FyyRbEORb9xpL9nSrylNdHcvfj5QTc54xJBUAAAAAkMfRgkpB41hk9hEdHhSYfcUbzEHvHzv0pvokui28zGiVT75mqi29a2hRkm1cz74SDXgbcLl7SAepntYBpf16rGgzSSTXKO3qyrJBLO+yAnbW7vX882VrucEEInXHNlXpJVVtTO87G9gZt00PotfUSk152RBsismao2lZk37W0MVaXx6/IusGXdEILAEAAAAAvB0wqKQbteveEOP2n5m4O28nn7/0uKCcymI6j6jGdXhs4WICAKmeNiVpt/UvijyGc+SbL9gqHCqZ6Pm1Mh9IYxUEqkjruy5jldfRYYZmcu7MYNMucxk09HBMVXdXYxtt+SaH0anjMNM5Rec6AwAAAADAwQGDSvGnv+3bgyVreFgwD42vf/K7VP/poVux49t0nMFTtYKpj3bMuXTRfPMFG+leSGFAyTHfUsMMTS8nVfde0z378rHlm+Hfpl8AAAAAALDFCSbq9jT/lGCqnnQ/GTNfzZYhX9m2DHPbYtIJJ7nOGFJkBI32vMPYdqo+SJ4Qmrt8+YIEHVDSw9k8AkqBoCdROMyz+Wi6hyXmSYo/YXDrkDVbX9bDRm351h5TPZKC8+h365PtAAAAAABIOv+gkh7Ko8fn1Pqpx/Pn7ckxeQ+eejb26nakhxTZJ5yNswJLYaP9eUPQyd3881uWUpPV3NirQMVh5csXrOQOKNmhburvPuxQt+CR/skl/oTBjfN7hceRGDpnylft5TlaQe28T1lznQEAAAAAsM0FBJUUPRFxb7bqoaGXYI6mRnoCZBdmPhvVQM+YP2j7hMWRuWoyHrMf9GaK9y7JNQGyOr7XkWr+9+12xvfyYSZftr8/lNz5cuX0/Eg2H8Z6tnllVTbT9dMHmy9h4C8+n1hyPR0Qjf1OLX3Rww7zDTFMbW/clr9eRSqNRKBIl6+dmHu1bv/ODO/MO9cZAAAAAOB2/a9cLv9nf74+tseGajUX8NQ2AAAAAAAAhC6jp1Je5XvTc+S6n9oGAAAAAABwfFcUVKpKd7geYiTSlKGeLGY5kneG9gAAAAAAABTquoa/JSe01o/HZ7IYAAAAAACAwl33nEoAAAAAAAA4iOueUwkAAAAAAAAHQVAJAAAAAAAA3ggqAQAAAAAAwBtBJQAAAAAAAHjzDCpVpTtdyGIxla5+dr9+2tpCvZ5GH+V/PqrdqTpWdXzDpn3HU3O4TutNuKzy3d+N1eebc2v1GQAAAACOi55KhWnKUDVYp7cTgQIAAAAAADfMM6g0l58//f+f/Mz1yx/1k375o36z1hzq3gHp5dgdLOaDhlQqFal0JvYdbOdWvtfjstJLfU4Iex5tvLbcWn0GAAAAgOM6YE+lmfR0A9gurdFSan168gDYlx3W9ibyoa4rAAAAAIDT+F+5XP7P/lwY3VOpX9NBpY5E+1Sk3tc9DcZ1+W415PNpKuN2yawnspSRem8Q606gh5f1pWZfabNeRaKdNvScM+ttrC1HLWnEN6bohulY1qtn7FPPqdS/i79v3tNHEaTj34Z9hqL7NsdX/5ZW40deommZ9dK9T0zetCW65Vh6V3n3IffjYFv69+8P9niWI7WfQaRHhkN6kWlTuaXq1Unr827XUv/0deT5N8iDMI+SeQcAAAAAOLwTzKl0Jw+xzkolaY8XMr7/sL2aWjJaqvfeIpPp6gasagTfqcZ0sudTdNjLanjQaunJzP4uTjfoVQP3TzWmV9sTcxxbh+iFASXdCLeBsfU+g33pBv96/5V047/UlrFKi6hGsFmnp/6q1k/sVx3fm8hrZDtBetOThtffnuW3pfNMb8bmo0rMUu3nZbXNnOnFWrLcggzMyL9T1GcPV1D/Jp2M8woAAAAAcHRHDCpV5eFO/bf8ls9kezDWU2Iun9+qhVq6l7J5XZXuW1tKap1oQ1I3uE17+Nn/SU7V7rPUdE+jSNeG+eA1aBg/bmjl2oCSCRrt2SUi1qti8mUCBXexSNtEOrFeHvr4PtR6Jak/RdcrSenvQwbzcO6YpYze08eWK71IiZXbfCAfm+rfkeuzL+ofAAAAAKAIRwsqVbtvZujL7CPeWNVmX/GGaNBDIxwi9yR1PZrm95/5XdTkSzWHS3WJtXN3qsqT3uDsK9j+im0Y3z2kG/VP64DS/j0kZpJIrlG6D0IOvmJ5lxWwy5NeZEiX27/faLBo7bj12Rf1DwAAAABQjAMGlWrSjzz5bdz+Ez1xd6Szgpc/8/imIpTlXrVx9ZCf8NjCxUyVlAoSlKTdDmafKe4YdtNzxcSPLz7/jjvf9OIYjlmX8qD+AQAAAAB2OdrT31Y9NXKKD88JVM14Ol//RHcwMUOUYse36Tj1hMKVYGhSYs6bQ4lOPrw+rrzz6fimF67KOlqy/FU57K+4+lw86h8AAAAAwMUJJur2NP+UYEqadH+GoFGfNeRmm3zDbiadcDLi9GTFgaDxnHcY0ZodLrQcScb0NDkwzOgw7Bxhfz8qhz0UXp+LRv0DAAAAALg5/6CSapQOzIzIfZlGojm6N0W/tpTRa3qOpl0m78HTqcZe3Y7UcTTsk7zGWYEl23iuPW8IOrmy24nOrWOfFpZv+FHe9GKb5lA/Hj8++bSb4utzsah/AAAAAAA3FxBUUiYd8+jzUnu8mo8lmKOpIbnmzZ4PpKGH82TM8xJt6KfpwJIeBhQ8Nj7ZRg56MwW/c9tettR2xnX5to9tzyV3erEWnyOsfzeSVt6hW0XX54Kdff3TT2K0f6+H6Wl6aKp5b3r4p+cBAAAAAAL/K5fL/9mfr4/uYTFuixTy1DbcqmCOIR30OfH8P9RnAAAAAMAZuYyeSnmV70X3Yzj3J20BTqjPAAAAAIAzckVBpap0h9GhL00Z6meWFzbhMHBM1GcAAAAAwHm7ruFvdnhQMMuKoh9j7j2RMhB3suFvO+tzU4YuE2gvR9JqnHoC8G2uJR0AAAAAcFuue04lAAAAAAAAHMR1z6kEAAAAAACAgyCoBAAAAAAAAG8ElQAAAAAAAOCNoBIAAAAAAAC8eQaVqtKdLmSxmEpXP+tcP51qoV5Po48+v3I2zcOmfe1BP0VssRhKjj89rrBc9z5W6gtOybX+UU8BAAAAII8L6qmkHzu+kKlp9Z1O9akupeVI3o/6bPlzdB7lAQAAAAAATsMzqDSXnz/9/5/8zPXLH/WTfvmjfhMKgg2L5HIV3/o35aVdkuX3Zyq9WcGVi+mZlDQfSKNSkUqlI/vFzlzqy7lY19vtgbIt6zWH6/oeLln1fp/1zFJEnXJN7yVzrX+XVE8BAAAA4HwcrKfSctSSiglM6KUlI2nLOBxecqmaj1KTpXx/0tS8Ns1hX5XtblvXm3QidT5S75MBI9f1jKWMWtF19bJvsM89vQAAAAAAbOIdVJp0oo3aiXR0I7ezq4k7l0FDNZyXJWm/JRrOq/l71kt0vqKgt49+P2gEl9rj2LrRXhbZPYNsj4xwo2Z/Ori17qmhf7Xaz8YeVVXpPqsjmH3IYO+YUjiHSzoNxuoYI8dllnhQLv676JIVvIvvM3OdZFlk5IVPeWj56suRqXSbou31ZGbfyuS63oqq9x9qzVJdnlLlEeW6XkG803G5XOvfRdRTAAAAADgzR5xTaS6f38tEw7kpwzeRV9P7Ilhao6XU+uuAx3zQsL8LGsDxHlAVaeSM8NTfnuW3pQNdova3kPH9h1RaI1mW2vKSNbao+iT1kmqIf+3b0KxJfzGW+w+bht7MBGbSE3+XpD22x2XSmg7KrfMmXIL0LEevicCXDqCNpf3XW62rkmq2H9vvathbRdRhZTpUeZxOVbpvbSnNerI9huC6Xlz14U79a4dVbeG63v7ypQMAAAAAgKSjTtQ9NxOXlOS+HLw2PQIag9i8JfPBh8zUOvWDdtkoSelP9zgK51JZymjHzNtFTtA961XWDfrJlwnO3D1kpFc1/Ne9JcKg3L2ssi+h2n2TtozkNRHYqXafpab20otEEeaD1yCg9pgVQbsdJs9K8bzJ4rpeTLUrb3oOrtG77QGzwdb1guDiujfYfvMp5UoHAAAAAAAZjhpUCmUGUI4s1uNo+S3bp0nKmqA7r5lkdXYqrSNtK8leUUEvoQ3z6djAxOwjHqRTv5CnoItV4u9sQO3uYdXz6fbYct0V9HFeT1HlsBpCOG6bQGQyyGe4rJc199JS93TLGt7owiMdAAAAAADscJKg0l9kjE96XqAznEDYTNA9k4+zHdq1bUhTWe5L6r9aP5HPC+mbSZE293y6dmay6k1BnwjX9YzIEEK9tL7rMlZ5nRre6LpejJ6bTA87LEk7c4zmdl7pAAAAAABgh6MGlYJ5Y5by+8++7k5lrHvX9NaN63CunvNRtRN0J3v6nI/tQ5r+ye9S/aeH0kWCGOtlQ8+na9ccSr+2lNFrsmdXgut6G7gOMzz4cMQ90wEAAAAAQNIRg0rB0Jv109PssKyl6zxFQXAka5jYVtUH0aGs3HZO0L35uMq6i9DyV61xQOGwt96m4NChhrnlLI8z0Xw03bQS8xXFn2inn2Tnut5mQU+xZRhJ3chxPVufM9dbDalLz7u0fzoAAAAAAIg7UlBJP31MN2CjvWlssCP6NDjTKA4auml2/drzxvlk5p/fslR/versoben56uxL/NovgTz3WwOfNkJtJPHZXqG6BjaIXuGuD3Ja/IePNVuvH1slafd5XHOgkfIJ5f4E+30k+xc19vEDDlTa+8aOum0XlifNwxhM5PJm58i54C1bzoAAAAAAEg6WFAp7P0Q9oi4Mw3XeG+aScc+Jj/sPTGuy7d9zH+W1PrJ3hXzgbyqP671w+3dy4d9zH4+TdEdPHZN0K0n0A4f0R8e16J/J6NW5ClvBxAMe1M/ZMyXlMyXhg4g7FgvOr9VMN9S28zzk1wvtLM8bkx6fjCVj6KHHcbrfe71xm3500NFE09MDAVBVS17MngAAAAAAIr0v3K5/J/9GUnNoSz6Ir1bnXcIAAAAAABgg5M8/e0ynP8E3QAAAAAAAKdCTyUAAAAAAAB4o6cSAAAAAAAAvBFUAgAAAAAAgDeCSgAAAAAAAPBGUAkAAAAAAADeCCoBAAAAAADAG0ElAAAAAAAAePMMKlWlO13IYjGVblW/7Mp0oV5Pu+o3l6Panao0DKVpX+8UptPnb06mKUN1rFNTQJfiVPWK+nz+9TnLdZQbAAAAAFw6eioh4RKDUgAAAAAA4Ng8g0pz+fnT///Jz1y//FE/6Zc/6jehICiR6gVxyb0j5gNpVCpSqXRkYt9CkVzq1SGcar8ndu71eXWtWMgw82Jxo+UGAAAAAGfmgD2VavIc6e1SfapLyf4MAGl2WNubyMdoad8DAAAAAJwr76DSpBPt4TCRju7x0En2d1jKaDSTUv3JznFSlae6yKg3Ur+5k4foyKpIr4Rwye6dEPaAChc7n0qW5jCynlqyN6iEc7MES2rIV/LYNszZYua0Mb9LHGPmfuP7zErHftvrS83+JmZHPgfz8qz/vtQex9ZND4crNh1u9ap4O/dr8k2nbZ0Gffir/ErWCerz5nTs0ByOpf7dkkpjIP/se5ucqr4AAAAAANaK76lUfZA7/f/nl8xKdXnSDczqk9TlWz5TLUXVaH0TeTVDcYKlNVpKrZ9smOrGbV9qs95qvUrlQ+7f0o1i0yDu12TWW2+z8vWY0bCvSX8xlvsPu05vZgIpsfVWw4Qqon69XaktY3WMEu5X/0Gtn9ivTsdY2n/rdLRGIu1xRuDBZXsmSGAb4nZ7lUpP0oe6O5/ng0bs75ej6DYr0hhEBxYVnI4LUH97lt9WS3QHmlp/IeP7D6moRC9V+l5WaaE+b6wHDnSgKF7PAAAAAADn7IDD3ybyrhqY9aeqNF/a8vcxyJjvZCKdRvz9+eBDVHPY/N2KDVTNvqI9EdJ/q4Msb+2SCYjEOi1MOvHXlm6or96ffJlgyl2sG5WfXdurdp9V038mvcjBzAevQaDiMd0K37U9na+l5UhedzbEHfPZUdHpOH8lKf19yGAezuWzlNH7Ou1r1Odt9QAAAAAAcF0OGFRSDczPb93FQ55rM1m3n0tyX7Y/urIT8eoeItt6QATzNs3kw6m3Q/SY1kreBxfatT09BLCkIwkSX80GKu4eEr1Udm2vKY81keX3ZzwQcXBFp+MyxAJAy2/53CfTb7I+AwAAAACuTfFBpfK9agiHT2X6lG/1qpRqeK6t5qZZLVlzAk2kU1kPPdo0d0v5/pynAi+LObxaP5LWYOmbSYzu1RqH45bPLk6bjnNHfaYeAAAAAMCtOGhPJd1rYdCorCfQDR/9bekG+LhdMsNsKnZOluw5gTS7rdU6pdTcLf9+VSv9bP0Tc3ixeXSiy+Ee7+6Xz7ucLh3njvocXW63HgAAAADArThwUClbMC+LHT6zHEnm9DRb6Z4eQWM9OsfL3Iy7qcl5TudS9LCgoFGfHN4UzHMT5ZvP2dtdY3hTNuozAAAAAOC2FB5Uqj6YZ785sI3S8AlxmnmaWcZwoeYw9Xj0IHiylO/o5DaTdzukKDGUSP19nqdRFW3yHjwtbFzIwczl81sn9nmVVtNTpv4nM92DZMUjnw27fmS7ScWm41pQnwEAAAAAt+UkPZVCk46eVyYY9mPmYxnX5ds+tj1m0pFXeYvN2zJui4xaDYnPYRwMKerNItvUy+NX5tOydonOjxPME6Mfsx68TgYFnJhHuvdkljEPTZ7tzQeNWFrNY+4b7/Jrfx9yzmcrtX7y+ApOx7WgPq+XXNtrDld/r4cRaqs5p6ZdekQBAAAAwJn5X7lc/s/+DAAAAAAAADg5aU8lAAAAAAAAXCaCSgAAAAAAAPDG8DcAB9KU4cYJ4SOWI2k1BhKbTgoAAAAAcPYIKgEAAAAAAMAbw98AAAAAAADgjaASAAAAAAAAvBFUAgAAAAAAgDeCSgAAAAAAAPDmGVSqSne6kMViKt2qftmV6UK9nnbVb86NfvKUPtb1MmzaX52F4x1ftTtV2x+qPZ6rU9Ur6nNxqM+Hc0n1FAAAAMAtudKeSvZR5rOeVCqV1dKZ2F8bQSN4alppx+ZyfECI+gwAAAAAOD+eQaW5/Pzp///kZ65f/qif9Msf9Zu15lB/q57oSXDMb9ebj1KTpYzez7RVe+7Hd3Ru9ap41OdCUJ/3E9YltWT37jrV+QEAAAAA2x2pp1JThuO2lHRPhsbg4A2h6sOd+tc2wM7QuR8fdqE+R1Gf87LD2t5EPkZL+x4AAAAAXA7voNKko4e2dCTokzCRjh7qsmOcS3PYl5rMpJdcz3xDH8wTEsyTEnxbv5o7JCrybX645JmzZb0ffUwipfY4ts3U8CGH/WbP8RIMR1rkOEizPdMDxm4jXDK3Fc63Ei4ZebcSXzeW1lVZrPepd7fKr1SPHIf9epRvnnpVBOoz9TlQbH120RyOpf7dMoHJf/a9TU51fgAAAADANgfvqaQbX/3aUkatsEGUVJL2eCHj+w8zD0ul0pLRUr33Fm30qYbhm8ir+X2wtEZLqfUjjbnmcNXIG7dL6o2a9FeNPrXYRuR80LDb6MlMvV6OVKMust3GINrdwmG/rhyPb6XUlvGiL9Kz++6po631EwEA3WAeS/tvPZdNayQmP9Ptdb2/sdx/rLenAxDJ9epvz/Lb0mWgd2fLRW10qY7nZbWuz35dyvdyUJ8t6rNdN3991oGiePkAAAAAwGU5bFCp2pU31eCc9Rqyte2khxGtvnWfy+e3agGW7qVs3zHfzCeGGc0HH6oRXZL6k23KTTqRBqEeSjJT7Vfb4NRLrmFKDvt1leP4ZqoBvsqWyZcJGtw9rPdb7T6rpnW8x8x88Bo0oB9TreGd29MN5tLfhyqrcA6X7HlyfPe7u3wvBPV5jfpsX1xwfQYAAACAPR0wqFST/rgtMmrtfArU7Cu+QtD7YlNPkFsxk0S2GKX7sOlalad6SWdeIp9sA/ruIdFzYtf2ArGyWH7LZypy4bvfxDaVyyxf6vN+qM8AAAAAcG0OGFSaSW/DkJQ84nOY6CWYQ+bQTrXf3cpyb0Yd9RPHt5C+mVznUD0nTrXfU6M+Hxb1GQAAAAAuzWGHv006ZmhMrjlbInRDWM/booe7VFZDbII5ZA7pVPt1809+zaij9Tww8eVQPSdOtd8zQH0+IOozAAAAAFyag0/UHcxNoie3TT5NypUdnrIcScZ0KHsIGpPJ4TJre+63+iD6QeuHs3l4zmGdar/ngfp8KNRnAAAAALg0Bw8q6UbboKF7Q+inNeVpiNtGX6kuq7mEzaO99x22Y7dbe97Q68R9v/PPb1mqd1dz+ur1xm3Ro2oOafIePMVqXMR4LA+n2u95oD4fCvUZAAAAAC7LEYJK2kQ6+jHeORvik459bPfYzncyrsu3fUz4PlLbVcs00iJ33u98IK9mWFS43r18mEeN298fitpvQw9fypgPJpqOwp1qv2eD+nwQt1afm8PVfvSwRG2V59MuPacAAAAAnL3/lcvl/+zPAAAAAAAAgJMj9VQCAAAAAADANSGoBAAAAAAAAG8MfwOAQjRl6DLh+nIkrcZA5vYlAAAAAFwqgkoAAAAAAADwxvA3AAAAAAAAeCOoBAAAAAAAAG8ElQAAAAAAAOCNoBIAAAAAAAC8eQaVqtKdLmSxmEq3ql92ZbpQr6dd9Ztrp5/spNO+XoZN+6uCVbtTtf2h2uO5upZ6QH2mPh/CLdcrAAAAALeEnkpO7KPCZz2pVCqrpTOxvwYuCvUZAAAAALA/z6DSXH7+9P9/8jPXL3/UT/rlj/pNYHuvhOAb/Kn5+v6CNB+lJksZvdPqDuyuB5eB+owcwp5HG3t3Xcv5AQAAAADb0VPJQfXhTv1rG4jAhaM+52WHtb2JfIyW9j0AAAAAuF3eQaVJRw+V6UjQx2EiHT10xnncTFnuS/bHlXD+kXCx85AkRXoHxJfE+hnrJXsTZPc+sXPM5JhYxmzPzJeSmKcmc1uO6TXi68Z6xJh06r9d71PvLkibep2av8Vhv6ttRrazYd396sH5oD6n3WJ9dtEcjqX+3ZJKYyD/7HubXMv5AQAAAADbFN5TaW7GfdzJw5ZG29+qi4RuQI6l/bee26U1EmmPEw1n3Tgct0VGqkFn1mtJ0FFgqd5qyGDV40Jt703k1W4r2N5Sav0cjcjmcNUIHbd15KAm/VWjVC3JRm6pLeNFX6Rn992bqT/pJwIAjuk19P7Gcv+x3l6pPU6tV397lt9WkB+1vjrW+w+pqI0u1fG8rNb12W/JvG+2Y9bV21bvvSUb9beB+mz3TX02gaLGunAAAAAA4OYdfPhbc6garOmWnlHtPqum5kx6kW/w54PXoEH5uP6b6lNdNQ1n8rFq0M1l8Koamurd+7J9y5hIpzGIzVsyH3yovyxJ/cmzCTnpRBqsusWvjtO+NktiP9pMNcBXSZl8qb8QuYtEI1zTG9q1Pd1gLv19yGAezuGSPU+O737VjiO9Kuby+a1WLN1LLKtvFPWZ+gwAAAAACBQfVPr3G2kcN+Wxpv6rPaqflOqD3Knf/pqxI1V5qpdUg+/LDhEJ2Qbl3YN3T4LTmslXuv2r2q5h09U3vbu2F5hFV1p+y2cyMpAjn2PbVOaDhqyH8twY6nMM9RkAAAAAEDpsTyX9lKnZSEbLmqQ7ENj5aGr99RAcu/R1wz3Sk2D++a2a7jV5Xo35qUr3ra2a+umGanzuFL301V+eA/f0FutU+71C1OcI6jMAAAAA3Lrig0rh47OV5mNNZl8DM9xkPSwlfOrUP/k1o3DW86LEl0hPgvK9anCr9mJ7bBuQY2nLSFqJ3ga6Aa7ni9HDbNbb6amm+jnwSG+hTrXfK0F93oD6DAAAAAC37mA9le4euvJYC3pemJ4ZesiQbUwHXIcFVaX7XEs3IlNzwNhhMcuRZEzDspsZynRIpxoGdanDr84L9TmJ+gwAAAAAt+4AQSXbk6Bel9ryV71S5p/yvaxJ34xPWZu8B091Gm+Y+DhgG5HhPDYb2fVKdVnNYWweKZ4eLhQOP1p1NrFP41oHCA7DLb3FO9V+rwP1eRPqMwAAAADctoP1VCqVSrL8/lRNY80+cUkLG+bafCANPZwnY36UaeSZ6ZOOHvKTeAS6XaLtyknHPi58bH8/rsu3fTx5jNrvq3pTP7I8WO9ePlaPdT8gx/QW7lT7vSLU5wy3Vp+bw9V+9LBEbZXn0y49pwAAAADcnP+Vy+X/7M9nqilD3TtjOZJWYoiQfrx7v7aUUashq6ezA2eN+gwAAAAAuA6HffpbEezcMOteImv/zLik8HHvwAWgPgMAAAAArsT5B5Xs07dK9afE8JKmvOghKHknMgZOgfoMAAAAALgSFzD8TatKdzoWO43Jmn6CVocWOC4N9fk82KGI9tVGGUMVAQAAAAAXE1QCAAAAAADAOTn/4W8AAAAAAAA4OwSVAAAAAAAA4I2gEgAAAAAAALwRVAIAAAAAAIA3z6CSfmrVQhaLqXT189CrXZku1OtpN/F49HOgn+ykj3W9DJv2V2fvVPl8SeV7TOQLAAAAAABJV9pTyT4qXD+ivVJZLTytHQAAAAAAoBieQaW5/Pzp///kZ65f/qif9Msf9Zu15lD36kgvuXoKhb1CtixT030kovkoNVnK6P1So0hu+Vw8x/02h5nloJdUGWeUX3Y9KKhnWXhs6QOJ9zZyXc84VXkAAAAAAHC+DthTaSa9SC+h1mgptX5GAMjFciStyLaii95uUvXhTv1rAwAo3qRj878lJvsj5RPrDaYDN+O2yKi1Ki+9fD1GAzaKCfD05S66Xm+Wr76oYzN1otaP/23zRdolVSt7DRnoeuG6HgAAAAAAyOQdVJp0dKO/I0HsYCIdHQBwGFc2HzSkNxMptV9k1TfE9GIJAgzV7jToOWKWRNDBWveAGq63kYPZl5kPJ9E7JrNrjEMPGpd0rNZZb09vZ7V+Yn6evPm8r+L2W5Xuc80EnF4T0ZlJJxqwsevNetKIrmeDPrH64mg+eDXBrlL7zea/yvN+cCzRzmuu62mnKg8AAAAAAM7VCeZUupOHaPREStIeL2R8/xH0UDG9X9R7b+lJkIOGvVp6Iv1kYCkyJGusu5pITa0TBnfSQRsptWW86Iv0wm3OTK+VWMDIBILiPWjCHlfp+JNbOupvz/LbCnr46O2Y9VsjWarjefGNnlyC0r2U7Y+Zqk9S1z2DvtIBmvnnt6jclkfvfJnL4FXlqS4Tlf/dYT8YDvk6SAxXc10PAAAAAAAkHTGoVBUzKm35LZ/JFrueUHvV62Mun9+6+8iWYMTkS2bJ4NRqSFY4JC4+/K7SSAcKZr3IcC2zTZG71Uar0n1rSynRgybscVV7Tge9dqejJKW/DxnMwzl6Lnnep13mMvjQOWqDe5m9wHRMqa5yZSm//+wbUXbuonWZeJgP5DXohiRt0/noNXs4m+t6AAAAAAAg5mhBpWr3LZir5iMjuJPopaIDN+uhRhGrSZ9176F9G/8zyegcI6V7GwKyPWiWGdGOyZcex1eXp0SswyUdsXWyAmzXxAT67LxLtb7tNZY1tPEw81/NBx8mUKiDd99bMtp1PQAAAAAAsHbAoFJ8+Nm4/Wd6Du01DY3uuWInhY7Nv3NAf8z2vae5DBq2t5ge5meHCcYn4E4Oidws68mC2ZN566e46eFsWnoY4prregAAAAAAIOqAQaXE8LOsnkfeJtLJGMZ2SFlDr4Kny8HbfCAN23OpVH8ywZu5GQdYkrCDWEz1Qcxz/CKBvdW8WpElK8AY9oxbjlrBcMhSW94ygk+u6wEAAAAAgLgTTNS9BzMZd/aT4Qo3/5RgSqR0tKN8r6MQVz507VjsXFa1jNm4my9tKW0YprhVtStvQaTIPHku/ZQ3y3U9AAAAAACQcllBJTNHT/Rx9IdkJ5qu9WPDq6rdqfRrPCFst6YMk0/cU1Y9g74/bf5N5F1HchJP3gvyWWTW8+3hZidY15Ogr8oo/pS34Jhc1wMAAAAAAFkuI6hU0o//T8+lo5exjlAcig5i9WZq9+PI/vTcUMcKbJ0p02NM58fYBIii5bMODE2k8yryZt9f55/IqBUfsmYmNFf5XOun1/Odg6s5DI4p9RS3yFPexuogXdcDAAAAAADZ/lcul/+zPwMAAAAAAABOLmv4GwAAAAAAAM4CQSUAAAAAAAB4I6gEAAAAAAAAbwSVAAAAAAAA4I2gEgAAAAAAALwRVAIAAAAAAIA3gkoAAAAAAADwRlAJAAAAAAAA3jyDSlXpTheyWEylW9UvuzJdqNfTrvrNGWgO18d29poy1HkXWYZN+6uYbesVXR6Ub3GKKN+inXn5AgAAAAAuCj2Vdgoa/dNCIxl6m32pzXpSqVRWS2dif73iuh7yo3wBAAAAAMjDM6g0l58//f+f/Mz1yx/1k375o34TqHanslgMVXM5S9BTotgG/AVqPkpNljJ63xE92Lne7vLwQ/kWorDy9RT2PNrY26no+gIAAAAAuGX0VDqB6sOd+tc27LdwXQ/n5fjla4e1vYl8jJb2PQAAAAAADss7qDTp6CE6HQn6Vkyko4fsOI/XKct9yf64Es7zEi4Zc+aYHhjB+0FPmS3rJpl5ePS6yd41wbCnTdta76cvNfW61B5H1s3qjZPc3iHnxlnbrzzSKN9gOZfyddEcjqX+3ZJKYyD/7HubFF1fAAAAAAC3q/CeSnMzvuZOHrYEA/5WXTN0Q30s7b/1nDKtkUh7nNVgL5n3x/cfdt2WjJbqvbctkwzrgEO/JmLmrAkb0preb3Iumw+5j2xrPmjY93syU6+XI9VoX61bkcYg0r3EBEX6chdZpzVaSq0fSccq+KHS0NaRl5r0IwGK1WTJruudCOUb/P6cylcHimLHCwAAAADAERx8+FtzqBrKG7p0VLvPqkk9k16kp8R88Cp6BE/tMeNvdJBgte5cPr/ViqV7Kdt3YmzAwQQLkj0xqg+iBx7NvqLvT6TTGOSYW6Yq3be2lNSxRRv2OmjRm6l0PNsgwaQTC0iovUvPvjZLuG/X9c4E5Xvd5QsAAAAAwCbFB5X+/cpSSnJvIgFNedRji2qP6ifFNPaX8mvG6FTlqV7SLf9IDxPNTiZ89xA01iPiQYKgYR/voWI9rQMOmT047ATFsZ4meVWfRCdjGSQqZvI1EynV5cm368k5o3xXrrJ8AQAAAABwdNieSvrpVrORjJY1SXdMsfPv1PrroT920SOaNvZQ2akk7bbeQHQYVpKeS0YPrwoCD8F+Hebv2WLzvq4Y5QsAAAAAwM0qPqgUPqZcaT7WZPY1MMOY1sOdwqdd/ZNfM/onOu9NdMnooeJkKaNWJRiatLWnylwGjXBfel6dYE6fvD1b7jImGQqe7nVlKN+VqyxfAAAAAAAcHayn0t1DVx5rM9Ejmuaf37LUQ6TK96ppH9o8DKoIk07YU8Wlh4ru2RJM2JwOHgTBkVIw3itt/inB1D/p35d1V53lt3xeYScXyve6yxcAAAAAgF0OEFSyPVTqdaktf9UrxTTMa9I3457WJu8jWZbaMt574pssuqeKfYLYOBF4aA5Tj4wPJpVeyncqQmCDI7XnDcELtZ8P020mtk39yPp+bSmj12ubeJny1a63fAEAAAAAcHOwnkqlUkmW35+2wW2f5KWFgQhtPpCG7kGSMe9OMiiQjw48ZAx9mnTkVd5i+xu3RUathmTN+xz0igm2kXl8+olePbWX9jiyvT/pVbK3dw0o3zMqX/0kvNVxBX3FVnNJTe3T6QAAAAAAKNj/yuXyf/ZnAAAAAAAAwMlhn/4GAAAAAACAq0RQCQAAAAAAAN4Y/gacnaYMF32JT3ueYTmSVoOJwgEAAAAAp0FQCQAAAAAAAN4Y/gYAAAAAAABvBJUAAAAAAADgjaASAAAAAAAAvBFUAgAAAAAAgDfPoFJVutOFLBZT6Vb1y65MF+r1tKt+c3rV7lQd21Ca9vX1K7o8KN/rdt7lCwAAAAC4LPRUKox+DPxCpqa1jutD+QIAAAAAEOUZVJrLz5/+/09+5vrlj/pJv/xRv1lrDnVviPQypItJwdzKwx3le9HCnkcby6Lo+gIAAAAAuGUH7Kk0k16lIhW7tEZLqfXp6XE9KN/zYYe1vYl8qHIAAAAAAOAYvINKk44OInRkErySjg4qdIJX28wHDenNRErtl/WcOKZnRTC/SzBfTtjrxc75EhMMP1qvs61nTDh3jF0yV0ysk7FPc0xmvpnEviPbWx93X2rqdak9Xq+nllWQpTmMv44ItrHe/6b9Zv1t3vLYhPJVyxmVr4vmcCz175ZUGgP5Z9/bpOj6AgAAAAC4XSeYU+lOHmJt55K0xwsZ33+YHi+VSktGS/XeW2TyYBOc6MvdSDWczTrrnjHpeEJN+oux3H8E61VaI1nW+okGu27Mj6X914tsT8xxpLZXastY7Vt6dns6cqK2F66ngynBNnqifiPLyDHqpTGwA4sm7ypdanP1p3W6jKa8tEsisw8JVzWS+w0OcEug5VxQvscuXx0oWh0HAAAAAABHcsSgUlUe7tR/y2/5TLZ/Z6rxv+otMZfPb906v5eyeV2V7ltbSmqdaMM57BlTe44EJ6yZaqivNzeQD7VetLFf7T5LTQ/fivTQmA9eTVCg9phu1ce2N/kywYW7eOTEQZiuujzF4h+PpgfM7CvdWyQrHVnpPQ+U73WXLwAAAAAAcUcLKlW7bxJ02BikJgVONriD3iF2iE71Serq75a/6YE9ky8TTYg34mUmyfb7v994EONJb3D2ZYcAhewkxncPiUZ9enta6T7Ymo/54ENtrST1yAE3H2u6+4u8p/axKx3nhfK97vIFAAAAACDpgEElPUxpPV/MuP1nJnaOdB7x8mceV1WEstyX1H+1/urYwqVvJs05ZKN+IkGcJOxV0xQTc/j+TAVizh/lm3ZN5QsAAAAAwHYHDCrFnw62nhw4n6zhSFUz3srXP9EdQsyQrNjxFXOcu8R635ihUTP5cJwPp6yjJcvfnZMxHwflm+V6yhcAAAAAgO1OMFG3p/mnBFPwpPuXBI3wjDl8YpLDoTYNg9pXEMzYOWzKTOhckvZLMxgalRqmtYmds+jv57p6vVC+1pWWLwAAAADgap1/UEk1sQdmBuP4E770Y9n7taWMXtNz+EQFc/2o9SKT2kzeR7LUT98q9FFqNphRe854XH6UndBZpUcPx8qawDlLczhW6YhPPn0dKF/tessXAAAAAHCtLiCopEw65lHvpfZ4NT9OMIdPI/aY9vnntyyTc/3Uv6WVWE8/aauhHxGfMe9O/NH0fiYd+7j88fbtBRM6a9mTRAfi6ejfjVQ6Djt062Qo3/3KtzlcbWesZ0tXan277SlPkwMAAAAAHMb/yuXyf/ZnHE1Thou+3I1ascfoh3QvnSCocqVBpKtH+QIAAAAArt9l9FS6MtXus9cEzrgslC8AAAAA4BYQVDq25tAMUVqO3umlco0oXwAAAADAjSCodCR6yJOZ46Zfk1mvkjksCper2PLVw+fsnEjbFuZLAgAAAACcEHMqAQAAAAAAwBs9lQAAAAAAAOCNoBIAAAAAAAC8EVQCAAAAAACAN4JKAAAAAAAA8OYZVKpKd6qfPDWVrn7sVLUr07N9ClX6CVrDpv1V4S4pX7YpNh3BE9GGqiSKci35DAAAAADA5bvSnko6oNSX2qwnlUpltXQm9tcAAAAAAADYi2dQaS4/f/r/P/mZ65c/6if98kf9Zq051L1J0kuunkJhb5Qty9R0W4loPkpNljJ6P1YUyS1fzt+5p+Na8hkAAAAAgMt3wJ5KM+lFegm1Rkup9TMCQC6WI2lFthVd9HaTqg936l8beAAAAAAAAEDhvINKk44O5nQk6AM0kY4O7jiMK5sPGtKbiZTaL+s5dkwvpGB+nGD+nbD3kZ0zJ2HdA6qIeXrC+Xm27NPj+PLmy7lxTkdGD7LNPdESeb1pxeYwtr2s9a4lnwEAAAAAuHQnmFPpTh5iAZmStMcLGd9/mJ5HlUpLRkv13lt68uUgoKCWnkg/GViKBCTG7ZJ6o6bWiQQoYpM56zmXxtL+W8+51BqJOY50HMP9+G6Hyr83kVebd0H+6Z5oWcFAXQ5juf+w66qMXtb6qR5rJmjXr8mst95m5evxgJOrAwAAAACAfRwxqFQVMypt+S2fyWFpekLtVW+TuXx+L0VK91K276RMvmSWDE5NOrEAR3L4XaUxWM27U+0+S03/PtLDZT54Ff1ntceMKIbv8V29iXQi+anNBx8qR0tSf0qH2nSgaJ19A/nQPdbqT+ugXLUrb+2SLEet+GTqqkxjrwEAAAAAwNk4WlCp2n0T3YFo9hEPRmizr3jkQA+VWw9xilgNuerL3ehVBrnmTKrKU10fyFdi+3YS6LuHVA8k5+NDhpkksk/+/caDctWnupTUeh/5ChQAAAAAAJzAAYNK8eFn4/af6Tm0V88T/bQvO2l3I3cAoiz3ZnRcfz00zi79mnr/pnsguYvPMaWXvirxfMqmQAAAAAAAwCU5YFApMfyskJ496WFX/v6J7ihjhrTFjq/I47xuOqCk562KzX9U6akSz8f0XAIAAAAAABflBBN178FMxp39ZDh3m4e5wYUdPrgcyXuu6Ft6+OHcFEhNsqazAgAAAAAA5+mygkpmMu5GzrmU1ibvI1mW2jLm0WI52KBcqS6rObnNXFduw9+CubWWMopGpCbvwSTpyafHNYc8/Q0AAAAAgDN1GUElHQCKzd+zXvQwLG/zgTT0cK2MeZWSj7pH2qTTktGyJO2xzbdxXb5b+j27gjX//JZlcm6t+re0UoHBuQwaFenNItvUy+MXT38DAAAAAOBM/a9cLv9nfwYAAAAAAACcXNbwNwAAAAAAAJwFgkoAAAAAAADwRlAJAAAAAAAA3ggqAQAAAAAAwBtBJQAAAAAAAHgjqAQAAAAAAABvBJUAAAAAAADgjaASAAAAAAAAvHkGlarSnS5ksZhKt6pfdmW6UK+nXfWb06t2p+rYhtK0r4+mOVznCQ6o6PpHfb5u512+AAAAAHDp6KkEIENThouFTImUAgAAAAA28AwqzeXnT///Jz9z/fJH/aRf/qjfrDWHundAehnS5QIbBL1yIvUlszeJW/1zR32+VKepLwAAAACAqAP2VJpJr1KRil1ao6XU+vR8QJoOEIzr39Ja1ZeezEptGZ/VMCXq87m4jPoCAAAAANfPO6g06ehGXEcmwSvp6EZdJ3i1zXzQkN5MpNR+Wc8RY+Y4CeY7ifc8yJqfKBiOE+2dsLmnSDiXil0yV0ysk7FPc0ymoZrYt0sXFTPPkl4/OSdOcfv1Wi91HPZvIut6pTecnya1ZJXddrpuVBqDSO+RibyPlqqy1OUpsa289W8T6rNaknXAvN+Xmnpdao/X66llFUSz9TsrqBZsY73/TfvNG5A7ZX0BAAAAAKydYE6lO3mINfxK0h4vZHz/oRp/ugHYktFSvfemG6GWaaz35W7Usuuse4qk29c16S/Gcv8RrFdpjWRZ6ycasLpxO5b2Xy+yPTHHkdqe7gGh9i09uz0dSVDb2xwAUHSDu6+a5DO9/bBBqx1gv3mObxuX7enyGLdFVuWhy0z/YqneasigsLFFJbkv2x/P1nXVZxOwMdvoifqNLCPHqJdGWLiTd1PmpfrTOl1GU17aJVX3P+L1ILnf4ADz19NMl1BfAAAAAOB6HDGoVJWHO/Xf8ls+k0EHHXxZ9R6Yy+e3bq3eS9A+rEr3rS0ltc6qQauEPUVqz5HGujVTDdf15gbyodaLNn6r3WfVVJ9JL9JjYT54NY3k2mO6lRvb3uTLNLbv4pGENRtQMo3xRI+IQ+3X6/gc7Npe9amumu8z+ViVx1wGryNZFtioL9+X1L9L+f0XvD4/N1KfNwrTlegd1HxUx6L28bU+llBWOrLSm8f51xcAAAAAuD5HCypVu28SdGCIDlsJJBugQW8J28On+iR19XfLjNbi5Mu0rhNDXmaSbM/++4036p/0BmdfkR5Emp3U9+4h0chNb08rZUVPntYBpWjAIHCo/Xocn5Oit5dDcyi6o1eqt8sZuYn6vMN88KG2VpJ65ICbj6rgliN5T+1jVzr2cAH1BQAAAACu0QGDSnrYznr+lHH7T/REx5HOFF7+zOObilAW06mh1l8dW7iYhmnuRm5J2m29gU3Heqj9Ht/881uWqnyfV0OwbO+bDQELL+HQQbWtaM+b07u1+uxiIkEcLOw11RQTU/r+TAXaDuZs6wsAAAAAXL8DBpVUI8/OwxIs0bmF/GUNz6ma8Ue+/onuIGGGKMWOb9/j1PMJVYIhTJlz4xxqvydQvhcdx1hP4jyWtoyktW8a9FxDYYDg7PLj1uqzm1jvKjP0LToscjszZG35q1KQ01nXFwAAAAC4fieYqNvT/FOCKWnS/S2CRmnGnDYxyeFBm4YFFWPSCSatrvWTT9867H69VR8kTwhD52f3WTXkk0GM2NO4crCTf+veTlcdILiY+hwEq3YOizMTdpek/dIMhr6lhuFtYuek+vvJV29upb4AAAAAwBk7/6CSanIOzIy+8Sde6ceU92tLGb1uD2YEc9+o9SKTvEzeR7LUT6Mq9tFTljrehn3i1zgeWDrsfjcLh6ut5mxeNcjzsEGM2qMUloqbChBcSn0Oy/k5ERxNshN2q/ToTkNZE3RnaQ7HKh2qvPMMWSOgBAAAAABn4QKCSsqkYx59vh5uFc5pE398fRg8ic19U/+WVmI9/eSphn5kesY8NPFHteelA0v6kezB4+VXbf2D73cDtd/XUfDIerO/8b18mEfd2997mnR02uL5HC554hrNlzDAlbHNaTFPBzsrF1Kfg153QR3etr1gwm5t25xa8XT07/IPl7y5+gIAAAAAZ+p/5XL5P/sz4KApw0VfasuRtBJD3ppDPTm0nlsqEfTAlQvqxF3mUw+DXlhB0IxeRQAAAABwTS6jpxLOh52LKesJX+YR8VKSHE+nxwWrdp/FZ4JuAAAAAMB1IKgEP/Mf0VPtrB8jH2rKS1tPND2SyHQ/uHbNoYxVuS9H7/RCAgAAAIAbw/A35FCV7lRPtGxfhvQT4fJMvIyLEwxpCyrArFeRbcW+e/ibHVJpX22UMeQSAAAAAHA6BJUAAAAAAADgjeFvAAAAAAAA8EZQCQAAAAAAAN4IKgEAAAAAAMAbQSUAAAAAAAB48wwq6ad+LWSxmEpXP0++2pXpQr2edhOPlz9z4XGHy6Ud/03QTwRbyNRUtGM61X6zXMn5djKnzr+gLi0WQ/UTAAAAAFyf2+ypNB9Io1KRilp6M/serHMKqgAAAAAAgHPlGVSay8+f/v9Pfub65Y/6Sb/8Ub8Jbfh2ftU76EK+tU/2ZspYLirwkpGeId0nzpzL+eYpox5k1+PwPA4X29vnohwg/7z8k9+l+m/5q34CAAAAgOtzwJ5KNXmOtEKrT3Up2Z8vxnIkLdujKbm0Rrq1eCGaQ1mM2yKjViwNX4+XGChAbrYe/PUidbk1EmmPE4ElHVDqS23WW60XrEYgEgAAAACw5h1UmnR0I7Mjk+CVdHSjsxO8WlvKaDSTUv3Jzl1Slae6yKg3Ur+5k4dYICOc92RXjwjXnhPF97BoDsNtZfeyqnandp6WxL6zWuAbe0Alj9M1X3ZR23mumQDZ6yDeP2PSaUj4lkmD2U9f1NpSao8j+87ozeLQ88krX1LpDY4jxaXHlVknyK91uvSSlYfb92vKfuMcPEG64nnjWG6O9cDtfHPTfAzqwXv0z+ef8r1U5b06V3WaVR7ogGpkP/PBq+g4au35suZz2pl/q7qyrqO6Pq3qTVj2ruvFzGXQUPtrDI7UMwoAAAAAjqv4nkrVB7nT/39+yaxUlyfd0qo+SV2+5TM1BkQ30MbS/tvVI0KvF+85Ual8yP1bsiHnup6foGGqlp5If9PwvVJbxmrfEvYC0ZM11frxdOiGaazHUMs01E0QrrUO8Ljni4fSvZTtj1nmg4bdV0/0NFPLRK+mRiwgpY7vTeQ18nvdc6vWzwiguOaLSm/9O7rP4DjiPPYrJZNf4/sPu67Oa/VetC447PefHr+0I+/WHMvNuR4UKzstZbnXXQhXQ8KaYmJP35/xQEjzRdp6Pee8uCz1t2f5bQXlUOvbeqMKb6nq70uk7FzXAwAAAIBbcMDhbxN5Vw3q+lNVtUfb8veR/ra+2n2WmmrC97J6RDxGWmg2UDX7inaxmEgn2QPAdb28Jl/qaJM9rdZmvYqskmLWFbmLrBwMAZzJxypqMJfBq+69VZL7SEvdOV+cqH186COpSV/3qMgdlYpK5+l88KGOuGTKO2lXvuj6UcroSZXmt1+140ivlLl8mi4566CIy37nZlKedZmbnkthHtr69mcm7HEvN9d6ULQgr3Q9CINwNggbPeZEmjTTG0fHBc2s9pvr/+UqSenvQwbzcA6mpYxi3blCrusBAAAAwG04YFBJNWI/v/VX+/Jcm8k6zhM2nPWQuJKOAEm8WWYbbHcP6x4ldoJd3TNga0zEdT1fpkeLHvLSl7vR64aeJNE0rpW8owQe+eJq0ln3hqn1g+E6m4ZlFW5XvmzoGVOAeHBR5aDpjRUOhXLc779f0dkWCP5Gao/qp9BSfk0PvAOUW+GC4V9h7ykz1M/06gvzJE0H0cb1b2mt1jls4OtUYnVl+S2fGyqF63oAAAAAcAuKDyqV71WzM3za0qd862/3Uw1tzQ67WQU51ktfN9xjw2x0Y3g95GRzUMR1PU86WKXnmFEN8vgwMD86yLaU6ATmVem+tVUORQMvPvniw87voodb6eE6aq86sJD3CXbxuYr0onu8HN7R92sClTaQ0nyU2myk6ldNTMejaF33KDe3enAIumfSQsbtP+mZYXc9mdnjTQdhg3Wff1uJOYHCIBoAAAAA4NYdtKfSKpARDq0JH+lt2Mdtx+Y/ii7J3hORoIiZ9yYIiqQbw67r+UgPu8rFBCEkMgn2WNqig1XRtPrmSw7zgTRs8C06QbMrHdgZt0tmWNv6uLLmQCrWafYblIcerld9uJPl76cZRqeHs+nX6g37uHiPcnOqB0XTE4jboW6r/USDsHausFVvv2AerGgQ1aR3FUQDAAAAANy6AweVsgXz6ewzLEg3hoNgQnRunjTX9XbQj2Lfu8eTatTrp7Algw6pYNWph0sFwZHNw/bsMK/kU8Ryy95fMD9R1Kn2G5RH6f5J7V/k+3Me9DRS5WP+cjXBtWu5udaDotmeVKsgWMge98pEvvQJk8rnTcP7AAAAAAC3qvCgUtCbwc3kPXhq0nhXN6LmMDVMK2j8L00jf8V1PV9mTqJ9n8plG++x+XiyOeeLk6YMMx53Xu2+mad5pecUCo/zeUMQzf4+fLKfZuacyjsMzU6gHdmf6ZFU/5OZenvtVPuV4Klptba09RMMdWbp3jyqfPrmcWhrbuXmXg+KZYNFyaeUqTzUMa5osCgrHUF9YWJqAAAAAMDaSXoqrZhhWL3VvC7RJRYcmnTkVd5ivw+eyJ4I9DiuF52XJ5jvRj/2Pngd22/k/eSih2H5mnR0ryn7FLbEEotDuOaLk4l0XkXeEtsJ8iV7jqhJRw+JCoYNZu039ftxXb7tY9bz0BNo92br7ZnHtDfe5df+PnSq/a6seiXZAI2yjE4w5FhuzvWgYJOOnqR7GZlvTC1BRYg8JU/R6dDzbkXSEczDtG9gFQAAAABwTf5XLpf/sz/joOzj2/WE34mhTvoJW/3aMh0kwxWiHgAAAAAArsNpeyrdkuqD6IGBWY+wN8Or5Dof1Y4E6gEAAAAA4EoQVDoW+1St9NPWmvJiJjcqagJqnDXqAQAAAADgSjD87aj0Y93HZoLsGP0ksOicNrhy1AMAAAAAwOUjqAQAAAAAAABvDH8DAAAAAACAN4JKAAAAAAAA8EZQCQAAAAAAAN4IKgEAAAAAAMCbZ1BJP7VqIYvFVLr6eejVrkwX6vW0m3g8+m2pdqcqT4bStK/3FuZruFxs/lJfzsupyoN6AAAAAADXiJ5K52g+kEalIhW19Gb2PQAAAAAAgDPiGVSay8+f/v9Pfub65Y/6Sb/8Ub/Rwh4Jm3rtNGWoeygMC+vTc7uSvZkylqnpFnJKu+rLmYjk5aaqGfRGi+Tvxl42to6vFts75yycqjwupB4AAAAAALwU3FNpLoMP3bWmJo9ZjfPmo/qNyOxrErzGfpYjadkeTcmlNVralbCZDYK+iXxsyS8dUBrXvyN53ZNZqS3jVGBJB5T6Upv1IuUg0h5vDlYBAAAAAHCpvINKk45uLHckCAtNpKMbz51IkGjyJSaslBFVaj6akJLEY0ph76YtPTtMT5Lg/XiPkaxeILt7imTPgbSlF1VzGNnehnWMeFqyewoV35OlOQy3ld1DzKTXBEAS+85Kx8YeUMnjdCg3ZWd9OaHmcCz175ZUGgP5Z9/LMh80zDrrXjUTeddBqFJdniJpbg77UtOBvkj65oNX0avWns9j/qCd5bE619Z1RVeT1XkXBtJc17POuR4AAAAAAPI5wJxKE/kKokqpoE0QU/qyDUtNN0jH0v5z6dlRMu+P7z/sui3VWFfvvUUbr3p78Z4ilcqH3MfW8WMayf2azHrh9tTy9ZhxfDXpq7Tcf9h1ejMptceJ9Yo/Pi1osOt9ijqGDUMPdc8atW8J06Ena6r148enAwXjtsioZY9N57H+xVK91ZDBKqriU27nS+dbY52oHEpyX7Y/qjzR9Xv5/Rkf0tV8kXZJ/V+6l9WqF6D+9iy/raD8a3173qlCXqp69BIpY9f1AAAAAADX5yATdU+CqFJ8CFzG0Ldq91m9N5NeVs+OrPFzOhizWncun99qxWhjvfogd+q/+PC6iXRivUw8VLvy1i7JctSSWKeKSSf+2tKBp9X7tsfW3UMkXFT08SWZfd5JdJdRu46v+lSXknr3YxVomcvgdSTLWPAkR7ldofK9jhQt5Tfs4mTL9s9MGhQIApIiPTPb+uZyOT8lKf19yGAezoW0lNF7RoV3Xg8AAAAAcI0OElTKGgKXHvpWlae6apjHei5ptoF695DqvZOci8kMS1oNqVHsBMC6x0QRPWbSQZZtksP6AqVoNKbg41tZDVnry93oNdKjKMrh+Jz4l9vVaQ6lb6qzDqgEbyXpIYnBPExh/YwH5s5d7FxbfsvnhnS6rgcAAAAAuD6HCSqpZnR8CJwdGjR6jwQiymI6e9T6wRwskcU02HMNF9JztayH4gTbyz9nUdAbpUjFHt+KDlbZSbv3Gc41//yWpdTkeXVAVem+tU1gbR07OES5XRA9v1YQUYr11FoL5hh6/g3malqXRqRXEwAAAAAAV+BAQSXdWclElYIhcGbo21K+Y90Y/snvUv0Xm18oukR6IHmZy6ARbqOnmv7BXEx5egb9MwdYtOKOb62gIXTle3U0YuaCCgJFY2mLDlZFy+JQ5XYBdI+wMKCUTOeqF1owb1U0uFd9MAPjgsfpAwAAAABwJQ4WVIoOgTND31JDY44xXEr3DNKBm/jcQZnsnDhRc3OAibmhCuVxfNuYp9Pt2+OpKt1nVU7JYFEqWHVDw9yi7CTmutdWKqBk2N55y5HEpxXaNFwQAAAAAIDLdrigUtjIrvXNsKjUU7GUyXvwlKhxURMMNYepx/gHk0rHe0mFw7xWwaJVwCBh8m6HqiUCNmo/uQ7Z8fi8TTpSqUSfzpaHDRalntqXVni5nbudAaVAVr5Uu2/SLjGBNQAAAADg+hwwqKQa2SaqpG0ImswH0tA9dTLm50kGX5xMOvIqb7HtBE/ITwRc1H5fR8v1vEbje/lYPT4/Khiq1psFQ9RW2338ynz6206Ox2eeGmZ/H8xT1JaxfR3Ll8j7yWVsnmPvZ9LRvaZq0s/YXix+VHS5nYrp4RUcd5hfqzox7a56YjVfwoBjRt5E1jP5oh+nH8mXcftPensH/AAAAAAAOD//K5fL/9mfcdP0BNN9qekJvxND3vSTzPq1ZTo4BwAAAAAAbtZBeyrhgtg5pbKGKQYTll/WI/EBAAAAAMBhEVRCwD69rFR/SkzA3ZQXPTQsNQE1AAAAAAC4ZQx/Q0RVutOxpKZj0k+EyzWJFAAAAAAAuFYElQAAAAAAAOCN4W8AAAAAAADwRlAJAAAAAAAA3ggqAQAAAAAAwBtBJQAAAAAAAHjzDCrpp4MtZLGYSlc/d77alelCvZ52E4+hP41qd6qObShN+/q0mjJUeTM1GZUQ5tu+x9ocrsuiEOddvtjXqcqXegUAAAAA14ieSgAAAAAAAPDmGVSay8+f/v9Pfub65Y/6Sb/8Ub9Zaw51r4T0MjyPLkSnNx9Io1KRSqUjE/vWeXAr36uz6jm2Zx01PcfS9T7VI811vcKdqnxvtF4BAAAAwJU7YE+lmfRM4CRYWqOl1PobhoMBJ2GHZb2JfKj6WYyljFrreh8sWcFD1/UAAAAAADhP3kGlSSfa+J1IRzeGO7ubwvNBQ3ozkVL7Zd0bw/QQCeZZCeZDCntsZM0TFMxRFO3ZsblXSTiHi10yV0ysk7FPc0xm3pfEvp2215ea/c1KpEeMWXbNKZPs0eLSjWb1N8leL7vTq+Ut30vUHI6l/t2SSmMg/+x7125n+a7OyXWd19VudX6GddZ1PeuW6hUAAAAA3IoTzKl0Jw+xYEZJ2uOFjO8/VKNTNzxbMlqq994ijVLTgO3L3ahl11n3fErHWWrSX4zl/iNYr9IaybLWT/SQ0g3hsbT/epHtiTmO1PZKbRmrfUvPbk9HxtT2YuuZ47MBCru9SqUnas241bC3igmwbWMa5/2azML96uXrMSO9ETqgpP5G/ZFaP9rrxSO9N0QHOhoDBmBlqb89y29Ln4tizjNzfupzSZ0PL5E647oeAAAAAOD6HDGoVJWHO/Xf8ls+k+14HQRZ9VqYy+e3aqGW7qVsXlel+9aWklonGgAIez7VntO9fXQgZr25gXzoHlL1p9V61e6z1PTwvEhPifngNWgYP6ZbwrHtTb5MsOguEhlrvqjjW47ktagARbUrb+2SLEet9X61SSf+OsoGlPTfJHuA+KYX+wiCpEFvML1smifJdb1TKEnp70MG83AupKWM3rMqnut6AAAAAIBrdLSgUrX7Ju2SyOxjkJqcd/YVb4jqgNGqp031Serq75a/6QFKky8TLZKnWFRpJonNyb/feJDqSW9w9hXpyaPZhvHdQyJIld6eVroPtqZ7AT3WdKzss7BJh6tPddVcn8mHa5DqaR1QSve88U0vcpt0Vj3BgkX34NE95xJDDV3XO6HYOZkVCLZc1wMAAAAAXJ8DBpV0I3ndE2Pc/jMTd2/sabPDn3lsVBHKcl9S/9X6kV4iwaJHjq2DT6dTNgfoqiTtdjB7U3YenX96r9dcBg09DFKV0daxYK7rAQAAAABwPg4YVIo//S0+x4+/6HCzUNWMp/P1T3THpWDeoejxFXOcRTA9q5wFTxELpnrKmiPp/NMLAAAAAAAuzwkm6vY0/5RgiqV0fxrTo2fnkJvk8K+ih30FQZvk8QXzGOUzNwdYE5/pjiadcLLk5BAqhrkVxkzIrnt5ecx/VH0QM5VYxvDNGNf1AAAAAAA4E+cfVNJDg/RM24knuOmno/VrSxm9pudoigrmcopPIDx5D55ONS7k0Wd2YvHa8yqYo49tXP+Tme4hlMfkPTtA1BxueVqbHkKlA0t6Auj43xWb3tsVzHWlOQb8dBBq7DCJu+t6AAAAAACckQsIKil6YuPeTErt8Wo+oGCOpoZE2+Dzz29ZJudyqn9LK7GefiJcQz/yP2OeoWjgylXwJLr107zMY9Ub7/Jrfx/SwaZwP8F8Rm0ZZ+5XB4j0kLb1Ns3y+LVjTqrI3Dzq71YxpILTezX0E/NsPoz1LPKKHkJo3pumnyoY1C8te/L2aPmaZdyWv15F1YV44NN1PQAAAAAAztn/yuXyf/ZnAAAAAAAAwMll9FQCAAAAAADAWSGoBAAAAAAAAG8ElQAAAAAAAOCNoBIAAAAAAAC8EVQCAAAAAACAN4JKAAAAAAAA8EZQCQAAAAAAAN4IKgEAAAAAAMCbZ1CpKt3pQhaLqXSr+mVXpgv1etpVvzm9aneqjm0oTfv6WE6135WwHI52DOddD7DJqcqN+gIAAAAA14ieSjejKUPVkJ+aVj0AAAAAAMB+PINKc/n50///yc9cv/xRP+mXP+o3a82h7pWQXoYn68pz5eYDaVQqUql0ZGLfOiy3enAJgl5mkXq6sfdMEJRbr2t73eTmu731+vkDg6cqt+upLwAAAACAtQP2VJpJzwQ6gqU1WkqtT08ZnA8dUBrXv6W1qqc9mZXaMk4FlnRApy+1WS9Sn0Xa47yBUv/tNYdqffszAAAAAADnwDuoNOnoRnDYI2YiHd0o7uzuHzMfNKQ3Eym1X1ST2jJzqwQ9NOI9RrJ6bSR7dmxr0IdzuNglc8XEOhn7NMdkAgyJfW/c8Y79eqV39/EF24usk9HLZr2fIChRao/X66slHeRz2K+Stx6cE10nK41BpLfMRN5HS5VJdXmKpNkEdJYjaUXSNx+8il619uw/L5D39lQ5P6vCm/V6ok6hvewst1UdXdd5XY1X9SisY67rWddQXwAAAAAAcSeYU+lOHmKt5pLpoTG+/zA9NiqVlmpcq/feIo1S04Dty92oZddZ93xKx3dq0l+M5f4jWK/SGsmy1k8ET3RDeCztP4eeIrrnitq39Oz2dGRMbS/ffjWH9Loe32rYW8UE7LKYwIlZJwhILCN5qJfGIDoAySNfrlpJ7sv2R5UnjzWVb9+f8aFazRdpl9T/pXtZrerEd3tV6b61pTTryTFjMPW3Z/lt6bop5jwz9VXXaXU+vETqgut6AAAAAIDrc8SgUlUe7tR/y2/5TE6koocBrVrMc/n81r1Fwsb1ulEdDYCEPZ+yenbMepV1A3w+kA+1Xqn+tFqv2n2Wmh6eF2mlr3qKPKZbwrHtTb5McOYuHhkzdu13ZWt6/Y+vKKfa7zkp3+vIzlJ+/wWvpfogutr+mcmAAqY3jo4zmkheMki6g+f2qt03aZfiZXJ4JSn9fchgHs6FtJTRe9b+XdcDAAAAAFyjowWVgsaxyOwjOtwoMPuKN0SD3jV2qEz1Serq75arVv7a5MtEbWJDldTWJLE5+fcbD1I96Q3OvuxQnJBtGN89JIJA6e1ppXVXFmvXfte2ptf7+Ipyqv2ekeZQ+nqM4EwHSoK3kvQk9ME8TGF5RXs1+du+vaa8qJNmOXpPlMnhxepoViDYcl0PAAAAAHB9DhhU0sPBgrlW9DJu/5mJu/N2uIj27NhPWUxnlFp/dWzhYgIKGUGg4zrV8Z17vhxYcyiLIKK0oVdQMHfQ828rMQ9TpFeTl93bC+deet0U4QIAAAAA4IQOGFRSjXM7L0+whD0x8skablY14+l8/RPdgcgMQYsdXzHHub9THd+558sB6Tm7woBSMp328fe1fjCvVnQIZlD/7GPyXbluz/SaWsroNd2zDwAAAACAc3CCibo9zT8lmHIo3U/GzH+zc8hNcljXsYZzbRpOtsuhji8IGmXlY+CGhrlF6YDSuC2lrICSMRE9ylKWI4lPF7SlfM3E8rqX11DSM1G5ba+pZ/NWR6UnSV/3Gos/wS89CTwAAAAAAMdz/kElmctAz3ideJKantzYpSdHMJdTfALhyXvwdKrxAR9plrVfV4c5Phs0qj3LpljEMfLlrOwMKAWy8mVb+Vaf6mqbWk2y5jd32V7wCP7kEn+CX/zJfQAAAAAAHNcFBJWUScc8yj/soaGXYI6mRmxC5fnntyyTczmZSZDj6+knszV0Az1j/qA8vT+c9+vK8fjMU8Ps+8G8R20ZZ6wXmnT0o9/jvV9i6xWcL+eu+aIDSlq87MwyjTxVUOeLfkx+JF+y6l8oqA9a9iTvvtsDAAAAAOAc/a9cLv9nfwYAAAAAAACcXEZPJQAAAAAAAJwVgkoAAAAAAADwRlAJAAAAAAAA3ggqAQAAAAAAwBtBJQAAAAAAAHgjqAQAAAAAAABvBJUAAAAAAADgjaASAAAAAAAAvHkGlarSnS5ksZhKt6pfdmW6UK+nXfWbc9OUoT62yDJs2l+duWp3qo53qFJQsLC8DrFtm99TUzESitpvc6i2YetekQrLl0s6P27BGZWH3Xe+axD1CgAAAMB5utKeSjrA0ZfarCeVSmW1dCb214C3LUEzYIfqU11Ky5G8cw0CAAAAcEU8g0pz+fnT///Jz1y//FE/6Zc/6jdrzaH+Vj295PqWftWLZPOSaug3H6UmSxnRgoubD6RhAmwdOWrOnGq/rgo7Prfz47SSPfgK6PkVOUfPqzfguZRHU17aJVl+f+bc7yXUKwAAAAC36IA9lWbSsz2E9NIaLaXWz9nTYzmSVmRb0UVvN6n6cKf+tQ0wAFa6B19rJNIe7zks603kI+M8hGWD3N+fXJAAAAAAXBfvoNKkoxujYY+OiXR049RhXNl80JDeTKTUflFNW8v0cAh6SgTzCG3vPbHuAVXAnEAbe0Al9x3OZ7Lp9yGPHiBmbqDIuhtb9PF9RwNyJi82zqmSGKqVTOuGvzNlYH6XSEvm8SXzpa8azgmO+zWcyyNhlZfJOuFQbg7Ht66XQfpK7fF6fbUkg6R5z49jaA5VGnSANnI888Gr6HhQ7XlL2WzQHI6l/t2SSmMg/+x752ZneZg6oOvGus7r6r4q97BOuK6Xourhs6o5sw8ZZMaU3K4b51yvAAAAANyuE8ypdCcPsUZTyfSUGN9/mJ4TlUpLNXLVe2/pRlrQsFJLT6SfDCJEAjXjdkm9UVPrRBpr0UafbiCO2yIj1SBe7VP/YqneakQaf7rBN5b2366eHXq95BxOH3KfkQbTCO3XZNYL11PL12NGTxF9/GO5/7Dr9GYmoBGu9+9XHXDpXsrBy+1Ww7sqJrC3VaktY5UWCY9P/0GtHz8+08C2AQW73YoqlNSmXffrXB4JusxVXqrMVH8THbrmWG4Ox6eDocE2gvQtV8cYLI2NB3dumvKosio1BKv5IuZ0ca1LEfp8vJz0b1d/e5bfVlDvdI9Kcz1SlWapzoeXSJ1xXW+l+iR1lb+zr6wAkPt1AwAAAADO0RGDSlUxo9KW35IaBaIbVatv3efy+b0jYDL5Ug38RHBq0lk1zIIhcfHhd7o3RbhbM2mu+v3HqkE8l8Grahiqd+8jO612n6Wmt5PVs+Mx0oKsPqijSTYcJ9KJ7NOoduVNz60yasUnDVfHntXpQAeeVu+bNIvc2UTPzSQr6zwwPZfCiIk9nr+c4/+27VdrvrTNpMOvBQUUXMsjxgaUTJAnkXnO5XZLMupEEOAU6ZmIWjLYe0tKUvrTPYnCuYs2zcfmut7a1gm6Xa8bAAAAAHCmjhZUqnbfTI+I2Ue6wZT8Fj/oHRLteWKZHjK651Ff7kavm3uwFKIqT0EXg8Rx2Abl3cO6N4GdOFf3XEj3OFpLB0+2mUlW54ZSGGX596uatKGgF4rUHtVPoaX85hqTtGO/m3q8HNPTOqCU7injUW43TAchx/Vvaa3Osy0BvBsQuwZlBb4t1/UCOybodrxuAAAAAMC5OmBQKT78bNz+Mz2HsnrkONONMDtp9z7Dbuaf37JUx/e8mrykKt23tgn4rNuMZbnXw4Jq/fUQOrvoEVfxnlR6jpP1kJhgvfTcKGWzwYKYBqkNBOiJgGcjtf+amI445Xv1m8uZqNytPEIlabd1AWzqieVTbrcomMPn+bcV672XPwiJjcwE3duCyG7XDQAAAAA4VwcMKiWGn2X1PPJW0NAQE3SRyKTLY2mLDlZFj/Gf6GmLgvl6ounYlJ65DBrh7/T8O8FcUdEeCGYepMIEx6eHpemn3S1/P82wQT28yzz9bvl7tpMnpziVR0jPsxTMgZTdw8O33G7EqldMMF9WNCjL0xIPIZygO9ljLmn3dQMAAAAAztUJJureg5mMe99v8sPGXiLokApW7TNcSvdACCZ2js5FFMyDZHsT7S04vtL9kzzVxTyu3PT4UcdreuL8/STSU5QgaLMeDhcI5jHKw7U84iadsIdHsj4caphbdrovx0S+dIVMze+zabigshpuWsDTFm/N1gm6N8m+bgAAAADAubqsoJKZjHvL08Cc2KBDbP6hbJP34KlO413dBprD1KPlgyDL0gR7Vibv2YEQ9fd5eiaYnk+1trTFzu2ie6Oo4+2bx3kdip1Ivfa8SoOe8Hlc/5OZetufe3nE6R4eOrCke3bE89O53LyEx7lO96XJypdgrrPsCaeDOcC0ogKhtyOczH7rPN6u1w0AAAAAOFOXEVTSDWHTYyK9jHMEUCYd3RsgPudTuMTiEOaR82rdjPl5Yo3BSUde5S32++AJ+ckAWDDUpTcLhris1n/82m+uqVWvJNsbRVlGJsgxT/my+wrmFVrnZ7JR60JPpB5Ng3mseuNdfu3vQ677dS6PFJ2f+m8TQ4Ycy803X4LeUfGyy5N/J6PzRT/+PpIvwVxn2YHaYK4rLXvy9qDnYLgdG34K5waa3vJj8R0ns3e+bgAAAADAefpfuVz+z/58I/RExX2p6Qm/E0Os9BOx+jU9Zw+NuuOhPHBldLDNTF11o/N3AQAAALgZlzX8rQjVB9HTEmf1Iggm0r7tR6sfHeWBq+I6QTcAAAAAXL7bCyrZp2CV6k+J4TlNedFDeHbNg4JiUR64KvZpbnuNZwUAAACAy3CDw9+0qnSnY0lNx6SfQEZj8AQoDwAAAAAALs2NBpUAAAAAAACwj9sb/gYAAAAAAIC9EVQCAAAAAACAN4JKAAAAAAAA8EZQCQAAAAAAAN48g0r6KV0LWSym0tXPf692ZbpQr6fdxOPgT6Q5XB/byTRlqPMksgyb9lfOzjyfr8a55zP1AAAAAABwvuipVCgdUOpLTT8Kv1JZLfGn4gdBp+lpI18AAAAAAAB78QwqzeXnT///Jz9z/fJH/aRf/qjfaGHPiqFkd86xvXj8u+5chuaj1GQpo/dYFCmHXfl8ONXu1PSuWi1X3SvGJZ/DnmeJOh32Goq83xxG8i2y5K/up6sHAAAAAADsUnBPpbkMPmbq/5o8ZjWkTdBFZPa1b9DlPFUf7tS/NgBwgXRAaVz/ltaql1VPZqW2jBlupdTkOdK7rPpUl5L9OW4mvUgvtdZoKbU+PdMAAAAAANfHO6g06ejGckeCsNBEOrrxHB3fNflSzWrVBM+IKjUfTUhJ4jElhzmITK+QYF6ZeE8ah/mTzDxLet1ITxOf7a16pKyXPD1P1vvpm8BaqT2ObTMZdNiZzwcwHzSk0hhEesFM5H20VAdbl6dd+Xyh3PJ5KaPRTGXDkw2uVeWpLjLqjdRv7uRhS97oPO2pE6LUftnQ02m9ZNWrU9QDAAAAAABcHGBOpYl8BVGleCNavQpiSl+2gayYhnVf7kYt06sj2rMj3cAuSXu8kPH9h123JaOleu9tSy8aHVDqq52aOY7ChnnIZXtNGb6JvNpjWx9fJPi0ClqpbbV135Wa9COBgnD4mAnYmG30TNBtGUmzXhqDc+7eVJL7sv3x1lQfRPc/k88vmYXBteqT1OVbPv/pX7iKBp8c6hUAAAAAAGfuIBN1T4KoUnwIXGroW1W6b20pzXqxgErYs6P2nBEs0sGhVS+NuXx+614095IZ77ABJRO82dSzY+f2JtKJ9dzRx/chMylJPey6M+nEAgNqo7HhT/GeP5enfK8DZUv59QqgXCPda0tMuTdf2vL34VquVTGjIpff8rn6A4d6BQAAAADAmTtIUClrCFxq6Jvu7VFSbe2MaIUJSmUMuUrOxRT0/kn2QFKe1gGlbT2AnLd3q5pD0R29ZPYhZ92R6kjmn98i9Td5rkWHcG7vxVXtvonuwDZzDkIBAAAAAHAZDhNUkuQQuGDo23L0ngrY/BU+q3VJ2m0dCSlm26mnodk5ka5eOHRQ97y65Tl8yveqRoVPX/uUb/WqFB3CmRIf/jhu/5mea8ksvNl6BQAAAAC4GgcKKtneRuEQOPuo/e/1+J+Vu4xZjoOnqOW1lFGrEgyhy5ybyZ1u+Ot5kma9yHA2OyfSVdNzXYUBJXpuRcxl0FB1IIwQhY/4j0kMf8zIv5utVwAAAACAq3KwoFJ0CJwZ+habU0bRvT7MFEbpsUNmHp/k+p4mHT3xttp/7smP9RO+9HGM5L3QqMo/+d2Q7rOgA0rjtpQIKDnLCoxudqh6BQAAAADAcR0uqCThELi+mZdn+f2ZmFNmLoMP050o9jh93YujX1vK6HXfOWh0rxL7RLdxnsDSXH50N5To3E72aXX7DVOy2609n9+TvggopezXay7LoeoVAAAAAADHdcCgUjgETsse+maenNabSak9Xs0tE8xB0yhoYmgdWNLDinRgyX8oXNDbKfhbc3zjuny3gh5Q+0htVy3RwNqp6KealcxP8XmBzDLNeBofcjlUvQIAAAAA4Jj+Vy6X/7M/AwAAAAAAAE4O2lMJAAAAAAAA14mgEgAAAAAAALwRVAIAAAAAAIA3gkoAAAAAAADwRlAJAAAAAAAA3ggqAQAAAAAAwBtBJQAAAAAAAHgjqAQAAAAAAABvnkGlqnSnC1ksptKt6pddmS7U62lX/Qbni3KDdqp6QP0DAAAAgGtET6Wja8pQNainpnUNAAAAAABwmTyDSnP5+dP//8nPXL/8UT/plz/qN1bYC2HjYnsr4Igcyu1GVbvTeP3c0HvGdb3zVsT5mxEQbQ4T6wylaX8VoP4BAAAAwDUqvqfSfCCNSkUqZmnJaKneW46ktXqvIQNakjgDOlA0rn9H6mZPZqW2jBMBI9f1rkbsfI0vLXNCh+ywtv6djFrR9b7kkaFtAAAAAHD1/lcul/+zPx+AbnSOpS2qkdoYbOiVYNcp2ZeyVA3USOBJ95wY1+W79SH3477U1FuzXkXeH1RDX/+RbgDbba8a/40feVkE62rLUUsaqUjWjv1qq3035PPJ7s/YtG5bVptT9HF2JsHP5tjWO0uJHmOw7p/0Kh2xf67oYXMqTbOeVNYbdT8+OAnyXnbmn+t6F0fXqTeRV3VOlYcL6ZuTaLaqizrdb/Jq6mpYp6P1HAAAAABwO048p5IOlIyl/deL9IQQaY8XMoyPn5H627P8toKeT7X+Qsb3H1JRKy9LbXmJrqt7kCz6olrBwTaDDSa2575ftUHzvtmfWVcfg3rvLdoTQ21PN8TttoLtLdVxrof6zQcN+7ueaqIHQaRwXb2kg16uXI4PfkpyX7Y/buW63mWadGz97In0U0PaqvJUL+mKLO8ElAAAAADgJp00qFTtPktN94KIdHOYD16DwNFjLFIkpb8PGczDuVmWMtrSko31nJgP5GOmtve8DrK479eK9g6SuXx+qxVL97KOJ0ykk+iJNR98qD2UpP50hNDOzuODq/K97u21lN9/wetNXNe7CpMvVZfv5CFalatPomNKzIsEAAAAALfrhEEl29Nh9hUZ4qXZwNHdQ6ynzewrstbyWz43tmRnEl1V+/cbDbL47VeL7VsJeh1Fh6ad1rkf38VoDoPhXjMdwAzeyuS63qXTQ+HMxNt9uRu9ZqZ1eRNRNQAAAABAlhMGlcpiOnvU+oknR9l5XA7W0+Yw+9Xzy8S3t57TCRdAP8EsiBTFerCluK53DfRT2uyk3ZuGZ5auefwfAAAAAGCrEwaV/onuQGSGbtl5heJLcT1tzFCl5a/ao1b8fqMTFq+3E8ydhAuge+SEgaJt5e+63tVID+tc0QEn/X9Gzz4AAAAAwG04YVBp83CzYlXl4U79t5r7pej9+k5YHAS1vHt4VB9EJwMFM0/Q00/tcwgouax3TXSvrMV6svm4iXzpqGmpLseYNgwAAAAAcH5OOlH35D14ets4/ci1wjSHY2mX4kOVit2vDVJFG9dmLppNw9/s+rXnDY11tcbntyzVX6/mDF8FNFAoAkrbTTpSqTQ2zhs16ejeePrpg8nAU1OGU54+CAAAAADX7qRBJf1ktoYeJpYxv9F0U8Rlp5r0I9vp3+k5YRKBgIL3O+nYx/iP7XbGdflu6ffsCgmp9ZP7Vcf3qv641g+3dy8flc3bQz7NlzBQF68zZokERVzXuxo64JpMp130MM+1iXQqFenN4nV5sXiUr03D5gAAAAAAV+N/5XL5P/vzxQvmNvq7rd4kAAAAAAAAJ3DankoAAAAAAAC4SASVAAAAAAAA4I2gEgAAAAAAALxd1ZxKAAAAAAAAOA56KgEAAAAAAMAbQSUAAAAAAAB4I6gEAAAAAAAAbwSVAAAAAAAA4M0zqFSV7nQhi8VUulX9sivThXo97arfXKHmcJ3Ws1R0ebhu78bqAQAAAAAASKGnEgAAAAAAALx5BpXm8vOn//+Tn7l++aN+0i9/1G/WmkPdiyW5nHOPn0vlVh7uXLdX9H4BAAAAAMClOWBPpZn0KhWp2KU3K0l7TGAJAAAAAADgGvyvXC7/Z38ujO6p1K/poFJHJvY9M+/OuC0yakljEO3PoufnGUu7ZF/KUq3SkNUq5u/q8t36kPtxX2rqrVmvIu8PUxnrP1qOpNUYRHrI7NiettpmQz6f7HaMxLp6TqX+XcZ75ihW6at29Tb+4umVpgwX6nhnPal0gnfNevVvdbw/8qJ/Z95VIuus2PxaJWMlIz0AAAAAAABHdvQ5lf7MeKmQDryMpf3XW/Voao1E2uOFDJt2Fav+9iy/rZaMliK1/kLG9x9SUSsvS215Wa3rvj0R3XPKbsesq7et3nvbMtl0GFDSQaBYAMmDOt7xoi/Ss724ejOdoPjxRQJw62PTvyCgBAAAAAAAzsORgkpV6b61pbQcyXskElPtPktN9/iJ9NKZD16DwNFjNMpSktLfhwzm4Vw+SxlFN2S5b8+K9RCay+e3WrF0L2X7TowNKC11oCfZq8iT7mm12sTkSx2xyN3DOpRVfaqrFM/kYxU9msvgdaRSXZL7zIMDAAAAAAA4rgMGlWrSX03SrYejLWX0Gh+m9lQvicy+Ej1+bODo7iHWY2j2FVlr+S2fqd46ftvTYttU5oNGdg+kp3VAKT50L4+ZJHZrlIgWAQAAAACAC3K0iborvT8z3Gy6mqm7LPd6wqBaP/KEuGAxUxZt6jG0UdHbC5Wk3Q5mP4oP3Tuc+ee3LKUmz6u8sj29NgSkAAAAAAAAju14cypNOqKnDyrVn2yPoX/yq+cJMvMTRYJPq8V3zqKitxfS8xjpp9eJmcspPTfTAZTvRcfHSu2xDYyNpS0jaeVOAwAAAAAAQLGOPlH32uZhafkUvb24SSecJHwqqw5E21Qf5M7+6Kcq3edwMvBIUCz2hDsAAAAAAIDTOl5QqTk0w9BmH+vgyOQ9eHrbuKDuP0VvL24ug4Z9Qtw4HlgKh6ut5gK3T2/TvY382eBY7VGO0SkKAAAAAAAgjyNN1K0W8xT9yFPPtPlAGpWezDLmQVrPveSh6O2l6MCS2r6eZ2kcGQqn9vs6WprhcWZ/43v5qAQ9m/KYdPQ+Evlnl6MMvwMAAAAAANjhf+Vy+T/7M85CU4aLvtSWI2klhrw1h3rScT3HU0P2fggdAAAAAADAHk44pxIy2bmYlt+fsYCS9s/MRF6S+3yPsQMAAAAAACgMQaVzM/8RPaXS+il5oaa8tEsiy5G88wg4AAAAAABwYgx/O0tV6U7HomNIMfqJcLFJqQAAAAAAAE6DoBIAAAAAAAC8MfwNAAAAAAAA3ggqAQAAAAAAwBtBJQAAAAAAAHgjqAQAAAAAAABvnkEl/VSyhSwWU+nq591XuzJdqNfTbuLx9+egKUN9bJFl2LS/OpQwPxZDtfd9nCqfL6l8fQX1YWoSdkwZ+20O13l8MkWcH+deX665PuNUqt2pqlP7XuNzWH2+2OVo9ZjPo+Kd0efRydza9flC0ru6zpzgGndy53R+FK3o+nea+nyyz9/C3dr1D7fgSnsq6Q+GvtT0I/grldVyHk/jv+YPrSy3lt5L4HJ+UG7AWZkPpGHP1d7Mvrc3Po8A+OI8AgDEeQaV5vLzp///k5+5fvmjftIvf9Rv1ppDHX1NL7l6Cq2+Ndm8pD7Ymo9Sk6WM3o8cRVrd9Hdkvz275XPxPPabUS4H7wmGYhR2fpyqnrpyOL6d1xf7LRJws/g8wiGc++dH0dzSm33/fMTPocLuYwuUpx2AhKLPN5ftBcHHVHnRG0e5tesfbsEBeyrNpGe/VdVLa7SUWj/nhX85klZkW9FFbzep+nCn/rUnKoqnh2+N2yKjVqwsvh5pgF8Czo+ISO+PSqUl5nISu940ZEA+AeeLzyNcnfj9c29Wkvb4xuuzZzsA52MZuzar+yxpy5gv7ICr4x1UmnT0RSH8BmMiHX2RcBhXNh80TJf9UvtFVl8gmm8fggtLME42jGRnX2zW3+DsN542vq/okrXfcNzrlnWS36JkROHX++xLTb0utcfr9dWSDLblzed97d6vyo9nlQL1Af+aaG1POusGuG96U3moluQ3zWabJm8T335kfiWdLLfgOFJcvuH2qqeO+00y8yzp9SN122e/LulwcCn11FWhx1dkedjfZwXZg20nt+l6HXI8vtQ3iFnraLv3a/a147w01+6N305mDaVwSK+Wkc9b199lV7nFJI4xc0XXfE6ul+/81YKyT35G2u3bja7rB59HWel1qQcu9X4tWZ/P4/Po1OfluX9+FC1veifvI1lKSepPkczbqx5krJMss4x64X0eOezX7zyyddask90OOMh5mVpvU/7tLo/gd9uvz5pXOk50vuXb3lwGDf0FXknab8k65nh9MeLrJuuea/5dU3kAp3aCOZXu5CF27utvYBYyvv9QJ5c+wTZdbMITUC09kX7yIrBqlKtttUvqjZpaJ3Iym4tBQAe41lHzcJ/6vvQ10StBXzzG0v5bzz3TGok53th1xGGui/U+e6JXiUfuK9JI3BCfvdK9lO2PWfzSq/L5TeQ18vugZ1vGB0pJf8PRF+nZdXWG1/rx8jAX9LHUv6P7DI4jzmO/LvXUeb8Juu721a2MmeMo/IAJuZwfDulwPD+urp4WrqDymH/Kt7rmlOpPkb/TqvJUV+Wz/JbPVVY7XocMx+PTN8+xObU+5D51zfXY747z8t+vTuz2a8aa4371+RbroRJcx1Xmqbfy9DBzKLcVff6M5f7DrqsOcKnSG7+xdcxnc93oy13kXAv2m1W+xeDzaFt6PerBhX8eXcZ5idBfqnux6/X+FPexjvvVXM4ja2s7IFT0eemaDqfy8OCajos73+byGdwAyTpO6pPPic9flS86wJlaz6NeObna8gCKccSgUlXMqJtYY8nSN92r6Gx4sdlyozP5Uhf+RHBq0rEnsL4Q6TM43n240hhsHKda7b5JW9LfdFa7z+rSpbYTiRzPB6/mAlF7zHtVunRzGXzoj10blMh9dY6aSCdRPvPBh8r5xDdz1kxd0FdFYuqCyF2kMjRf2lLK+OY6zW+/u+qp+34jbEDJ3Jxt+oZi5/nhkI49zg8kFFEe6rfmPIrdVCnVJ9ExpdnH+u+9r0O7jq/6oK6earWvaH1LH7Pvfredl3MzecD6mm2+bQ6vHfZ4wgaT636rT3WVozP5WJ1vKk9fg2/07zd+eGyzx3VINciC4owECZ3yuSrdN3XdUGUWbZDpxpu5X33O2Ri5GXweBfJ9Hl3GeXnr7DVClWXmNIg76sGp7mOL/PzIlNUOiCjqvPTOv533B352peNSz7fg2rM+xkPVF+96tcO1lgdQhKMFlUzgJtFYCsVvuvWFRH8bkuyxoZhvFtRNz0J/q5vsVZST2uabOrD0cdkeA7OvxHHYydXuHm73Zt8EKGz0vda3vV2yvk09hJkkqotRWl2tm/JY07HLz1Q929f2eppjv0/rgNK2ngHO5weOorDyMDck8QZjeEOy3oX/dWjn8dkJIbf3hPHd747z8t+vuqkKBeeKulNUP4WW8vtP/38p1910elO9Plzy2QYRl0HiYyZf6nY1GXREGp9HRq7Po6s7L69FtCfxWN07L2X0mr531rbXg1OVW8GfH1FO7YCizkv//Cv2fs0jXy5UEJA5VH0pOv+uvzyAfRwwqBT9UFzIuP1nekZEgtD+9E36Mpisr5ju+etvidPHVZZ7dY1b36SuFz1SSV1Fcn/zcB3mMmjYXi6tIAqvu6mmx9S7CcY1R/N509j2Yp1qv6oCSbsd7Cndpd3f6dKBLG7lMZEgbhD2bsm6sTrEdWgiHdsI1wGPYHvJRnjB+zUBFvtNnX764Gyk9l8T8wVk+V79Jpw43n2/889vdd2pyfPqwO31fMONn4tizyOXfA4UcQ24bXwe5XIh5+XtmcV7Evf+ctbnU93HHnC/hbcDtjlV/rm79PMt+Ow7/3x2xfUPt+yAQaXEh2LuSH1Uunv4PoLeU/Hulmv/RH/xbLqyxtJRZHquhBmLHzSe0nPE7KZvpPU8P7pb6Tp/s8a2F+tU+w3o8dXB3AX7zp1y2nQgyac8zASsYW8U02tF1YvYGIdDXYcijXBzbEEjfF0Pi95vsD39raR++uDy99MMC9Dd2s3TCJe/ao31ek77NY1edc1ZTRY7NsOYWznz5DDn0a58DmR1xw+e0ghvfB55OP/zEsqkEzzoxrs+F30dd3XI/RbbDtjuVPnn4ULPt+DzLewJeQH57IrrH27YCSbq3oOZbLigbu3hsLfephP9UN2Dg4vn7XSX3JVe2ztj03wB3rL3F4zXjjrVfuMmnbAnQ956XXQ6QrdWT4viWR5mwu5gCJwZ+paac+7QwxQ03aMmaLyugxtF7zfYXun+SeWPyLdKpPlGT23f1LC/H9tIcN1vNXjqV/ImNHdjY9/zyP59qvt+VEY+hxO2Z5xnZf3VbdYchHnY+XHS+DyKO9Xnwqn2e+7nJfZT9HU8tOs8OtR+lULaAX7nx0HSEbXx+rzLpZ5vTXlR7S+Zfdjhi0fKZ1c3Vx5AMS4rqGTmTihi9nzbHVGd+NuG4wW9CNoy3qcbSYq9eNaeiwmOHV1ThpEn6YXCObPSY9R3pdf+Pjp3iBkzn7fbv50YMbI/8w1w/U9m6u21U+03Sfdk0IEl3YMhz41S0ekIXXo9PRXf8gjqTan+Ii+qUZk1x0Ph1yF1U55+/K6+mV6aRmWo6P2aOYdqbWmLDZToYQxq+3194Yhw229YP6Pzv+xjv/MouP4lepk55bM6//VE07X4k+P0taNf2zyPyjZh9/vV3KY6HWPd/T7LpZ/nfB5lc/88Ou/zEoa6luhhQFlzku5yqvvYw+xXKaQd4H5+FJ0Ov+vzLpd4vumnvOnrWnyUyMHqyw6UB1Ccywgq6QuN6UaYXnR3cV/hDWfW+N1YI8B0o+/JbMd6+sMofD8Y/7s+3mSjQgt6pwTDILK2d94m0nkVebPHHS7BEzSzx7jvSm/q9+O6fLeCHjx56IkRe7P19szjXRvv8mt/HzrVftN0YEn3YAj+1vczteh0hC67np6Ob3mYm5pSTWql6BNDIhyvQ87UTfmrvMW2E5y/iRv1ovcbWvV+COaU0mITVTvud9LR50x87r5wyXNf6lpu4U1obM7A+re0kg0d13zWjaSeOvtX3eX1enoOwvh6zp8zKv9e1UGv5nEa38tHOJF1hss+z/k82sT78+hMz8vblMg/8xTznHOSOpZb4fexRX9+FNwOcD4/ik6H5/V5l0s436KfbXqeuDvzuP3EKJGi89nVDZYHcCj/K5fL/9mfAQC4APbbzuVIWomu5fqx6KaXTzJ4A+DAOC+B4+F8Oy+UB27bZQ1/AwDAznmQNVzQDOcR+0QrAMfDeQkcD+fbeaE8cOMIKgEALot5FLq6RUs9DclOAFrYhMcAnHFeAsfD+XZeKA/cOIa/AQAuUFW603EwP16UfvJKrslHAOyP8xI4Hs6380J54HYRVAIAAAAAAIA3hr8BAAAAAADAG0ElAAAAAAAAeCOoBAAAAAAAAG8ElQAAAAAAAODNM6ikZ7VfyGIxla5+XmK1K9OFej3tqt/kUfT2ikZ6j3N87Jf9HsKt7RcAAAAAjoueSgAAAAAAAPDmGVSay8+f/v9Pfub65Y/6Sb/8Ub/Jo+jtFc3l+Joy1L0Q1DJs2resaneq3h+qNULXkN5DYL/s9xBubb8AAAAAcFz0VCrKcil3zwxvAQAAAAAAt+F/5XL5P/tzwXQPnr7U7CuRpYxaDRlc3Vf1Np2zkYzu6iKv6zTqnkrj9p/0Kh2ZBG9dPj0/zLgu360PuR8H5TvrVeT9Qae1pIp5JK3GQOau65mNnjHSS3qvKb0AAAAAUKAD9VQKAy09qVQqdlGNsbdr7snzI4OPP2m/JMbAXan627P8tloyWorU+gsZ339IpTWSZakt0SxwXe/ckV7Sq11LegEAAACgCIcJKlUf5E79N/uK9s+ZSOfav8mffMms9hw88emqlaT09yGDeTh3zFJG71l9sVzXO3ekl/Rq15JeAAAAACjGYYJKdmJa/U1+cvLq6zaR95FI/en6Z1aKBQyX3/K5IVrout65I7325wTSa38GAAAAgBt0oOFvE+lU1kNE9JPRFovpDfTgEZl/fou0XyJPfAMAAAAAALg+B3z621wGjXA+pZ7MpCTt8Q30XJoP5GNWk+dbiKABAAAAAICbdcCgUpTuuaQDSyJ3D9cfbJkEY+CkbF8DAAAAAABcm8MElZpDmSZ66lS7z1KTpXzfwiQk80/5lro83tvXAAAAAAAAV+YwQaVJR17lzc6lFCzjtsio1ZDBTUxsO5fBx5/UaiX7GgAAAAAA4Lr8r1wu/2d/BgAAAAAAAJwcaU4lAAAAAAAAXBOCSgAAAAAAAPBGUAkAAAAAAADeCCoBAAAAAADAG0ElAAAAAAAAeCOoBAAAAAAAAG8ElQAAAAAAAOCNoBIAAAAAAAC8EVQCAAAAAACAN4JKAAAAAAAA8Pa/crn8n/3ZUVOGi77U7CuRpYxaDRnM7Utf1a5Mx20p2ZciM+lVOjKxr9bc9lvtTmXcXm9NliNpNQYSW605lEV/vSXDdT0j4xhd05FaT++6JY1EQnanI5kfCVnpcVJg+TrlX550JP8mkdeu5eZUDzyPz7k+K5F1Z72KdDJX0nak10uB5as4nW8rjulwyhfHdPiUh7Hebuq8dL1uaF77PcfyTW4nwfu8zLM9bf13+a6TEc7nm7Z9v+n0JPM5b3p32bVfTy711Odz0Of4XMojdXwZ5XGA63ju+wjjHM7fkMP2XK9rPul1KTdj1/F5lJt3eSS3HV3PY78AAMC3p5L9oJ31pFKpmKU1EmmPFzJs2lV86JsAdePxp24ow+31ZjXpL4ZqT1Fu+zU3gvVvadl1KpWezEptGU+7UrXrGJPOajvB0pKRZKxn6Juc6Lp6SdyguKYjY71KkBCZdtd7dkvHRDqr30cXta767fL7M8cNT8Hla+zKP7906LxZqGO8Uzeo63Wzbhgdys2pHngcn3N9rkp3upDFm8jHaGnfy+aeXhfFlq/z+aa4pcM1XxzT4Vwea82h2q79OcX1uuGx3/Mt36LPy3zXq23l4V7/3M+30NZ64JTPF3B99jo/HK6nzsfnWB6On5dFX8d9rmtu+eKq4PJ13d4R7ocyy83p+HzPI7fyONT1CgCAW+UVVDI32vobmshXivPBq+j7wtpz1g3INuqGQn+rpG4oot9QTjr6Q7smz5GbD9f9zgcNqcS+PZrIu16pVJenrQc3l8GHulXYuV4Wj3Q8qvVUOt4j68n8U77NIT4VkA59s/Ss9rqU70//W55iy3c/memoduWtXTLfaqe/8SyCez1IH59PfR5L/VvdzKoy/mffy1RweosuX+d66pgO13xxS4d7eayo43w2fxI0HHbLqi8e+z3z8s1S9Hm59Xq1ozxc61/T9XwL7djvPvl8PtfnHOfHDq7H51oerp+Xaftcx/Ux5//83UfR52/+7e1zP+Rebqc6j/T5fZDrFQAAN8wjqNQUc6+Q/Iam+SLq81ndLdxLOXjHTfVB7tR/y9/kbeU/+Y3dfBSx35Lc71ip+qCP5k9+fO8VnNOh3jFvJI+3LPc6HX8/8fRl2pWOprzoTJl95OguX3D57iU7HdWnupSSN6sFc6sHGcfnUQ8mHbeb2WLTe8zyjddT13S45YtjOjzKI1CV7ltbSolG9i6p+uKx38sr36LPy23Xq3zlEYjXP9fzLbBrv/vk8xldn73Pj13cj8+1PPb5vMx9Hd9q931EfkWfv/ttL/f9kOJWbqc6j1TaDnK9AgDgtrkHlexN6F/kLsN0Ie6L9Hr6+9w7efC5C53/qFuWLHP5if5iz/2WzZ3MUlL3zlH2m6vl6F3S9xkl0x17sQiXxNAA13Qo88GH+Ra4v5hK8EVwM+j+rd7t7Wg5uaQj/BZtlKeVWnT5ruzIvwzZ6ajKU13lgbopLQ+j21skutSH/Pe7vR6sZR6fRz1w45veHQ5WvnHpenqidHiWR7X7phozu8/DmKz64rzfyyvfYs7LtW3Xq1zloThd77fYud898vmsrs/e16sd19MD1L/cn5f7XMc32FyvcnzOZCk6//bZ3j73Q4pTuR3sPNp1fIe5XgEAcOtyP/2tqT6Qg3kHwnHovt/iTeRL3TuU2m/2xiOgbyx0r/xNvPbbHAbbyvpmSd04TcMbinHbfHP1mlwpa66BZfRmSfNJRzBOP5w3QI/pD+YTSI/5j9mWjpViv0Xbv3wVp/xL2pGOWl8evyLbzJqrwWe/LvUgZtPx5avPO7mkN4dCyjdpWz09ejp8yiMo012NUGNnffGsBxdTvgWclzHbtudRHlFO18lt/Pfrns878s/T/uXrUU9zXMeLqX8en5eFXcczbKpXuT7f3BR9/u7cXmH3Q5r/fU4h55FPeRR6vQIAADmCSvpbp4U8/wZzIqw/X/2/Hdbd4Huz+DdLb/Kq3rMrxHjuV90IBk8C2fCt5nwgjcgNSOu7LmO1/e0TYs5l0NBzTqhjflmv6J6OIA3j9p/0zH7VttTNjV5/4353pcMq7lu04so3LTv/ojanw3afTw5LUeVopn9ov6gj32TLfj3rwbZ89qvPu+yT3m0OVL4b6+np0uFaHuHcHtsboZZDfXHb72WVb9Hn5bbzyKs8Qo7XyW389uuXz+d4fc5/vdp2HS+y/gXbcvq8dDgvo5zLw6te7f58263o89dxe575F9iUXo9y80yv33mUdXzFX68AAIBPUMl2l6/1df/k+JwI+4y/1ze24Y2MXtR9hejNrcba59mv/tYtvBHc8u1Y1GqCyMetd1Eb7UyH6CfeqEZL7Jj0N3r62zSdvoxu887pKOBbtAOVr59t6Qjm+shi5nAoyPZ6sDufd9cDVwWn95Dlu7WenjYdO8tDNRr7NdVYeI02aNxtqi+768EFlW/h5+WW7eUpjxzX+xTX/ebK5/O9Phd2vSr8+HJ8Xkbsex03iqhXrorOvz23l/9+yLHcTnUeFX29AgAAhkdPpaC7vCyTExzaMeqzr/RNl74pW+hvQLffAMaYiRqjT9fw3K/ep+6+7X0jGHyDlZ64NMHOBbBzvVQ67Ddky191WxO1YQ4Lj3QU8y3akcp3S/5tT4fNp9pjal9mvotUvia4ltuWepArn1P1wNWe6U05UPnurKdnkI6oRHmYJxXpb7IjvTXMcA39bntsXm8fiuZ43UjVgwspX6Xo83Lb9rzLw+M6uY37fv3z+aKuz67Xq9T1dM/zMsXz8zJlz+t43nrl/DmTVHT57lsejte1VHpdy+1I51Hq+Iq9XgEAgIDX8LfJ+0iWpbaMI32Yg4lNsz9wzVM2zE81cfnCS8/noLuaz3qN2DdCzvvdo4Fhhj6ov/vY9lVUuH11I7RtiER2OuxNlEpHrKe42qZ+fHXsJsorHcV9i3bo8t2ef7vTYY5P7Sv2uGvTw0D/2ZYeBo7lpm2uB/75vKk+u8qd3g0KL1/HenrqdISyyiPZUyNY9JAJ3d5pmdfRb9GTXK4bW69r51y+RtHn5fbteZWH13VyO5/9+uXz5Vyfna9XG66nvse3ncfnZYa9ruN569WGfHFVdPnuUx7574fcy+3g59GG8jD7Leh6BQAAAv8rl8v/2Z/drG64QltuvFbrZq+jb2LH+gM7NOtJZdO8BQ771ZM96huDTOrGotUIbhhS+9Uy9p213qxXiY/FV3zSkbVN3WiJNlxd06GF28s6rlwOWb7KpuN0Tkfq+NQNaCveCHLdb9Z6m8rO5fhS29tUD9QNrG68ZUqUr0t6vRRYvj711Ckde+VL+hidyyNFz/PRl7vEeelaX7z2e8blq7nUe8MxHc7bi8kuD+f651OvYrL3azjmc770blFg+brW09R6ysb0uByfR3lk7Tv5eZm1zq60bCuPfe4j9i7nAsvXcNiea/75pDdr3WS5GY7pdSk3r/JI7bfI6xUAALfHP6gEAAAAAACAm5fj6W8AAAAAAAC4dQSVAAAAAAAA4I2gEgAAAAAAALwRVAIAAAAAAIA3gkoAAAAAAADwRlAJAAAAAAAA3ggqAQAAAAAAwBtBJQAAAAAAAHgjqAQAAAAAAABvBJUAAAAAAADg7X/lcvk/+7OjpgwXfanZVyJLGbUaMpjbl7mtt7sctaSxcYO71vM5vuS6M+lVOjKxr7Rqdyrjdsm+UpYjaTUGkt6cw36bQ1n012uspfcbKPL4XPnkn4NqV6bjtqyPcENaU+vppGSUr8v2PPLZOf92Hl8y3xIS23Xab1Y6rrl8PdK7O/9cy8Ov3IxIWma9inRSiVVc0qu55p+zoso3R76k/iaRFtfz0qveu6bXYT3X/bqmQ3OtB86KKl+ryPPSJ19W1unJdz11XS+iyPO3cCco35Xkvl3qs1vZBqLr5ii3Xce313m5LR0AAGAXz55K9kN91pNKpWKW1kikPV7IsGlXyak53HKDEbF9Pffj043ShVr3Tt1ghetWEjcVpuFa/5bW6vc9mZXaMp52pWrXCfjki75JDLcXLumbmWKPz1XB5atv8tSN25+6cQ+315vVpL8Yqj1FZKxXCXYs024kJa7bM3bns3P+OR3fRDqr7UQXtU312+X35+oG2Xm/k05kO3ppyUiuuHwd0+uWf67l4V5uas/SnS5k8SbyMVra9zIcpD67KLJ8ffIlKJNd16uAw/XPud67ptdxPa/zzSEdrvXA2eHP333Oy4Db51to8+f5BZy/hTtR+SpO56/H9Wr39k54ffFIBwAAcOMVVDI3gPobpMhXe/PBq+j7s9pz1g2mo2pXntWd5awX3FBstGM95+NT23lrl8y3lNu+eZwPGlKJfVs2kXe9sVJdniKJLTxfCj4+V8WmQ90g628N1Q1y9JvgSUeXXU2eIze1zUe1ntrve2Q9mX/Kt0nKk92v+/ZcOZev0/Flq3af1dEt5ftzvZf85TaXwYeq+VdZvlmy07tPvc8qjyxZ6zWHY6l/q0aN2vc/+16WU9Xng12fIzLzz/F6lV92PXBNb/582fN82+O6kaXo8i36vPTm+rkfcT7nb/FOVr5O56/H9WqP68Hhry/FX3cBAIBXUKkp5h4l8Q2SNF9Efd6ru5R7KQfveKpK960tpcSHfNqu9dyPr/pUl1LyZstLSe5XiS0+X4o9PlcFp6P6IHfqv+Vv8vb9n/wmbmr/mTeS2y/Lvd7v309wPB7b2188/5yOL1NTXnTmzT4chy/sLrfqg86FP/lx2l7UmZfvBn7p3ZV/ruWRvd6k49aoOU19PtT1OSo7X/a/Xu2Wrgeu6d0vX/Kfb/vV+7Tiy/d452UW18/9qDM6fwt3uvJ1On89rlf5rwdHuL4c9T4CAIDb4R5Ush/Gf5G7SNMluS/S6+nvGe/kIcencbX7pm6aZtLbcWe5cz3n46vKU13duKibqvJwIYvFenHp2l42d2RLWd2TeOdLyXRnX+832eW64ONzVXT5zn9UkyPLXH4Sv5gPPsy3hP3FVIIkNoNhAOrdVXl7bC+wK5+zZeWf0/FlCL91HTncDTuVm/3Gdjl6l91bTDj38s3ikV6X/HMtD59yy3KY+rzDga7PUdn54nu9ynFeZtUD1/Tuky9b69/udOSu91kOUL6HOS/dytf1cz/qrM7fop2sfB3PX+frVf77l6NcX4q+7gIAACP309+a6gM+mNckHK+er3eM/mZqd6PRdb21ncdX68vjV2TcvcucCc2h6J7T274p3brfrLkpltGbvogDHZ+r/ct3Il/qXrjUfoulTd8om2OMCeZXCOeP0HMnBPNKROdC8NieTz5Hbcw/l+NLcv1WXdlWbqoBNw1vkMdt843t676Fq5xf+Vp50utU713Lw6PcNiq4PudQzPU5ake+uFyvfM5Lz3rgmt6d67ns1zkdea4bboop34LPS+d88f8831n/Vo51/h7W0ct35/nreb3yvn851vXlsNddAABuVY6gkv62ayHPv8HcBOvPf//eMeEcArsaja7rBXYdn+3+rW6uYl86zgdipolov6gtZFAN1+DJIpu+rcyTL3MZNPRY/pK0X8K9Hur4XBVXvnq4QW8W/+bwTV7Ve3aFlWCf4/af9MzNoMoTdROp149OUOq+vaSsfE7Ymn9uxxfl/G35rnJT5d6I3Ci3vusy3rLf3c63fA3f9DrW+2P1cggcuj5vU1z5Rm3Ol5zXK2PLeelcD1zT67hervNtUzo86r2zIsvX4/gKzBe/z/PAOZ6/h3Hs8nU/f92uV/muB8e8vhzmugsAwG1zDyrZbsO1vu6PHZ+bINf8Cqox2K+pm4jX6I1TBtf1nI8vGDufxcxBkEV/Sxs2XJPf8hWdL0Ufn6vC0xHQN3C6ERIu6j5Z9ObWc0foJ/KoRkbs2PU3rPpbRn088e7ru7eXw9b88zu+gOO35TnKbTVx6+PmW+lMF1K+SVvT65x/x+zlcKL6fKDyDWzLlxzXqxxS9cA1vXvmS+7zbc96n1J4+R7wvNzG9fM85nzP38KcrHz9zt/d16s814PjX18Och8BAMAN8+ipFHQblmVywkQ75n32ZW9cInSjz3wTlL4RM08m0d8gRb4tMt2z9bvtsXmtuza7rud+fHbsfO0xdUxmXpblr7qNidBp0N39YzdnUTnyJcrOpbCeOLLo43NVbPluZCYejT7dxX4TmUxXmA+7pLa3QSqfrZ355398Tt+W5y634HjSE43ucqHluym9Hvl33F4OR6rPKYcr3+354nm9Stp0XqYk64Freve8Prueb6l07Fvvk4ou332PL1++uH+er13U+Zvbqcp3z/M3db3y395ZXF9yX3cBAIDmNfxt8j6SZakt40gf8GDCzewbAvPUDvNTTZJfaCa/KQoW3VVZ3QCMWua1/rbOdT2zTcfjM+upY4o9PtZ8g6ru3T4i36A6Nlx982Ul3L66kYwOBSj6+FwVWb5Z9LwFeqjSrNeIfCNpb6bVfmMjR1Ta9OOmtzX6sreXYUM+r97fmn++x+fwbfke5WaGjqi/+9ia4GyXVr5aZnq98u+YvRy0I9TnDQ5Tvrvzxfl6lRSWY/K8zJBVD1zT65svUU7nW2Y69qv3WYot3wOcl0kZ+eLzeR64nPN3X6cq37zn76brld/2Tn992fe6CwAARP5XLpf/sz+7CT+o7Uv1sb65Ybda17XxrOcA6MudurmM31gmbVnP9fhS66kbt1b8pkJPlqlvXDKpG5VWIyvAE0rvV9+8jPUNVMSsV4nPFRAq+vhcueaftlo3e51Uemc9qWQmNjtvdCMjWr6u23PNZ5/8czk+LVxvY7kqrvvN2ue2PHRySeWrZWwzT7ltKw/NaT3VkNGNj0w56ktqnX3LViuwfDXX/EvvN329ysqTrO1mrbcxb1zT67Ce635d06FlrZt13XB2oPKNynte+uRL3ObP83Cbu7bjtF7B5+9BnKB8jdR+Hc7fbdcrh+1pruWb6/iUrO16pQMAADjxDyoBAAAAAADg5uV4+hsAAAAAAABuHUElAAAAAAAAeCOoBAAAAAAAAG8ElQAAAAAAAOCNoBIAAAAAAAC8EVQCAAAAAACAN4JKAAAAAAAA8EZQCQAAAAAAAN4IKgEAAAAAAMAbQSUAAAAAAAB4yxFUaspwsZDFaplKt2p/5as5jGwnugzVXiKy1pt2Zftu18c5TR6g635D1a5M7TrDzBUsl/Ui64RL6vhWknldRL7sUmD5hrbmS3J/iWVjejzLN2s7RdcDn/JwrQep9TYcm7OCy9fr+HbU55gt5Wv4pmPX9jSX43PYr0e9qnan8XXO7fx1Ll/H/brWey2y7tbrruFSvprDeoXvN5k32+r9Lo757MMlvc71QHNJr2s6PNK7Kx1O1+fk/hJL5vnpkl5XHundyjUdRa8XcLquFf35q+2spx7p8D0+AABumGdQSX8g96U260mlUjFLayTSHrvcfG+ylFEr2NZ66cjE/taYdBK/b8lI2jLOulGxmkN1nPbnbA77VVvvTtVNxJvIx2hp38viuJ6+SRm35a8X2WeQgakGSXBT1pe7UWvz8eXIl+2KLl+XfJlIJ5aGcOnJTP12+f0p82DFmK3l65UvBdYD1/261oOM9XqzmvRz39QWXL4ex+dUnyO2n7/+6dh1PXA7Pp/97q5Xep/j+re0Vr9Xdb50Ruevc/k67tf5+ud63V3bfb0PbF+v+P361vvtCi5f1/QWfp67psN1vSKvz36fR+dbvq7pKHq9IE/cr2sFfv461VPf+w2X4wMAAF5BJXMDvRxJq7P+SJ0PXkV/ztee8zaE8pjL4EPdApTq8pS102pXntWd/qwX3Cjk1RyOpf6tbhYbA/ln38vivN6jOiiVf+/RO5L5p3yr/CvVn9b5p47/rV1Sx1+RxiB+i7PdjnzZoejydc2XLNXus2qsLeX7MyP93uW7b77kTUf2ft3qgWpg9E0iJVIcql2k01yT5xxfXxdbvh7H51ufd5Svdzp21RfH4yv6/JgPGqZOrfc4kXe9sbM4f93L13W/rtc/7/PN9Xqws14VvF/HeuWq6Prnlt7iz3Pn+uK8XrHX5yyZn0dnXr5Ztn6uRuyzXvHXtYLraQbX9AIAgGweQaWmmDZB8puc5ouo+yp1w3Av5eCdo6g+3Kl//+QndQ9Qle5bW0qJm4s8Jh23m0XX9f796hurZD6V5V7n39/PKl+rT3UpJRtfjjbnyy7Fl69rvqQ15UXvdPYh6T/PV77582WfdGTv16keVB9E/+XyN3kb/U/Mn0eDkE4KLl+P4/Orz7vK1zcdu+uL2/Ed8/pXknvvjZ2qfN3363r98zvfXK8Hu9crer/7XMfTiq9/Tukt/Dx3TYd7eou+Pqdlfx6de/mmbftcjSp6vVCe61rx9TTNNx0AACDJPahkP7T/Indfput3X6TX09/T3smDXyvXKpnu3V7j1e03hMvRe6obcrX7pm7CZtLb3sJQcux3T/PBh/nWrL+aJ6EZdHdX766PtypPdXWDoxpZ5WH0+HbNFaJsyZedDla+/sJvDUcZd+vu5RuxNV8OWA827NepHsx/VFMny1x+sn+xXdHl63x8fvV5Z/l6pmN3fXE8Pu/8y1evyibCspRU22iXU5Wvx37drn9+XK8Hua4bWxRWr1wVXb6uij7PXdNxjPQ6fl5mfx5dXvlu+1yNKno9bfN1raDP3z0+L7en4/j3iQAAXKIcE3UHmupGKhg3H44vz/EtVNYcB8tooyNC3QCuJmAct803hK+pr5WCb5x2BlV89luoYDx/OE+CnoshmD8hY4x+rS+PX5FjDP4ofcPqlC/+CinfXLZ9a+hYvppLvhyiHjiVh0s9mMiXakuU2m+xY9ENDd3Lf1/7l6/n8TnVZ4/ytbanw2N7ruebtXW/eetVcxjkXQHfmB+9fK3t+/W4/jlxLV//erXd4eqVq/3L19UhzvM113QUll7vz8ugrDeekxdTvjvSsVL0esqm61qhn795Py+3pONk94kAAFyeHEEl/e3yQp5/gzHu68/hHN+up8xl0NBj4EvSfkl8HzQfSCPyAd/6rstYHUd0AstwTgL/oMqW/RYqyLtx+096Jh1qn+qmVN/grtNhh4Mkh1Wo9JvpH9ovaisRDvni55Dlu9u2bw29yjdXvhRQD5z261IP9D2tnmg0/k3pm7yq9+wKuRRXvm7H516f/c7f3elw257n+ZYr/xzqlZ5kNmh57dmb5tjlG3LZb7DOrnrvyrW+5P9cyHaYeuWquPJ1VfR5HnBNR8Hpdbo+r23+PLqs8i2695Hren7Xtf0+f/N8XjqnwzjWfSIAAJfHPahkuxfX+ro/dnyM+z7z1eS1msDy0X64m2/D1M3Ba/RG7JxUpTtVjRF9c7X69lF/c6+//dL5GnarDuYAyGLmJNkhlS+uzqJ8t3xruGf55s6XPaX361oPAvpGuRJpBKl2hujiSM29scuBynf38TnWZ9fydU2Hc31xPL5Dnh+690TY8FrVCU+nKl/n/frV+51cy7foz4Wi65WrQ9Y/B4Wd567pOFJ6t38ubOuNc0nlW3TvI8f1iriuefL7vHRNLwAA2MWjp1LQvViWyYkp7dwCs6/0TcOqq7lHg8HOLZCecDEp+KYwXM88WUh/gxT5lsoMr9Dvtsfm9dYu6c77zct+s7n8VbejUckx//Z17TGVZ2ZegtTfJ8Xzxd2RyneLbd8a7l2+rvlSeD1I7te1HmxgJm7N85SaI5Vv6vjc6rN7+bqlw317rudbjvyL2lSvdB7rYTh7N7xOVb6u+92z3ie4lu/+14244uuVqyOVr6uc57l7OvY835xt/lzY3ovlcsq36N5HTuvlva4V/fm75fPSNb0xB79PBADgMnkNf5u8j2RZass40lc8mLA0+4PZPB3F/FQTpw4i4Y2IurFyGtKgblg+7HrJb6iCRXdV1vdpLfM6+u1fjMd+87M3jSr/Yj2n1b71Y6mjN40mn1XqYo/BNd+Qq9U+tn9DnswXHwcv3622f2u4V/kqTvlygHqQ3q97PUjS80PooQSzXiPXN6uHLt9Nx+dSn33K1yUd3tvbcXyab/6tbKpX4fvqqIr4Jv+k5btzv/nrfRbX8t33upF0iHrl6tDl62qf81xzTYdvevPY/LmwuxfLZZRvwb2PXNbLe13bdJ3MafvnpWt6Iwo+PgAArsn/yuXyf/ZnN6sbhtCWG4cdNxf6Q3+sP9gjZr1KfI4CJWs9taJUdo7R1/MT9OVO3exHGw6u+9U3iPqmJJO6sWg17I2j63pK1r51YyTVsEnls7qxbMVvjvLnyxYFlm+efMksh43cyzcrX4quBz7lkbVush6k1tm3bLVDnr/bjs+hPqdll6/hk44Vn+1tOD6H/brWKz0Z76ZqlTw/nPnky2rdQ5Sv4zaV1PXP47oRt6V8Yzasd4j9utYrVwWWb+7rWhHnuWs6XNY74PV55+eRa3pdueaLtlp38zqu6ShyPdfrWlZ5ZG73APXUJR3OxwcAAHIElQAAAAAAAHDzcjz9DQAAAAAAALeOoBIAAAAAAAC8EVQCAAAAAACAN4JKAAAAAAAA8EZQCQAAAAAAAN4IKgEAAAAAAMAbQSUAAAAAAAB4I6gEAAAAAAAAbwSVAAAAAAAA4I2gEgAAAAAAALzlCCo1ZbhYyGK1TKVbtb/KZdf2kr9PLNOuBKu7rqc0h9nrLIZqK1mS2960nrZed5qRMdXuNLIdtUSPK5R1fFnrKU7b87KrPPLani8qITKN7TdjPY98MSLbHG4uMKf1nPM5lY4tdWXXfr3rqYuiy9d3e1vqgU/55q0vZsl5/h7ivPSpL06KLd9Cr1de5eGQDp/tudQXzXU973zeUq+8FFu+xq7r0Epy3+l89vo8ct2v8/FpO/I5Vb4ZdcXjPF+71PJN7i+xJNOdyr89zw+X8ojZlM/7pmPXfgEAwDaeQSX9wd2X2qwnlUrFLK2RSHvscrOXxWV7E+nY38WXnszUb5ffnzL3Wi+0lFEruW5HbSUuuEnuy92otXW9UHOo0mN/TtLbGte/pbXajjq2UlvGyRueSSeyL720ZCTp9Zy356zo8l3bli/mJn7clr9emA61BDuO3zg65ovKGelO1Y3im8jHaGnfy+K2nnM+Z6SjN6tJP3XD6np8mls9dXOK8zduaz1wLV/X+mL45V8Rx1d8fXFVbPkWfb0KuJSHTzoctudaX5zrVcH13lnR56/7dUjXhV2fg+6fR8Ven6N8P2cyzzev+hy43PL1uG8q+vzIcf3bnM/7pWO/6y4AAPAKKpkP9OVIWp31reR88Cr6fqX2vPmGa5N9tlftPqubi6V8f8ZDRUmu62WqduWtXZKZuvloDBz+Xq3/rO54Zr3gRiZpPmhIpTGIBLcm8q4TW6rL09bMm8vgQ20xsV7+7WUrunxXduRL81H9Uu33PdpCmX/Kt0nK05b9ZudLcziW+rdq/Ki8+Wffy+K6nls+qxvpvkmkRLJPtU90mmvyHLnpdt1v0U5+/u6oB2kbyjd3fdmhoOMrur64Krp8i75euSq8njrWF+f1Dl7vsxV//jpeh9Txu3wOutYX1/06H19oaz7vc77tqM+XXr4Zsu6bij0/cpRHjnxOp6P46y4AAPAKKjXF3FMke/w0X0Tdb6q7inspB+842md7TXnRK80+ZHusx3W9bNWnupSSN1EbVaX71pZS4mbFTUnud2Re9eFO/fsnP07p2L29tKLLN7Q7X/796rvS5PbLcq/3+/cTP56ErHyZdNyCgK7rbRbJ5+qD6CNZ/iZv3/+JSV7kpnv//eZx6vM33/mRVb771JfNiju+zfLVFzeHOn+zFH29iio+Ha71xW2949T7tOLzxfU65Pc5mCVeXw5zfd6Rz3ueb5vr8+WXb1r2fVOh54d3eeTJ54x0FH7dBQAAmntQyX4Y/0XuqkyX+L5Ir6e/N7qTB59P4z22F377NNpxl7t9vZLpjr15TH1VnurqhkTdLJWH0fWy5xCodt/UTdNMep53lmVzR7aU1D1OlP2meDl6l11bd9pelqLL13LJl/ngw3xL2F/Nu9AMus+rd7fmp0e+FC2Vz/Mf1eTIMpef7F842lVPHZ34/M11fmwoX7/64pZ/RR5floPXlwOdv0n7X692lId3OnaXr2t9cVrvGPU+y5HKN83vczAp9+eRp535vM/5tqU+X375pm26byr0/PAsjzz5nJmOg31OAwBw23JM1B1oqhvMYP6EcF6FPL1j1ty3V0Avpaw5E5bRm6WIWl8evyLrbphDQO/LO7jRHIruiZ15jOpGdjWR5Lhtvil+3Z7g7dvzVEz5uuZLMB9COO+CnrsjmI8hMTeKlidfipaZzxP5UvfMpfZbrA7pG2qzbh4+9dTTcc9fj/PDqXwd64tz/hV9fAnHqi8RRZevse/1Kkd93poO5+25Xl88rkNWYfXe00HKdxunz8GEAj+PtnPJZ8/zzek8v6LyXQnSlF1mRZ4fPuWRJ583peOw110AAG5VjqCS/nZqIc+/wVj99ed13m8j/bZXTC+lpLkMGnpMfUnaL+H33LZbt7ppin05Nh+ImV6h/aKOPBDOIeAV3FA33Ivgjjv72ze1n0Z4A69v5L7rMlb5tHHCzl3bc1Zc+brnS7DPcftPeia9qixUI0bf0KfS65svRduSz3q4QW8W7znxJq/qPbvC3rLqqa/jn79e54dT+XrUl5js/Cv++CKOXl+KLl+r6OuVsa0+50nHpu251heferX7+HJ9Lux0oPLdyP1zMKawz6PdXPPZ63xzqM/XUb5x2++bij0/XMsjTz5vS8fhP6cBALg97kEl22241tf9mONj9XPNn5Fre9u+RYtyXW+bYIx9FjO3QEjdPPdr6ublNXrjtIP+FjS84d7yLV/UaqLLx4xb+BzbSym6fJ3zpSrdqbppjB27/kZU9zrQx7N9uNfWfCmaQz7rG9ZKpDGi7qdFZ19qjoljO9X5m+f8iEiX7371JaXw44s4Zn0punyjir5ebVN4Olzri+N6R6r3KYcs360cPwejivg8cuWZz3nPt1R9vpryjdp231Tw+WHtLI9c+bz7/u9sP6cBALhQHj2Vgm7DskxO2GnnXJh9pW8e9c2l+SYoq6Hnv73D9FKy7FwA6wkc7Rj72mPq2M08Ectfdbutbl/0rJT6m/HIt16mW7h+tz02r2NDBHSe6O703jfcwTfGqQkmc28vqdjydc8X+024zc811zkONuRL0fLms5mgNOfTB7Ok6qmr05y/3udHSrJ896wvifwr/viso9eXosvXypsO1/MyVZ9zpCMqtT3X+uK63rHqfdKByncnt8/Bldz1JZ+989n5fIvX5+sp37Xt903Fnh8bJcojTz7nuv8r+nMaAIAb4zX8bfI+kmWpLeNIX+dgAsXsD3Dz1BjzU02yvrD2294BeymFN8LqRijaxdocnzr22GNmzTdnevPBN2fJb7yCRQ/B0PdVLfN69W3dHjfcpgu4+ruPaKIKvoEvsnzd88XehKr9xkasqLTpxwfvugnNzJei5cxnPU+DHgIy6zX26DEXsaGeujrF+et1fmRIl+8e9SUj/4o/PuVE9aXo8s2bDs3pvNxQn33TsZK5Pdf64l6vjlHvsxRevo7MftU2tn0OGnvUl7z2yWef8y1Zn6+pfAO77puKPT+yZJWHfz773/8V/jkNAMAN+l+5XP7P/uxmdeMY2nID6XKT6bg9/cE/VjcLs15l6yNlXdYL14nauH7q+NSNUWvXzYeeT6Avd+qmJ3rDoyet1DfimVRDqNUIbtCzjk8doFQSB+i6PS9Fl29Mdr5oWWnWN43R9VzzRTd49E1ipmi+OK6Xu9yyjk1z3K9XPXVVdPn6bG8lux44l6+St7645d9+x1d4ffFRYPkWfb3yKg+HdPhsL2vdZH3RXNdzOb60zdc/ZwWWr+t1yEjtN/056Px5VPD1Oc3x/PW4tridm5dbvmGad10fizw/XMsjbXM+u6Qj/34BAMAm/kElAAAAAAAA3LwcT38DAAAAAADArSOoBAAAAAAAAG8ElQAAAAAAAOCNoBIAAAAAAAC8EVQCAAAAAACAN4JKAAAAAAAA8EZQCQAAAAAAAN4IKgEAAAAAAMAbQSUAAAAAAAB4I6gEAAAAAAAAbzmCSk0ZLhayWC1T6Vbtr7wkt5NYpl3J3uz676axHefZXvJvhuqdTTbt16p2ZRrblut6W/YZWXe4+cCsHcfnLJknectXaQ4j24kum9K8ozyytpdVrq7rac7l4ZMv29KR/F1iiR6nTzqcFVW+HunQCq/3HulwPY9c1kulY4/z3Pv8cFFU+Vou6fVNx7HzOeSyX81hvWp3GtmnWlyvQ2Y5o/LVdqXX9Tq0z3pmSeRL0etprvVqZZ3fTvX+bK7PEXnK1yxZ9bTg665LeXjls+PxedWD5Db3OX8BALhOnkEl/eHal9qsJ5VKxSytkUh7vOMmPdNEOnYb8aUnM/Xb5fenzIMVY5pDtX/7c5zf9oJGQV/uRq3Iuh21lWyb96vom55xW/56kf0GGRO/UclYrzerST91k1KV7lTdvLyJfIyW9r3tth6fsyLLN7SUUWud3mBJ57NTeUw6kd/ppSUjacs4eYPpup5zebjny+50eNRT13Q4O9H5W3i9d02H6/Yc1yv8PNfczg83BZ+/ruk1XNJxqnwuth7oc3xc/5ZWeGy6zpc2nZdnXL6u+VL0dddwzZcC1/Oqz4Gtn6tnfX3WXOu95pLPBV93XcvDOZ8dj8+jHvjeJwIAcKu8gkrmBms5klZn/ZE6H7yKvm+oPee9kYqrdp/VTdxSvj8zQkrVrjyrO7xZL2i4usjcntrOW7uktlORxiBjP0k79tt8VL9U+fIevdOYf8q3ypdS/cnmi7rh6ZuNSCT71P2S3mZNniM3M83hWOrf6iamMZB/9r2tcuRLlmOUbybf8liZy+BDpbhUl6etB5e1nk95OOZL7nToP91S71dc05vtNOdv8fXeNR3u23Ncr+DzvGhFl69bet2dKp+LrgfzQcOssz5TJ/KuMznneemq8PJ1TG/aPtfd0/Guz96fq+d1fc5fvtkKv+7mvr5k57Pz8bnud4/PcwAAbo1HUKkp5rM42YOo+SLqc1d9Gt9LOXhnD0150RubfUj6M7wq3be2lBKNiO2yt1d9qkspeVOx0e79/vvVdyPJ9JflXufL30+QX9UHuVP/LX+Tt1n/xPx55GZm0vG5icmTL1mOUb7Z/Mojrvqgc/VPfnZkV2o95/Jwz5f86dhW7+Nc05t2ovO38Hrvng7X88h1vaLP82IVX75O6fVwqnwuuh5sVpJ730x2Vnz57pPe3NfdE/Krz/k+V8/p+rx/fY4q/rq7z/Ulnc/ux+e6333uSwAAuDXuQSV7E/8XuVsyXYP7Ir2e/h7vTh72bC2FvRxGGZ/i1e6bujmYSc/jDi97e1V5qqu7B3XzUB4uZNeYepf9zgcf5tvx/mr8fjPohq3eXf3d/EfdAmWZy0/2L5zkyZdMByvfkul+vnk+Ar/yiLHfJC5H79u7o2et51oezvmSPx3b6n2Ma3qznOr8LbreHyEdmxzmPN91fjg6QL44pXeloHQop7ye5lU2LdKlpGJcZ1y+ue1z3V1xzZfi1vOpz7k+V8/8+rzdjvw7+fUlIiufPY7Pbb973JcAAHCDckzUHWiqD9pgXolwfPm+39Ju660R/M7vZm1H749aXx6/do2pd91vML9MOH5fj8EPxvVHx95P5Evd25Tab/ZGJqBvfPQojnzy5IubQso3ay6EZfRmLsKpPBR1Q7maYHPcNt8kvmYV8M718pXHznxxTcfKjnrqml5Pxzt/D1Hv14pPxzYFn+c+54enYvLFJb1K4ek41fU0p+Yw2Gey7p99+Xoo7LqruOZL0es51SvN43P1Yq7PW+Sop0e9vmie+bz9+Dz26/15DgDAbcoRVNLf6izk+TcYM7/+WM/6ltbdtt4a4Vh5n5u1zduz3ZzVTUTsy7D/b+/ukdpYujAAn28lsgMXBNoDRWISZ9ICFEHkyAlViqkiIXIEEQsQmROcUNqDAlwOjFZyv+6eGWl+embe03MGYfM+VdxrQ7v/TndPa/7YXEt4TH/x1bUwg5eb9clq8SLLsPlYytptRvwGqPyCSH9b+HJdvSJ4I9/c9/IESin90m+c+GY2cn3m30/h+uBr0TF4PAL3/bNig+e+5k+nsqr1cwCk08Wjr1+U7cj13qWEthf2+vPXetxnxhynbcae57H5oWXZL1h7m4a2Y+x+NuRf+pudUQLuanlr8VUwXHeb0H4Zmg4bV6rj6l+yPut09bNl/bB4BHA/I/VDyk07nhMREb1X+Eml/HGDkyt/P3H1mfnh703ouFsjXAV2H1a/lTcIfbru/sjeuRETnrUvwOX633TiNqFuC7bcXenyV8L81T7fX9XbyP0HoWJj5L/cvkd89zXeBdAnqV86jBrfLmA8WuxexPm5e4vXlq43HnC/pLSj5y6lCLS9DYeavzmzcX+wcXqgeY4y7xdde+288X4u83dPFCeUYnc5WDrYuI8buu6+PnBcDTyuvs312cAbW18a/QzXDy132L6EiIjovVHcqZQ9biDb+osL82fP1z/zA3TJ7pbl7g1C511K/u2L/opZ6Wp0uF3Zf3exCn+v34rcffdH/s6Nk8+NOoX3Ymz/uO2Eptz8ilb+7/bAd3uEF0n2/davppR+6TZefCvydx/sX7CLxaNd1v/NF/bWgeka8UD7Rd+O3ruUotD21h1m/rZKHPdJ7TDxSvO8MT9Q1vEd2N7kdrxSPw/l+84/hqM9ofRm4jsUug6B6dB+SU6Hjavhx1W0X+reWHwb/We97g6c541+RuuHlpv/PXlfQkRE9L6oHn97+H4v28lCVqV7jrMXWsY/UIbfnhH+dCLtF+6673KoX4nOvvyt2X7/MA9/L1+V6svPC+1wdar8eu9whdL/s+wKJV5uvplx/VK5U9xt+PyvI+7abPn3f/hHJ9bLM/hOlYK+X/qNE9+S4oOY2/iVHy1A4tEmPKrgWn3X01YkXVs80H7RtUN/l5KHtjdmnPjq2zFk3Hvadth4hXneMj9QtvFNb++wdhxmPVUp2ufmoe6E0luK7zCW6y7cL4PSYeNq6HH17a3PCVr62XbdHbC+OLF+xuqHlxvyc6Wk7EuIiIjem/8dHR39l/8ZU2w48r+6w2v7xnqXtj2N/yCwch9K18tjxa/u9c/EX8kHt8mrb/Dg/BrtcBuPed+Hkf5yy/wmtJyukca/HDJWSbdx8R+OotxGb37WtqFprx/MML6xPmmNCxCPWH6xPkxO1xYPD+0XcFwVZXeNU7QdKobx9ZLaYTHukXag+SnKjcUkdZ7H8tKtgxEjxbest71OtB0H6mfrceBfAtyWrJzuzccXbG+sHbG+HpIu1i/W6bxY2vq4aoofV9H2qryR+LaOU6R+Y89zr62fwf6Dx0EjP2SfSERE9P7oTyoREREREREREdG7l/Db34iIiIiIiIiI6L3jSSUiIiIiIiIiIlLjSSUiIiIiIiIiIlLjSSUiIiIiIiIiIlLjSSUiIiIiIiIiIlLjSSUiIiIiIiIiIlLjSSUiIiIiIiIiIlLjSSUiIiIiIiIiIlLjSSUiIiIiIiIiIlLjSSUiIiIiIiIiIlL739HR0X/5n0EzuX2+kpP8byJbuZ+fyfUm/6vS9PJRVotJ/jdney/zs2tpZDe9lMfVQvYp17I8vpCH/G97QP1mt/J8tU+x15Jnqez18lgumoVi9dOW22jL0HQIw/iq2ttXbv3nNdFxA/ZLZ3zRcpX1g8eztb5+1oHm7wjzzb5csF8acfNFz+WskRDIL1a/6DjWMIwvWj9NO0ZZJ719u6PxQOcbEt8h/RJ0taPPyPENIvWDx71TStt6vNzpiZu6vW351fOpacQPKPetx7eAxAONbyNdpK1Qv2jj4fS1A52XFW3jhYiIiDSUdyrlB+D1Uo6Pj8PX/F5ksXqW21meRCF8MDx9knme1/HxUtaThaweL2Wapwn8ZsFtJl7cRqIod7k+kavnW1ejMk39/GZtn1/2Vd8ITuXy8Vmeb0Tu7rf59yLg+nlIuVnfPLu2fHAbHYt0GNv4ZpD2IuU+yEUlj+LLjRn30+3Tj8rGEesXJL5ouYr6qcaLpQPN38BuvtmXC/ZLJG7HWUJ5vCyXDOb3cLHPJ3zN5V7a2oEwnr9o/dB0I6yThdmta3f+5wa0XDS+qrjp2tHNOL4BUD943IPHy5LOuCW0tz0/zfFDU+5bjm/6/iUaX9P5q4kH2I6E9bR7/BERERFKdVIpHID9lZ/SJaLN9Tfxx/mTc/0Hoc31mRxXriI9yHef2eRUvuwycxstf/XJbbTKV6YeLvzm40TOS5se6/rNbldy+jQPdfyVf68Jrx9seik3i0m4Gtd55QxNB7LuP9SQcqeX566Xt/L0o9R+sF+w+MZFy41ophthvIAOM39xaDzsy8X6ZfbZxc2l+16Km2x+yFMo+ss+XXI/b+T6zn2kGrkd6dD6xdKNOO7dfD8PWWcfSKsUxw8wvk3D4oYaP75x+LhXrqedcUtob09+MbF1/GD9bFwuGg8svq9z3IrHI/U43TMvE8YLERERxSlOKs0k7D1qd4TI7KuEp1AmH+Uo+46BiXwsMpt+kg/uf9s/9e3EL/lT2/RY1+/hAjhZA9cPN/1yKpP6Ji8CTYd5zfiWDSl3Jl99ovVd5fEAtF+g+EbFy22KpBthvGAONH8V0uNRSCkX75dfIUD1fjqSjz7dy+/83w/r5+knPzpe5Le6G14nvmj9GulGG/dTubxZyKT2YXdHUS4W37j0uKFec/5Wof2im789cVO3ty+/mNg6fqh+ti8XjQcU31c5bsWPq0OOC+3zMmW8EBERURv8pFK+qXgpHZ3DI0ZXIsulv87zQT4ZfBo+CjuZrez2LpvfbksQs5Hf5R+o6zcJt5U/PxdfiY8eofXb6St3Kl9OXR+4zdzRbTndc+NRAywdaLT49rR3QLnFVc37ytkj436JiJfbFE2nHi9GDjV/d4zmW4vkchX9srm+C1flr54fJRtKs+xxFffdZfHJZEg/53fYbe+/lx4TAb1GfNH6xdKZr5OZ6eWN+9Bd6v86RblQfGM6+8Vo3I8W3/76JfdLh964Kdvbm19EdH1W9/Nbj28/KL4jzd8y9LgK65iXKeOFiIiI2iX/9reZ+8CevdekeE4+7e6Eitmt+Dusq1eqHuSn21NNFjf5hifjN1whbYvO+sWevd+WN1Uaivppyj25ks8/S2mj77Bw0HRKJvFN6Ge83J67hUbql95yd9rSpY1na683fx3T+RZhWG53v2TvASnec+Lf2ZW9/6RI29Tbz+6Dz2PxwWu1CHfYfeseWBCz+KL16003xjqZzbHuk1ya+aaIL9IvI457k/jC9dOP+25I3Kq626vPr/g3fet4Z7lvPb4wJL4j7XN2sHj0gtarlPFCREREXRJOKvmrWM9y/id7xn1/uI7dJaDgXwKZfTJsXD3ytz8v19UrXzfyzX0vT1CRUr+NXJ/55+pdGV/11xl19SuLlZvfdl6/LXtzLeH1AIuvroUemk5rpPgGXf2sK7f9quZY/ZIZdJdSLn28WHj9+ds0bL5VmJWL9EuWZrV4kWX4sOTyOrkK8Wu+SBfsZzcuz0ofwOZPp7KK5ocyji9aPyCd7TrpQ+8+/AIn4fByFfFNipvFuDeOb0Vb/TTjvh8at0x/e3X5ZfrX8ZR+fuvxbYPF13r+lpndpQTMy5TxQkRERN3wk0r57c8nV/5+7Ooz7oPfJ+GvLhUfDFuufvoNTbFR8F9uvyW+2N07CMasH6C3frDsHQUx4d0HO2g60KH6L6ncrquaxv1SgV5N7U9nN15AB56/o7AoF+4X/xuI3IeRSln+Cr+/Cu//ff54x8B+3r2Y97PyQ+krzV+0fm3pzMZ9uDvNfQj9Vv7g3a6/XDC+LZLjhnql+DYN65cGNG5oe5XjINOxPh+qn/+S+I5z3EKPq3qNeZk0XoiIiKiP4k6l7PZn2dZfgJy/w2b9M9+QlOxuRe7YePo0/jZl7QfD8ALL8m8JSahfWf5Og+aLKBM16teiUW7+joKTz40+C++N2f6RLCWaDjVSfOsa7dWX231V07pf9izuUmqFjpdkb2z+Dp1vZuWi/ZLfAdcYP/V3igxch/Jy9P3ySvMXrh+YLnGdDL+xyt/5ULprIjy247+7WIW/dz7q2igXjW8bsL3J4/6V4tuo39B+qcLjhrU3ZRx0r88D5+9bj2/DwPgm73P2zO5SiqrOy8HrBhEREUWpHn97+H4v28lCVqV7ibMXHsY3BOG3cIU/nUj0Am7iB0P/HL9/5GW9PKtc2dLWb6eoh9vQWdwS3Va/hpZyQztcn1V+TW+4wub2lnf7K2xoOpR5fOu62guXC9wFZNwvGbu7lOrg8TKQeXwT52/bOIAZl4v1S/6hz6WrPMHh8vS/lrr8oU/bz2Xh0QzXrruEfjGPbwRaPyTdkHWyfsdE9uUfsfGfy+fh7+W7Pcri5eLxjYH6pWX8oUaPb7R+w/qlThM3pL36cQAePxT9vPPW4xuVHt+h+5zMeHcpefV5OWTdICIionb/Ozo6+i//M6bYIOR/dbuB9g92u7TxNP5llP6DfpTbgMzPshMAfvOy8huPgn+JZNv7U4D6NfJz1svj5q+WnRXva4lIqB9crtdoh9tYziObNzQdyjC+w9rbnWdrPgWkX8D4emi5SLpGv3SNZ2uG8U2ev060f8B4mJfrKcdfmf8w0vggAuQXy2vwWDCML1q/5HQW62SFfzfMlXyoxQMt14uVXY9vcnsdrB0dRo5vW/2QftGsp1XxuAWa9u6051e0ozcOQLlvPb4px7ey3nFvMH+heKTuw7yOub7XMf6IiIgIoj+pRERERERERERE717Cb38jIiIiIiIiIqL3jieViIiIiIiIiIhIjSeViIiIiIiIiIhIjSeViIiIiIiIiIhIjSeViIiIiIiIiIhIjSeViIiIiIiIiIhIjSeViIiIiIiIiIhIjSeViIiIiIiIiIhIjSeViIiIiIiIiIhIjSeViIiIiIiIiIhI7X9HR0f/5X8GzeT2+UpO8r+JbOV+fibXm/yvWtNLeVwtZJL/VWQty+MLecj/1rQvf3s/l7NGwYr6lcpeL4/lor1Qp7vc6eWjrBb7VrhEMj+7ln2qer1qyulnt/J8FUvZ1zcWjONrHQ9kvMT6rxGPQl/9FHELwPaqxn09zyHjQBEPCJqfdbrCPn1jXpqOA0eTXyO+YP2CNxJftL2qfi50xM3pX08LmvbW00b6GZ2XSHw9NB3MKr71fGrq/W28XpnGVzWPEvNrq9+bjW8G7md1O/b1rKar17+mXL5q3dD2i0H9CqW+6d8nEhERvU/KO5XyA/J6KcfHx+Frfi+yWD3L7SxPouE3Fe5g/eIO1EV+y/WJXD3fupLiZrcdGwK4flO5fHyW5xuRu/tt/r1uXeWGjdvpk8zzMo+Pl7KeLGT1eOlKKjzIxe7n5S+X1v10+/SjtpHym6Z62rZNvBXj+FrHAx0vDxe7n2dfc7mXejw8pH6auIHtVYx7P7aeXZ4f3Ma4SJs+Dg4VX+t0e53rgek4cND8IvE9zjKUx8tqybbz3Di+aHvhft4bvp56eHuheYTOSzS+qnGAsIyvYl0zXq/GiC82jw45zxG28xfu54R2tM9fxbiyXp9LTOrnaqHdJxIREb1XqpNK4UDtr+SULtVsrr+JP96enNc3An3cRsFfpXIbhfKVn4cLf3A/kfPYZmZ6Kefhn2QbgDq0frPblZw+uU3v2bX8yr/XqafczfVZyGu/GXmQ777Qyal86emU6eW5a+1Wnn7s//Wh2MbXOh4J42VnI9d3LnK1eAxpbyxuWH6Kdrhxd7OYuKTHA6587x0uvrbpdnrmZZP1OGjJ77OrlMvv+z47l/SHPLn8Jqdf1P2Mso5vU7y9TT3pjNZTuL3QPMLnJRpf63Ewfnxj65r9emUeX9Bbn+fW7YX7WdsO9bobG1cxRuuzUf1m2n0iERHRO6Y4qTSTsPeo31Ez+yrh7urJRznKvoOZfpIP7n/bP/XD9S/5E93MTOXyZiGT2uZ2D6/fw4XmQ3pfuV0m8rGzU2by1VdufZd8e7sd4/hax0M9Xqqmn/y/fpHfu2KGtDcWNzA/RTumX05lUt/sJztUfK3TFdLmpe04iOXnIhkCWf93R/LR5/fyu1qOGev4xsXaG9Oezmo9xdsLzSPFvETjazsOXiO+kXXtVdertPhi3vo8f535m6nuS3TtSJm/+D5n+PpsVz/dPpGIiOh9w08q5ZvLl9KuKtzqfiWyXPrrQR/kU9en+rrNb7d1iNnI78gPppc3bhOxlmXbTsG6frneclschR3ZVhp78ZLi6th9dBc+Cbd3Pz8XX+2PBJqw7r8Dj5eK/Ar69v677Hp6QP2icUPzg9sxlS+nbgy5Tf3RbXkcPKc9WnGo+FqnyyXNS+NxEM3P2Vzfhbs4rp4fJQvVLHt8w323WV+jeW4d35iW9jZ0pDNbT+H2gvNIsb6g8dWNgx6vEN/ouvZK61V6fAs98+jg87zHa8xfJ7Yv0bQjZf5273NKDNbnUetHRERErZJ/+9vMbRyz5/WL9xb03ZVT9yA/3Z5gsrjJNzIZv2Hwd9tXZVeSej/MlAyvn6cvN5jdZm3ovDLXcfUu9q6BbXnTNz6b/tt73fHiuA3qY/EBY7UIV9C/dVx1xOuHXXVtz0/ZjpMr+fyzNBYGvbNj71DxtUmnmJfW4wDKL3tvR/HeD/+Omex9IEWeuRHnuVl80f6D0o23nva2t3ceaeYlGF84nZ5ZfHfa1rVXWK+GxjdhHr3qPE9gH1+ntZ/RdqTM357jpen6PEL9iIiICJJwUslfxXqW8z/Zs+b743D3XTkx/vbi5bp6hfFGvrnv5QlyxTP1XZuNPbv66crN+ZdeZju3zqtluqtjG7k+8+8HcH31ddT7lRy7/su8/ngJNtdyVvqgMX86lZVL33yxp65+/XHrzw9rR/74gdvcV4aRa1d47cTiqyspxaHia5dONS+txwGUX5bXavEiy5DOzV33YdvHufuFuxbzHO1nENp/QLpx1tO+9uLzCF9f0PimjoMuxvHNda1ro65Xg+Mb0zWPwPxGneddxolvdz9j7UiZv73HS3R9AfpllPoRERERBD+plN8Gf3Ll7zuuPmuOvmcjxm9Yiw2F/3L7BfHZ7Z6hD1fX3EH/W3kjEWFdP7TcMn/Vrdi4dV6tfINXx6z771DjpcXuxZ6f891qUv064qbMr78d2TtLYsI7MLQOFV/rdCnzssRmHOw18vPv9Hh0H24qa4C/E8DfPeHLGekxVuv4tmi2N66Rzno9hdurm0f98xKNr/E4GDW+/cejUdYrk/iC3vo8HzO+nfsSsB1J665+n5O8Pr9S/YiIiChOcadSdhu8bOsv4szfpbD+WdusOLtbmxUbrPACxv1v4Qi/mcRfcSxdJQ23Z/vvLlbh79mt9Qn164CXm/Nt9bdvRzduVUlXx/J3CzRfmGrFOr628WhVGy/tsivp+/7T1687bgPb22hH/s6Sk8+Nvg3vxdj+cR/jNA4VX9t06nnZMHwcVNXzy+/YaMQHePeXlzzPrePbpt7eNtV09usp2t6B86gxL9H4DhwHDePFN+l4NHS9Motvi8Y8emPzvGGk+Pb2M9aOlHU37S6gej9j/fJ69SMiIqIY1eNvD9/vZTtZyKp0b3L2YsT4gTn8NpjwpxPpubAd+Pc0+Fu018uz3ZWj+hXS7Mvf2u73GfPw9+LqlbZ+XTTlukLgE0pu+6O/Olbk7zZWqkdHlKzjaxmPmNh4aRNujXfxuSsl1NUPuJqf2N62doT8XK0rv7Y7XJH11dDfqXOo+FqmU83LiOHjoKqZX/4hyOVXefLGzWH/a647P7wOnOfW8Y2J9V9MPd0Y66lqXLnaaOdRfF6i8R0wDlqME1/98WjwemUc34aWeZScn2M6z1uYxxfqZ6wd+nU37S6g1PX5tepHREREcf87Ojr6L/8zZrdRKXRsWHo2NX5zuvIH9oJ/OWT0vQp1/vn6K/ngNguND5BI/dxG12+Ko9xGdH7W9kEjXq5/eWRbdvX8ijavl8etv/K20S9OV3pThvENDOOBjpdY/7WOLbC9SNwCID+0HUEjP7eRnvefRGsFtjfYpR0YX886XUV8XlqPA01+sbT+w01f/QbPc03/7dLG06DtVfVzxfD1FG5vI11zHjXa0dEGJL4emg5mGF+vqJ/qeNQVW6CfreMb6+PW9iTm19bmtxzflH1JWX872vdhRX6qceW1jS1Nv+wMqx+6LyEiIqKUk0pERERERERERPTuJfz2NyIiIiIiIiIieu94UomIiIiIiIiIiNR4UomIiIiIiIiIiNR4UomIiIiIiIiIiNR4UomIiIiIiIiIiNR4UomIiIiIiIiIiNR4UomIiIiIiIiIiNR4UomIiIiIiIiIiNR4UomIiIiIiIiIiNR4UomIiIiIiIiIiNQSTirN5Pb5WZ53X49yOc1/lATLb3r5WErjvh4vpbvYfb6P8QzlsZxfW7qdnvy8Up63s/x7dWC5+vZasY5vQRuPW/cvIjRxQ+Lh9aWb3VbK239F6qipXwCMq0ZMWvoGMkJ8rfp5B20vkK4Rj0iaWHxj800zDgKwHXC/IIzji/Sfh6bz+tqLxmOnp5+t5++o60GfA8XXs4ybpl/6yvXQdsDlavoZnOeQA8T3kHHb2bc7OR5oOzTzN7CMLxER0b9JeVLJH1yv5GS9lOPj4/A1vxdZrFI/DGH5+RMsq9Mnmedpjo+Xsp4sZNXxQWN26/LN/9zgNxWrhbwsi/zcV1Zw6wapMz9Xi8tHt9m4Ebm73+bfiwDLTWmvDev47mnjsVyfyFV98wbHDYwHnM7byv28VG74upCH/KeB+bjKxsKzi8mH+3l7uTDr+Nr3M9peKB06rh4uSnn4r7ncS9t8A8aBg7VDM/4QxvEdMC+j6dD2KuKBzw/r+TvOetDtQPG1jhvcL2C5aDvgcvF+ftPrM9ovh4pbSfdxEOyXg63jREREpDqpFA7823uZX+wPqZvrb+L3DSfnsQN3NzS/zfWZHJ9dyyb/u9s9yHefaHIqX2KFTi/l3O1Q1sulrPNvlc0+ux+6cr+XdwabH/IUsvzSbEdffrcrOX1ymw5Xx1/592LQctXtNWId353O/nMbxqvwQykV6/aHPu2JnJc2q2j/wfEA06Gsx5X/+c1i4n5+LGfX+9GQyn7+Gvcz2l4oHT6umjZyfecikjrfwHbA/QKyjS/af4r5m9zelnhYzw/t/O1hnt9B4msfN9t1fIzjB9jPb3p9tl//bONW4vqxe3+V2i+vs44TERGR6qTSTMKe4umHO1SXzL6KO+66A/dHOcq+A7LIbyIfG4mmcnmzkEltM1X264/fBdXzP5KPvtyX39X6APk9XGCbDl25MbH2WrGOb6Gn/6af5IP73/ZPffv5S0J3lTaraP+h8UDToazH1fTLqUzqm/hk9vG17me0vVA6xbiKmX7y//pFficMD7QdtuPPOL5o/yn6eUh7Y/GwnR/a+dvPNr8DxdexjpvpOm5+/MD7+U2vzyOsf6Zx2+k7Dg7rl9dYx4mIiEhzUinfpLyUjs7h1uArkeXSX1/6IJ+6dil1A/M7CjuZrdT3TNPLG7fZWMuy7ZO6s7m+C1frrnbP5c+y26vdd+v/DskPpSm3rq29Zqzjm+vtv81vt+WL2cjv2g+G9N9wk3C7fdd7FWzH1VS+nLqYu8360W253MR3sowUXztoe8F0inHVkF+h3t5/jzzm0DcOjOOGso4v2n9D+hkVjYe2n23nr31+PQ4V3yFa5pFpv1gfP+B+fuPr8wjrn2nccr3HwSH98jeu40RERH+phBd1Z2buQJu996d4vnzYXTSq/Ga34u/slvWdVC+IzeRr6yai7EEujvfP5ftn5rPn9evPyqP5odBya1rbOx6b+CL99yA/3d5wsrjJN6oZv3EMba5I7L+hYu9q2JY314URxtXJlXz+WSo7y3zwxtZ6/ppB29ubTjOuHPcBZPcC2tUiXKH+Vp9s8DhwRoobanh80f5T9jMKiYeH9LP1/DVfD/ReL75KUNws+2Xc40dvP7/Z9XmE9S+h/7rp91e9/fKPreNERER/i4STSv7q1LOc/8memd8frlPvolHm518WGXZFzatbxbP30Q8fFVmZq8WLLMNmYSlrt3nwG5Hyix/x/FBYuRUd7R2HXXzR/vO3yy/X1SuHN/LNfS9PsJPQf6PYyPWZf/+Dq/PXcsGW4yp/rMBt2ith31xLeE3E4qsrLYVdfG2h7cX7BR9Xjvv3ZyFm2df86VRWtbg1xcbBWHFD2cUX7T9VP6N64zGkn4fN3ybr/Lq8fnxVoHlk2y/jHD/6+vntr8/2659t3HT7K7BfoHbUvcV1nIiI6O+Cn1TKb6c+ufL3HVefmU96bj0lP38VqjjBUr86Fu7m2cr9t/KGI2Yql49uM1PJw1+B81erfH3y26Dh/FBguWVd7bVmHV9l//kN8HFpM+j2jeKL3b9LIaH/XpX1uMrefRET3m2hZR1fc2h7df3SP67idi+C/awdVcZxQ40UX7T/UvsZ1YyHdT9bry/G+R04vqmacRtnHTc7fsD9/Hesz3brn3Hc0OPgwH7569ZxIiKiv5TiTqXsdmrZ1l9cmD97vv6ZbzRKdrcixzYcyvx8Xv525sqmZi/8ZhJ/pal0VS7cnu2/u1iFv2e3LOdXoLZ/3LahrPquATw/FFbuTk977dnGd3D/hRdxbuXpR7FjVPbf2PJ3PexfhGo9rvJ/d/K50bfh/VqNcvpYz19raHsH9ktjXLXJ4tl80W1NYxxYxw31SvFF+w/uZ1Q9HgP7OXH+trLOr+GNxRdWj5t1v7RIPn6g/Txw/DW8tfiOGzf8OJjQLxX1drR4M+s4ERHR30n1+NvD93vZThayKt1LnL1ocSv31SN+EH57RvjTicQuFMH5+c1TzwmW+hW57Mvf0uz3I/Pw9+wqV75JceVWnlRwZfhfa1tsUvD8UFi5AdDeMVjGd0j/+fc++Ef+1suz0jukFP03tiI+bqO7v3XfflyFeLi+rfz653CF12V3p7+Dznr+WkPbm9ov8XEVFx7NcFG560oYHQf2cUONHV+0/zT9jIrFI7mfB8zfKOv8WryV+Go04zb+Oj70+IH2s/U8f0vxHTtu6uOgol/K/sZ1nIiI6G/0v6Ojo//yP2OKA3D+V3d4bT/xsUuLpCk00/qXM/oDeZTbCMzP2g7w/jn8K/ngNin1Exh+g7Va7Ev1/Gam+0RRS35uo+E3a1G1+iHlprfXgHV8K+L91+iT9VKOKy8y2IPihsYDTBcrc708rr5rIWc6rrxGPNxGej7gQ59lfI37OUDbC6RDx1UsZrG0mnEAtUPTLyjD+Cb3X9v8HTDfWvNMGQfOkPlrnZ/KAeI7Rtygfkktt60dDhwPtJ+B8adygPgeKm5NmuNgs81oO2LpBq3jRERElHBSiYiIiIiIiIiI3r2E3/5GRERERERERETvHU8qERERERERERGRGk8qERERERERERGRGk8qERERERERERGRGk8qERERERERERGRGk8qERERERERERGRGk8qERERERERERGRGk8qERERERERERGRGk8qERERERERERGRGk8qERERERERERGRWsJJpZncPj/L8+7rUS6n+Y9STS/lMc/vdpZ/L6pe9q37TsnstvSzjnQV+zwfOxvSkS5W7uOldHcLUC7SL6U02VdXWxEjxDcwau8OErd6WxLHiyq+ff1X/3ntq5xv0rjq01c/LSy/6eVjKY37Su4/Rz3P63kOia9jPk49NF0fLB46Pf3nQPG1jpunWf+AuOHjtNARN3V7Ebbxhdvb6Gewveg4sO7nlvz621vv39pXPT3SLyq28c3U84yNP7RcIF3SuN/n295/QDs060HQUW7SOCUiInqflCeV/AH4Sk7WSzk+Pg5f83uRxQr5cBUzlctHd6C+Ebm73+bfi8s2g1fy4X6+K/v4+EIe8p/vbeV+Xvy8K11mduvak/+5S2e6h4taeXO5l4WsOjYg3eWC/eI3PauFvCz3ZS/XJ3KV/KHFOr57Ju0t6Yub6XiB44v034NcVPIqvpaydj/dPv2QTZYwaVx1s44vlp+Pxer0SeZ5mtDWSWr/FbB5Do0DuJ/tx2kBTdfNfv4i/YfH1zOMG7z+YXHTtSPTHzfd8aibbXzh9kb6+TgruPpBHJ1H1sdLMD+svYr1Ge0X2GHmL16u/fpcMDmeJ+yHLMYVERERKU8qhQPw9l7mF/tD+eb6m/h9+sm5/kA7u13J6ZPbJJxdy6/8e1HTS7lZTGTtNgtn17st3XAu33O3o1gvsw1jKzTdzkau71zKyal8iXVKT35Yv7gN3lXIRErhcPsgn+eJnCdsaq3ju2PS3pK+eLifjzJeduLxHdJ/08tzF7WtPP3oqm/PuOphP3+x/DbXZyG2+5Y9yHefyLD/opLHQVt8jcdpAU3X41D9h8YXBpWLr39o3NTtMIobyjq+8Lz87Brpyv1e6mfZ/JCnkPRLR7noejXseNkUz2/IOI2tz+n9Eneo+YuWa16/Ql98jdeDHaNxRURERKqTSjMJe6jylTpv9lXc8d4daD/KUfYd2MMF9mFv+uVUJvXN22BTubxZyKS2CWlC01VNP31w/32R343m9ecH9cv0k/gStn/qH5N+yZ+kTa19fDNG7d3pz2+c8VLVjO+Q/pvJV59ofSf9YW8bV32s42uR30Q+7hLZj78h4yDWz9bjNJO2vjS9rf7LlOOLg8pVrH+6uMXE2mEVN5R9fNtV2/srdGg9/yP56Mt9+V2tTw26Xg05Xsbo1sm+cRpfn4f0S9Oh5i9a7ljjz+h4rt4Pvca4IiIiej/wk0r5QfuldDQNtyRfiSyX/jrPB/k0ytWbqXw5dbsWt0k7un2W8vPt8VvMJ+F27H26+K3P08sbtxlay7JnR4Gmq8ivrG3vv0v9XyXlF7P57bY2MRv5Hf9Bt5Hia9beXH9+44yXilh8B/RfcRX8vu/Te8e46mUd34H5HYVPXlvZfQZQ59cXN+04KBnSz7lR15cY8/k7oP+cRnx3jOJmvf61aGsHHreE9SXGPL5xsfZuru/C3R5Xu/fn5I9Bue92th+dR9bHS8X8bR+ne23rc3K/xBxq/qLlmq/PGbPjuXI9GHtcERERvTcJL+rOzNwBPns/QfFce9pVadjJlXz+WXq+HX2nw7a86StkVx77NwdoOsdtOHYviFwtwpW1b42r44r8ej3IT7eXmyxuKm3zGz1/F/hQNvG1bK+nyM90vDhQfPfw/sva1HqXkrJclPX8VeU3u83GaMedWZ35aeKGjAPPtJ/RcWo9P/bM4ov2X1lbfE3jNu76F7SOUzBumvYqWc/foLW92XuGshD4OXKVv1enKLsEnUfWx8uU+QusQ0Ud4mkU/aJ0qPmLlmuzPivia7oejDyuiIiI3qGEk0r+atyznP/J3lGxP7x2X+1Ll99OXr9NeXMt4fH2xVdXozYbuT7zz8tPZPF1n6p4N0Df5gBNF7j6nJU2UvOnU1m5fiq/wFKVH8A/1rFcV68I3sg39708QRK7+Fq3F8vPfrwEQHwzuv7rvUsJLhdlPX+V+bkPcs/ZJ7mWq8Qp9YvFTTkODPt5lPUFZhXfxHnUG9+yYXEbZ/3LdbQjPW4d6wvMev7mOuOWlblavMgyzA/XBvch3/d3Y36g8whIp+pn7fwFx2n3+qzoF9ih5i9abkr9huzD7NeDUccVERHRO4WfVMpvLz658vc7V99RMe5z5tkz8THhnQZabjN5deI2id/KG6IINF2L3QssP+e7j4H5tfEbqWLD47/cPk98OBrvPuhjHV/r9sL5GY+XFo34JvVf11XwuEa5KOv4puTnr/oWH+TqV/PN15dh4yC5n19pfWl4C/3XFV+Yrlyz9a+sqx0jreO9zONb0hm3qVw+ug/hlZ/5O3T83Se+Pt2P86HzyPp42VkuPE671udh/dJwqPmLlmtdv5GO573rwZjjioiI6B1T3KmU3V4s2/oLE/Nn3tc/m5szv3kLV4wS3yMR5M/En3xu5BHeh7D947YdHfJ3ARQvcAy/scVfMStdzQq3rfvvLlbh7/6WajRdu+wKm7bcwcKLM/t+i1iMbXyt24vnZzte2lXjm9J/8LuUKurloqznrzI/n5d/fKD1g1xC/coacRs4DhL7+fXWlzrr+Cr7rze+Lazjlrz+5XraMThu8PpSZx3fXG/c8jtFGv2ex6kXOo+q6YbPj5ZyFeO0e30e2i91h5q/aLm26/OrHc9r68Fo44qIiOidUz3+9vD9XraThaxK9/5mLzyMb7zCb+0IfzqRIRd2Qrkuj8qvhQ1XnNxe5q7jilOxgXQboeJW5/qVrOzL35rt90vz8Hd/FQ5N1ybcYu1S3ynLHSJ7caYrdXkG3/lSZhlf6/Zq8rMcL23q8fV0/ae/S8mLlYuynr9wfuAHOW39dlriljwOnNR+fq31JWaU+CL9B8a3wThuQ9c/pB2D4tbSXpR1fJH2ulKzkwmu3MoTe+7f+l/H3ncyAZ1H1sfLaLlQewt96/Owfok51PxFy9XWbycy7l/jeB5bD0YZV0RERCT/Ozo6+i//M2a3MSt0bND6NnFuY5C91yDCbUDm5Wf2G+W6jcy8+uHBbyJWfiNYsl4eV5/Fj/LvCbiSD25T0f1BLp4uVq5/B8Bxb8Et5YL90igXKrOHZXwbhrW3qSNuhuNFFV+w/4o8u8Zn+rjqYB1fID//Ute28PbP82Z+aNyCRn7YOIj28xjjtAJN12H0+Db7D43v6HFrmxtg3FTjtCIeN1V7UYbx1bQ31hb/IbyvvbGYoOma8H6O5ZfS3r54If2iYhjfAJhHAVoukC7WJ9i4Nz6eQ2PKGzauiIiIKOWkEhERERERERERvXsJv/2NiIiIiIiIiIjeO55UIiIiIiIiIiIiNZ5UIiIiIiIiIiIiNZ5UIiIiIiIiIiIiNZ5UIiIiIiIiIiIiNZ5UIiIiIiIiIiIiNZ5UIiIiIiIiIiIiNZ5UIiIiIiIiIiIiNZ5UIiIiIiIiIiIiNZ5UIiIiIiIiIiIitYSTSjO5fX6W593Xo1xO8x9pzW5L+ZS/bl0pbfblP8YKnl7KYyWvSLpYuY+X0t0MbbldbfB68ttB0tVj0ld2l3peA+Jb0dEOxTiYXj5W03TGratf6j+rfdXzRcbVDhoPIJ2qXES9zKHx1eSX0t5IGvW6AcajVPZtPKOcUTsc3XhGGMZX289o/1n2M9heuJ8bcWuZb0h8k45vfQzjW7HPN3ldUx1XFe0wGVf18mpfiev9PzF/x1hPkfmxA+TnWcbXQ8YVOA6IiIjeO+VJJX/gvpKT9VKOj4/D1/xeZLHq+3DQZSv38yyv/deFPOQ/rZvduvLzPzf4zdFqIS/LUl5ZBasbgYeLUln+ay73spBVx4ZQW+5yfSJXHRupzvxK+tJlm9or+XA/L7Wnvf+6jRHfTH97+8eBb+vq9Enmu58vZT2Jx62/Xx7kYvf98pfL0/10+/RDNlnCaHyj48pB4wGlU5SLsY4vnl9qe9vnEbZuYPGYyuWj+8BwI3J3v82/F2fZDp8XOp4xh1qf0f4z7mewvXA/o/NthHGKOdz6DMUDPq6i7bAcV/br/b8zfz3D9VQxP7B5bhxfdFyh6wERERHpTiqFjef2XuYX+0P+5vqb+OPyyXnqRkpheinnbue7XmYbhbrZZ/dDV7/v5R3J5oc8ufpNTr901G8j13cux8mpfIkl6izXbQSvwg+l1C1uf+3Tnsh5bPPR046dvnTu5zeLifv5sZxd77dMqUaLL9reHpvrMzk+uy5tDh/ku69cPW4D+mV6ee6itpWnH/t/B48rtFwwXfp4jrOOL5wf1N6EedQH7efblZw+uQ81bmz9yr8XZdwOeDyDDrU+o/1n2894e9F+xubbCOMUdLD1GYxHU/y4irbDfFxFDFnv/5X5CzNe/9BxZR5fdFwZH3+JiIj+ZYqTSjMJx9jKFR9n9lXcvsAdZT/KUfadkUzl8mYhk9pmpezXH3+0r9fjSD76+r38rta7Zvrpg/vvi/xuJOopd/pJ/L/c/qlvT35JqE5j89Hfjkx/uumXU5nUNz3Jxoov2t4hJvKxVLn0fpnJV9/Y9Z2U97jouELLRdMNGc9N1vHF84Paq55H/dB+frjAPiy/Xjuq4xlzuPUZ7T/TfjZpb7Wfofk2wjjFHG59RudRTPO4irfDelw1DVvv2/1d8xdlvf5Zr89N8fii+dkef4mIiP5t+EmlfLPwUjrrEm5dvhJZLv31zQ/yKWk3PQm3d++fWY8/Mja9vHGbq7UsO85MbK7vwtWwq917CGbZ7eTuu13/zmUerpht779LPVVvuZvfbsscs5HfkR8g7fD6003ly6nb3bjNzdFtuf8Sn/kfKb5oe9FxUHcUdnhb2e9h0/uluKp5X9vlYuMKLRevX/J4jrGOL5wf2F7lPOofL8bzY7R2VDXHM+jA67MdsJ8HtjfWz9B8Mx+noIOtzwPmUey4Oto41Ru23sf9vfPXaD2F54f1+tzUFl+U6fGXiIjoH5fwou7MzG0EsvcJFM+/J1ydi72DYVs+iBeyK06xkz5V2XP1xXsI/LP62fsJIu8QcBve3QsYV4twxexb4+oVUu6D/HR7vsniplJnvyH0d4FXoe1A0zknV/L5Z6kPjZ75N4kv2g54HNTMbrM+rl2JDNT9ktU1mperPTyu0HKhdIpylWziu9ebX297FfNIM16s54dlO+q6xrPS667PI1DGTdXe1n5G5ttI41TpVddnD40HdFzds16HcEbrfdnfOn9N11Pl+me9Pu90xRc13vGXiIjoX5NwUslfrXmW8z/ZM+n743XC1bmGjVyf+WfvJ7L4ur9OVrxroGtzmsnqtlq8yDJsUlxebtPiN7iNF11uruWs2Mj4jcPTqaxq6dBy/e3Uy3X1St+NfHPfyxPk0PywdPlt2G6TU7lo5toVXmOx+Op6I4VdfPG41cXHQYV/iWa2g69dNUzrl+6rmsi4QsvV1E8xnmHW87cvP7y96Dxqio0X6/kxcjtax7OWdXzLgHk5mDZuyvZ29jM232zHqZZdfEc5zrjv9x1XM2OO037D1/uaf2r+DltPsflhvT5XDb1LKZMwDoiIiN4p/KRSflvzyZW/H7v6THr7+4gMhKt/bnPwrbzBipnK5aPbJPtN3e5Kkr/S5K+6+Xp3P3aweyHm5zwVXG7Gb6SKjbT/cvtB8d2ye0cCmh9cbvaOgpjwLgAt6/gq+0/FXw0vNvCNq4Yp/dJ1VRMdV2i5aLph47nBOr5wfrp49M4jmPH8GLMdneMZdKj12RzYzynt7exn3XyzG6egg63Pw+ZR47j6JsapxXpf8i7mr/X6Z70+l1ncpWR8/CUiIvrHKe5Uym5rlm39xYr5s/Hrn83N1O5WeMUBOH+3QPGix/AbOPwVs9JVr3Absv/uYhX+nt0qnV/52v5x25Uy7F0mxb/Xl9sivGBz/1tH0PzwcvN2nXxu9G14r0OjH/rYxndw/9XGwY4v0z9W0bqB1/dL91VNdFyh5aLpho7nOuv5i+anj0dFbR61aoyXgeU2jNSO3vGMOsz6bA/tZ2V7e/t54HxLHqeoQ63PQ+dR9bia1A5jNut97l+dv9braWN+DB1X7WzuUrI+/hIREf3bVI+/PXy/l+1kIavSvb/Ziz7jB/Dw2z3Cn06kuFDZqdiguY1VcUt+/YpX9uVvzXbH+/t5+Ht2VS/flLn6Ve7sdnn6X5fct1kNjwK4XO/U5Tb59wf4W+HXy7PdlTI0P025IR6u1pVf0xuuQLvm3unvELKM75D+i42DANzA6/ql76omPq7QcrF0w8ZzjGV8PTQ/XTz2YvMoqmW8pJbbxrwd4HhGWce3oaWfraH9DLcX6uf0+TZ0nKIs4/tax5n6cdXTtsOW3Xq/i+e/Nn9b0qWOg7b5MWRctbO4S8mzP/4SERH9y/53dHT0X/5nzG4jVejYUPVsuvxmY+U3ACXr5XH1Gfso/6z7lXxwm9/6iYlYnn6TXE4XS+MKluPeguPlNvKD8vLa21HVka4RD7cBnfd8uOliGN8msP+c2DjwLy/1G84otwGen5U2omC/FGX3jTtkXAVoPJT1K4uWi7KOL5of0F50HqHjJUD62X2Q8R96ohLGFdoO1XhGofHwdmnjaeB+RvvPuJ8DoL2afkbm2yjjFGUY36Zhx5lYe9v6BmrHCOOqqKPFev+vzF/VOE0ZB137ISA/8/gm5Fc26PhLRET0j9KfVCIiIiIiIiIioncv4be/ERERERERERHRe8eTSkREREREREREpMaTSkREREREREREpMaTSkREREREREREpMaTSkREREREREREpMaTSkREREREREREpMaTSkREREREREREpMaTSkREREREREREpMaTSkREREREREREpMaTSkREREREREREpJZwUmkmt8/P8rz7epTLaf4jrdltKZ/y160rpVAvr/b1eCnV4sH6TS/lsZLuWR7rCWP1a5RX0PbLPn2jXK9Rv3Kf5FT1QxnG15lePpbycl8t9YPSQeMllxrf8BXJzyvleRtNUKj34dD8vJ7xArONb7OfW9rqIe1F4uaYjxcPqF9yuUPSqVjFt55P7atWz4PN8522+aFrB95/in5WzfM+inI7KfsFmZdo3JLG/b6+0fUPXDf2evLz0Li9yfhm0Hmp6796HYcc34D2asYL2o5GukgbRlmfiYiI/k3Kk0p+A3AlJ+ulHB8fh6/5vchiNWQztZX7eZbX/utCHvKfivvTReVnxddS1u6n26cfsskSOmD9/GZhtZCXZSm/LGF1A/Jwsf95+JrLvSxk1dhY6PtlduvS539uiNRvuT6Rq/rGB64fyja+fkO7On2S+a5+LmaTZv3QdJm+8eKg8Q2A/FwtLh/dhvJG5O5+m38vLtvEX8mH+7lJfoXO8QIznr/oOEXbC8bNfLyA9YPLReflm56/+Lp7sHle0j4/Rjh+wOn087zbYeJrvp4mjHvt8bK9fpnu9RSN21uOr2K+KfrP52l3fAPbi44XtB2RdK+zvyIiIvp3qU4qhY3Y9l7mF/stxOb6m/h9w8n56x5op5fnblO4lacfpY8EYP1mn9120qX7Xt4JbX7Ik0s3Of3S0Y6NXN+5LffkVL5U9ijKfpleyrmrwnqZbeCr3EbrKvxQStm5/Y1PeyLnLZvkTLx+KOv4bq7P5PjsuvSh7UG++8xq9UPTodLjGze7Xcnpk9tEuzr+yr8X5eJ6s5i40B3L2fW+NXVwfoXO8YKzjS8+TtH2onEzHy9g/dLLRefl25q/MbF191DzfCdhfgw6fsDplPO8x6Hia72eNvWM+574quvXlx+6Xr3x+KLzDe4/4+Nbentb9mFQOw63vyIiIvqXKU4qzSQcsytXdp3ZV3H7DHeg/ShH2XdewUy++kLXd7Lf2+D1+/XH7zLq9T2Sjz7dy+/qv6+Zfvrg/vsivxPKzUzl8mYhk9qmZmf6SXwJ2z/17dgvCdXu2cQ364d6zfhO5COUGZquakh8Yx4uujfRhemXU5nUN7URaH6ZnvECM46vYpyi7R0et7TxootHTH+56Lx82/M3tu52GXeeZ1Lmx5DjB97Pw8dV2eHia72exrSP+/746urXnx8at78vvoXqfEP7z/b4Nqy9sfECteNg+ysiIqJ/G35SKT8Yv5SOpuFW6CuR5dJf7/sgn5Ku3kzC7c7759Zbns8vKa6m3pd3N4r6ba7vwlWpq93z+/lt2O67y65PJvmVuu39d9mlUvbL9PLGbZo6ytn8dluWmI38jv9gL1Y/1GjxrToKO7ytNPZ0Ne3p+seLLr768Rc3lS+nrs5u83p0W86v790e3XrHC8o6vkPGaYvkeekMGS9DQOMZnZdvfP5G190WrzHPvZT5Mej48UrrZMMB4zv6etox7pH4aupntp5ae6VxFZtvWP8ZH9+GtLdlvEDtONT+ioiI6B+X8KLuzMxtLLLn9Yvn6ROuNseeWd+WNwUx2NXy7vpl75Mont/37wjInuuPvLPDbSR2L3RcLcKVum8dBXeXm9W9e1PyID/dnmqyuKn0gd9w+bu2G5T1Q5nEt252m7Wh706HtnTweAHjmzT+epxcyeefpTxb3k2BQcZLmuHxVY5TiGJelg0eL4m6xjM6L/+a+Yutu8GrzfOU+WFx/NgbZZ0EvG58R1hPoXGPxhddN1LGy2GMMq5a56Vi3TU9vu31thcaL0g73sb+ioiI6F+TcFLJX/15lvM/2TPz+8Nr/1Xpfhu5PvPPtk9k8TV+fbP/ajlSvyzNavEiy7A5cmW6zZLfODReiLm5lrNiA+U3LE+nsoqlA8ot3iHQtynxt48v19UrvjfyzX0vT1AG1w81UnzdhvY529F2XyVG0wVt40UR34r+8dcuv83ebWIr1XbxCa9hWHx1tdJBx4uOXXxV4xSSEDeT8ZKgr1x0Xv4l8xe+S+kV53nK/LA5fnjj9HO/Q8Q3YV4GHfMNGPd4fLH6jbOeWhtpXHXON6T/7I9vGbC90DqJjYPD7q+IiIj+TfhJpfy24ZMrf39y9Zn513vOvONqKly/qVw+us2l31ztrmD5K1z+qqr/99236+9eJPk5T4WW6zZ1Vydu0/6tvHFq5zc+x6XNjNtvic+u8Q6Cmkb9UGPG11/tKza0saufBTRdp2HxTZe9kyEmvOtBSzleeo0U39Rx2pQQN5PxkiChXHRevsn527Xulr3mPE+aHwbHj1H7ucPB4vs662lj3MPxBetnvZ5aGzO+nfMNja/x8W1ge5vrpG6cvvr+ioiI6B+nuFMpu21YtvUXNebP2q9/5gfyEr+ZCVeCFBvP/Fn75osUfXZdV1PR+uVX3LZ/3DapDH0XTPbv9/XDyg2/mcRfsS1dHQu3Z/vvLlbh7523kIcXWFZ/K09cvX6okeLr0/jbxqMb2hI0XV1jvAyMb8f465bnf/K50RfhPRaN+nQbPF4aXmn+wuO0Thk3s/GilFouPC/f2Px1oLuU0H4xilvK/LA5fiT0s4lDxfe11tPquMfji9XPfj21NlJ8e+cbGl/b49vweVRfJweO09H3V0RERP821eNvD9/vZTtZyKp072/24sv4hjT8tpDwpxOBLuwUGyC30Wjeot5/tRyrX76Zcekqd+S7sv2vGe7bzIRb6N0G7a5UCaTc+pWx7Ms/GuD3VfPw9/LVurLsBZau1OVZ950CTqx+KPP49m5oc2i6uuh4GRDfaH640H+uLyq/ljhcIffDVneFfMh4aTP2/NWM0yZF3EzHi0JquQ46L9/U/A2Au5TQfjGMm35+WB0/9P1s5TDxfZ31tD7u8fhi9RtjPbVmHl9ovuHxDfVzZVkc37wh86i5TqaP09faXxEREf3L/nd0dPRf/mfMbqNS6Niw9Gxq/MF85Te0JevlcfRX/RZp236+A9YvVrbfXJY3lrE0rgJyHK8g3i87/h0AV/Khr9yWMlX1QxnG17980284o9wHjXn+DgU0Xay9feOlDIlvND+3cc7eRxFRql/Q6D+3QZ7XNqua/Cri40XFML7oONW0F4mb+XgB6zek3FjfoOlUDOPrFXXsWncPOc+r2ucH0o4A7T8kXfI873CA+HqxmKSup7F0LiEw7vvjW1avX1NLfmjc3nh80fnmwf3XqN/A4xvQXs14QdrRSKPICxunRERE74/+pBIREREREREREb17Cb/9jYiIiIiIiIiI3jueVCIiIiIiIiIiIjWeVCIiIiIiIiIiIjWeVCIiIiIiIiIiIjWeVCIiIiIiIiIiIjWeVCIiIiIiIiIiIjWeVCIiIiIiIiIiIjWeVCIiIiIiIiIiIjWeVCIiIiIiIiIiIjWeVCIiIiIiIiIiIrWEk0ozuX1+lufd16NcTvMfJenLr/7z2tfjpeySz267f142vZTHStpbV1KXfT0eWxtcr2tLnqWyb1sLBfu50Y6u+iHActW6+296+Vgq033Bcetrb1/ctO3ty8/pjG+9vNpXvd1vPb5I/dB5GUsXvsrzSNl/O91xQ8cflA5qR0nneNE6QHy95HTxPoHXAw/pvzHKbfS1xTjtYxxfJD/NcRWsn+l889Dx5yHjZWffniHjGWcV33o+ta9dP6LpHNU4KHT0nyK/5HW3rX5I3JLaS0RE9D4pTyr5DcKVnKyXcnx8HL7m9yKLVeqHISS/B7nIf1b9Wsra/XT79EM2WUKX9KKWZi73spBVfSPgNwurhbws92mX6xO56tgQzm5dPfM/x2Sbniv5cD8vlX/hal82lctHtzG5Ebm73+bfiwH7OdKO4yxh+4a6k3V897r6z/fd6vRJ5kUbfGwnWNz62tsdN317u/ND4qsYz289vmj90HkZbOV+Xk7rv8rzSNF/JRbjDx6nQV87PHQ9QB0ovgPSxdZdvJ/B/jMvN0vbvd6njdNu1uszmB88f7H8zOcbOv7Q8VLSud6D4wpnGV90/I2wvyrp7D8wP3gcWO//EtpLRET0XqlOKoUNwvZe5hf7rfPm+pv4/dnJuf5AOyS/6eW526xs5elH19Z8I9d3bms0OZUvu8zcxu3KbXPcxq1UrNs/+E3UiZzHPqxPL+U8/JNso9Xgfn6zmLifH8vZdXt9ZrcrOX1yH0LOruVX/r0YtF9mn12lXLrvpXbI5oc8uXST0y+vGo9OPf23uT4LfbLvuQf57gutxC2hvT3lqtvbmx8W35jYeH7r8U2vX2xeDtO5HhiNPzQdash4iTlUfLF0+LoLrwdQ/9mX68cTst7HYMetOPP4JucXn79oftbzDR6n2vnWuW4k7CN6WMc3Bh1/6furkp51tymeX/q6a7T/27E/bhEREf0rFCeVZhL2bvUrrLOv4vbX7kD7UY6y74CG5DeTrz7R+k769vTTTx/cf1/kd5Fu+kn8d7Z/6tvKX/KntgnNTOXyZiGT2iakbPrlVCb1TW3EwwXyIQTvl1+hwvV+OpKPPt3L7+q/72Ud30J//7WbyMdSobr29pWrbW9/O7D4xsTH81uP75D6NeblIF3rgd34a4emq0ofLzGHiy+UTr3uxlT7Geq/EcpF1/sm/LjVZB3fYfk1569F/dLmGzpOdfOtZ90wGVdl9vO3CR1/A/ZXO2nrru640D9ehu//qmyPW0RERP8O/KRSfjB+KR1NwyMAVyLLpb8O9UE+aXZRA/IrrqLd9+3q8yvK2/vvsku5+e22BDEb+R35wfTyxm3q1rJs3RlN5cup24C5zevR7XPl+fukR5QU/bK5vgtX1652712YZbfPu++217eFdXxz/f0XdxQ+EWylvPfTtLe3XGV7U9uBaBvPbz2+yfWLzcudSXjcYz+P+h8l6VoPLMdfTHs6fTsGOWB8oXTKdbcOjUeDebnp6z183Iqxju+Q/GLzd2D9hsw303Uy17tuDBxXDSPM3zp0/A3aX+WS1t3O40IVNF4M9n8VivoRERG9Nwkv6s7M3IY6e869eI8EepUxDs+v5yqaO/DvXsC4WoQryt8qCR/kp9ujTRY3+QY04zdw/q7oqqwsaBNxciWff5aev4++00Gvu1+y9yEU713w7/jI3sdQf3eLnk18Ff1XNrvNYtGIMdpefbnd7U1sB6RrPL/1+Crq1zsvndg7LLblD4sxXf1nPf5q2tIltcPW68YXSadZd2vQeESNVK56ve8ap3o28d3rzQ+ZvyWq+g2db64E23USWTcGjCuAdXyLNvWPv5500DhQrLvKcRV0jRfT/Z+TUj8iIqJ3KOGkkr8K+Cznf7J3E+wPrwlXkQNdfr1X0TbXclZs9P1G8+lUVi7/8osu/W3wy3X1ToIb+ea+lyfIFe846N5E5LfZu01s5aKcq0d4/H7x1bUwBdIvWZrV4kWWob1LWbsPO749aS9u9ezii/VfjdswPmc7xshVTqy9unL725vUDlD3eH7b8VXVD5iXTRu5PvPvunBz9Ws8YVf/2Y+/EjRd0N8OO4eIL5YOXXcrVP0cZ1tu2noP3/3RyzK+HpgfPH+V9TOZb+g4xaDrRtK46mUd3ww6/iz2V6p1V3tc6BsvQH6quGnrR0RE9E7hJ5Xy24ZPrvz92NV3EyQ9Z56Un/5q7+5Fl5+ruwC/sSg2Cv7L7d/EF7t7p4HbvFyduM3Vt/LGLiZ7Fj8mvOtBC+6XqVw+us2b31ztrmb6K7b+rgj/75WP21jHF+6/En9VsNgwNq4yg+1Fy0Xbm9IOWNd4fuPxHVi/tnmp09F/5uOvBE33mg4WX9046F13ywz72a7clPVef9xqsI7vwPwa8zclP5P5ZrxOKtcN1bjqYj5/y9DxZ7C/Gni87DwuJKwHyfu/FjbHLSIion+P4k6l7LZh2dZfUJq/Y2L9s3mQ95uAcCUotrHT55d2tTe7stx8MWNNeCHm/redhN8o4+8sKF3NCrfV++8uVuHv2aMO+bP4J58bbQzP/W//uI8hGmi/5FfMG/knvtMhIR5d8cX7L+fz8reXt24Ysfbi5WLtVbdDoXs8v+34Dq8fOC/zd43E0nX1n/34y6Hp6jraYeNQ8R04Dmrr7k5qP6OSy83bpVjv045bddbxTcivoj5/lfmh8e1NN3Qdqhq83reNq17W8d1Dx5/F/mr48bI+rnLoeGloya8OjhuYHxER0Tujevzt4fu9bCcLWZXu/c1eyBjfiITfkhP+dCKxCzu6/NKu9oZbsd1G5K7jH/nn6f0t1evl2S7v+pWs7Ms/wuL3ffPw9+JqYmiHK6Xy62jDFTtfXf0VO6xf8k2oS1d5osZtvvyv8e3/UNBkGV9N//k6928Ysfaq49bTXlU7VPrG89uO79D6IfPS5xXGhfug1XyUorv/7Mefg6ar62yHncPEN30cxNbdILWfQUPLDf0Mr/dpx60Y2/jq8yuLzV84PzS+UDrbdXLIet86rkDW8c2g489mfzX0eBk9LgxYD1L3f22g4xYREdE79L+jo6P/8j9jdgf4QseBHtkMgPn5A//KbXrWy+PWX1FbpKnwL+ys/YNGukiaOP++gyv54DZHjY1Rox1uIzivbVLcBw+/eYlyHzjnZ6UPJMp+KfObt7QTHY51fCvi/edfStrWLfV+SWuvJm5IW1ryU8QXGc/eW48vUr9YGmheOm39g/Zf1bDxh6aD26FZD1AHiK+HpGukaVl34fUA7D/zcr1GP0fWe6coWzdOOxjHF8kvFtu2PkTys55vHjL+0PHSFF830HGlYhxfdPwh6VTjoALsPy+S35B1N5ZfI11LG9LbS0RE9P7oTyoREREREREREdG7l/Db34iIiIiIiIiI6L3jSSUiIiIiIiIiIlLjSSUiIiIiIiIiIlLjSSUiIiIiIiIiIlLjSSUiIiIiIiIiIlLjSSUiIiIiIiIiIlLjSSUiIiIiIiIiIlLjSSUiIiIiIiIiIlLjSSUiIiIiIiIiIlLjSSUiIiIiIiIiIlL739HR0X/5n0EzuX2+kpP8byJbuZ+fyfUm/2uK6aU8rhYycX9cL4/l4iH7dlO97LUsjy+knHx6+Sirhc8pt72X+dm1RKsHldvX3vrPa8rlz27l+SqWstmOwxkhvkDc9vZpt/dzOSsXHOu/WHy1/YyMg1KaDNaGTCStKj9LI8QX6D9oXirihs9zsL2NePgsa+OvomOcFpBxZc4qvvV8aqL9Xf83ifNNM3/huAH9Aq0vCf1iOg4OEF903fXM5tFI9fOgePT1s6J+Kn3lpmrr57J62UPW3YJNuZmedOi6oVhf9O0lIiJ6n5R3KuUH9fVSjo+Pw9f8XmSxepbbWZ5EZSqXj8/yfCNyd7/NvxfnD+7PruwPbmNSlH0c2wCcPsl89/OlrCcLWT1eupLK0HKR9j7Ixa688pcr2/10+/SjtgHxm8R62tgG6hCs44vFrWx2W9401jxclPLwX3O5l1h8PaSfwXHgN6HuQ8iL+wBS5LVcn8jV863rsSqovYr8bB1m/uLz0uuPG54f2N5IPI6zhPJ42ayh1zlO0XFlzjK+unUNm+eafgHmLxw3sF+g9UXTL9bj4EDxRddd03k0Qv3geCD9rD3uIyzjW9W9XmHzV7eOZyzK9dB00LoRWB5niIiISHVSKWwQ/JWa0qW9zfU38fuzk3P9gXZ2u5LTJ7dJOLuWX/n3oqaXcrOYhKuK7Vc8fV3OQl77FA/y3VducipfSpVDyx3S3unludtMbeXph35reSjW8UXjtuPSn7sd6HqZbcz7beT6zqWsxReFjQO30fdXNd1Gv3xF++HC1/FEzssflqD2KvIzdqj5i85LFD7PsfbOPrt4uHTfS/GQzQ95Cll+afZLzzhF+8Wa+fyNiK5r4Dy37hc0bun9gq8vsX4xb++h4tsQ7xfreRQzqH5gPIb085Dj/mjx7etncP6q13GjcuF0xqyPW0RERP8yxUmlmYQ9Y/0K3OyruOO9O9B+lKPsO7CHC2yTMP1yKpP6ZlVlIh9LlcPKHdLemXz1idZ3Bretvxb7+OriNpXLm4VMaidb+kw/fXD/fZHfCf0MjYPpJ/ElbP/UP4b8kj+1D0tQexX52Trc/G1XnZfDlfPD2/srdHy9/Ufy0ad7+V3998A4Hd4vKezj2xRf19B5bt0vWNyG9Qu2vsT7xba9h4tvTKxfrOdR07D6YfEY0s9Djvtjxbe/n633Vxm7cofXz5r1cYuIiOjvh59Uyj8Mv5R2aeGW5CuR5dJfh/ogn0b5NDyVL6duV+U2pUe3z/L8vP9qu6W+7CjsaLfS+AzfZ0B7i6uV99Fd0CTczr5vx9iPPIHM46uL2/Tyxm2e17JUnVHKrmBu779L818Z9fPmt/toErOR35UfgO2F8zN2sPkb1z4v0+LWyE/R3s31XbhL7Or5UbJQ5Y+huO/Wx2PSOH0NrxDf+Lo2bH1u1z8OoLgN6ZfO9WWve703crD4RrT0y9jzaGj9IAP6edA4GCm+/f08zv7Krlxt/dDjh9FxhoiIiILk3/42cwf47Hnz4jn0ka/enFzJ55+l59973tUQzG4lvI8x6cphFd7ejquVsXc/bMub8LfDLL5Q3LI+gz4EuA8Mj8VGcLUIVzC/1TvatJ8f5Kfb008WN5V/6zf80Xd99rZXmd9IXn3+lrXNy9S4AfO8u73Z+1GK95f4d3dk7zUp0hYU4/TA7OPbcxdGyvrcBh4HaNz2evsFWV8qhtydku7V4wv1y5jzyKJ+eng/244Dm/gq+tl0fzVCuUg6dN0Y8ThDRET0XiWcVPJXH5/l/E/2boL9sXWsqzf57fP126g31xJem7D46moU4TYA2W/40F0NbdK1V3e1ciPXZ/59AxNZfEWuk70Gq/jicSveJQF9CHD//qy0IZw/ncrK1bf7RabD+tk/NrFcV69s3sg39708QYC3F8tvLK89f2tU8xKIW29+SHuzNKvFiyzDuHJlug8xPi7lcaUapwczTnzb17XE9VmlbRxgccuA/aJcXwbdnZLkteObg/plvHlkUz8NXT/bjQO7+GL9bL+/si13yPqCHvctjjNERETvG35SKX9s5+TK349dfTfBkPfa9MveNRMT3uEQ469aFhuAxlVSUFJ7ba9Wvirz+IJxc5u1qxO3Gf9W3kDjdi8y/dy1aRzOnwjyH1aKL7ffF98t+3dg6MZpf37GDjZ/SyzmZVlXfnB7p3L56D4EVfLwd1z4q9f+3+ePRQKQ1REAABa5SURBVAwcp6MbNb5d61rC+mwCjNvAfuleX15xvT9YfOOa/TLmPLKoHyipnw3GgXV84X423l+Zl3uo9aXE+rhFRET0D1LcqZQ9tiPb+gsT82fe1z+bB1t/MH72d2Jgz6vH5e+aOfncyCM8377947YdJb5Mf/v74A2Avr1JVyvzdyk0X9z82qzji8Ut/MYgf4WwdNdOeGzCf3exCn/vfoQmu5LZ23/W/RxeoFr+LT/KcVrXyM/aoeZvLnVetsWtNz+0vfmV8EZ8qu+4Gj5OxzZefLvXtYHjHtUYB1jckvqlon19sbs7BXGo+Lap98t488imfih9P9uMA9v44v2snL896659uQPXF/S4n3ycISIiIk/1+NvD93vZThayKt1Tnr2QMb6hCr+1I/zpRIbcSBLKdXlUft16uCLm9lp3pStixhsAXXsTrlYW9XUbybfwSI11fJG41e/Yyb78rehug3c/D38vX7WtC7fau9R3Xf1n3M/ZC1RdqcuzSqzhcVrTlp816/jCUudlW9zA/LD25h/mXLrKkw+uDP/rsIsPc0PH6WsYJ77961rquIdFxwEWN0/bL2Xt64vB3SlKh4pvTLNfxppHVvXD6frZbhxYxlfTz/D8BdbdMcqF61cXXTci2tIB7SUiIqLM/46Ojv7L/4zZHWgLHQfcvoOy2xhkz6lHuAP8vPxOgUa5bqM1r34I9y+3bMuukt+gcuNt8ScGVm5zuV4eV5/9LynSlHWlPwjL+HpA3Jr8eyWu5IPbhJY/YMT6z79r4bjWgXA/g+OgkV+kzB2gvar8rFnGF+w/dF6icYPnuQe2N1a2/xDUfaIoPk5V64s1y/g6Rb/0rlONciPzPHW+OW3lw3ED+iWWV9vchPpljHFwgPim9EtZ8jxyTOuniQfYz0j9VIzjW9Xez81yB+yvGoaVGwDpYuMgFhc0XXp7iYiI3h/9SSUiIiIiIiIiInr3En77GxERERERERERvXc8qURERERERERERGo8qURERERERERERGo8qURERERERERERGo8qURERERERERERGo8qURERERERERERGo8qURERERERERERGo8qURERERERERERGo8qURERERERERERGo8qURERERERERERGoJJ5Vmcvv8LM+7r0e5nOY/SjG9lMdKfs/y2JZhKe3tLP9eDJqu0ZZb950a6/o18ouUWbGvY6Pc2W0pn/zr8VKGhOMg8dW0Y/T8WuJxqHJ3OsaBim18p5ePpbzcV+f4A+ZbYJTuNcZV+ALKjaUbhW18g1LfNNe1enm1r0Z/g/WznJcV+/Lb0/WMKw+sn25+IEaIb9DTL0h7FeMe7xesvVB+1vM3lu4txVe7DnXO8wJQP225jTwt+rl7PMPjT72+EBERvU/Kk0r+QH0lJ+ulHB8fh6/5vchi1XfypoXfLKwW8rLM8gpfWYa1A/dULh/dAf1G5O5+m38vBk1XbCqu5MP9fF/28YU85D8PrOsXyW+5PpGr1s2W/yeuv/M/Nzxc7OsVvuZyLwtZJW9sDxRftB2vkF80Hocqt6RzHMBs4+vn0Or0SeZ5XsfHS1lP4uMPmm+OaTrrcRVs5X5eShe+mvXD01kynr+ul/rXtQe5qLSx+HJjwf10+/RDNllCB6yf9bws6ZtHqceFWP008wNjHd+9zn5RrVf94x7vF6y9un42nL9v/fgbIO1F902a+mH9bLqOl3SNZ3i8JKwvRERE75XqpFI4UG/vZX6xP+Rvrr+J34ecnOs3UrPP7rDv8vte3kFsfsiTy29y+mWX3+x2JadPbtNxdi2/8u/FoOncrkJuFhNZu83C2fX+I0+dbf3chuzK5ec2ZKXuc/sl/+HrRM5jmxRXz/PwT3waxEau71zKyal8SdjzHCq+TfF22OaHx+NQ5e6ox0GcdXw312dhzO9n0IN895nVxx8438zTNViPq7fFfP6i62nE9PLcjeatPP3Yxwer34jzsm8eQeMKrx88P0DW8d3p7JeE9aoH2i9oe637Od3bOv6i0HluXj/jdXynZ57D4+8fOS4QERG9BsVJpZmEY2zlyrMz+ypuX+COsh/lKPsO7Ncff3Su/7sj+ejze/m9K+fhAtt0oOmmX05lUt8sRJjWb/pJPrj/bf/Ut22/JBTT2KRM5fJmIZPaZr7P9JMv5UV+93dDzeHiGxNrh2l+ingcqtxM2jhoso9vu4l8LGWGzjfrdDHW4+rtsI8vup42zeSrL3R9J/t/DtZvtHnZP4+gcaWevzHV+YEZa/729ItJe1HlfrFob0o/D/OWjr8obJ7b1896Hc8MOV5Wx8u/cVwgIiJ6HfhJpXxz+VI6iodbl69Elkt/PeiDfFLuLjfXd+Fq59XuufxZdnu1++5y2CfoDlP5cup2BW5TcHT7LF3PypvWb/PbbYFiNvI78oPp5Y3brCnLya/8be+/i7r33lJ8W9phmp8iHocq10saBzEjxDfmKOy4t7L/DIrON+t0ESbjahIe99iX2/bIIprOyCvFF1HcpXRf/rSI1m+kedk/j8BxpZy/dc35ARopvr39om5v2rhv9MvA9rb384jz940dfzNG65C6fn3l2q/jXurxMjZeko/7RERE71DCi7ozM7cRyJ5LL55/T7kqmL2Po3gu3z9bnz2v33z23tzJlXz+2fesvGX9HuSn23tNFjf5BiXjN2b+6YKq7Eo/tDl1G6zdiyRXi3Dl71vS3QVVrx5fqB2W+WnicahyFeNAySa+NbPbrA2VO1Ry0HxzrNNZjqvYuz225Q8dOTTdiEaJLyR2l1JTe/3GmJeKedQ7rjT1q+maH0o28UX6RdHe1HEP9IuqvW35jTF/3/Lxd8R1qLN+mnJN1/HE42Xr+FMc94mIiN65hJNK/mrNs5z/yZ7B3x+DE66+5nmtFi+yDJuKpazdJsNvHIa+eLRdfvuy2xxULjZtriU8pr/46mpVsK2fv818ua5ewbuRb+57eYJc8e4CaHPq6n1WbMj8BujpVFaD+u9A8YXaYZsfGo9DlasaBzDL+Ja4jflztjOvXcVF55t1uhwQD1V8KzZyfebSug9Ui69dCdF0FkaKLyh6l1JFf/2s5yU2j/BxhdevpHV+aNnFF11fktobAOO+t1+U7VX1s8H8hdYXjTHnr8U6lFK/WLn263jS8bJzvGDrCxEREWlOKuW3wZ9c+fudq8/gp71HYCqXj24T4A/muys//sqQv6rly0m8TbtX9i6ImPAM/c449fMb9GJj5L/cvkx89+3eVeA2OVcn7kPZt/KGDbd7ceZnZe3eWHyb7bDOL9Mbj0OVO3AcNJjHt8RfRS425rs+KqDzzTpdnPW4ejPGjC+s4y4lZf3M5iU8j3Tjqr9+JZ3zA2QdX+X6omovqqtfUtpr0c8DvZ3jrzHz+hmv4ynHy87x8o8cF4iIiF6J4k6l7DZ42dZfrJg/G7/+2dzE+YP2s7+yGTsA51eqtn/c9qIMezdFujz/k8+NOoXn6nf1eaX6hRdd7n9LUviNI/6KXumqcLjt2n93sQp/b9waXpHVu/li1T5vLb71dljn16IWj0OVO3wc1FnHN+fT+McRWj/IofPNOl0b43GVv2ukN75oumQjxVeh+y6lhPqVJc5LfB4NHFeN+uV65wfKNr6D15e29ta1jfveflG2N7WfzecvuN43vNL8TV6HBs7fRrm267h6PPeOl4HHBSIiondG9fjbw/d72U4Wsird+5u9GDH+QSL8do/wpxNpXrjLNykuv8qd2O5g738dbO8mZYDQDlenyq9DDle6XLF3xZWu8evn30vhb71eL892V/brV4SzL3/ruN/PzcPfy1cJ68It4C71XUeaNm8pvs12WOfXFIvHocodOg5ibOPruD5APshh880+XYzpuCra7z5odT5ygaYbyDy+Kv3vUtLWrzBkXmrmUeq4itfPAecHyjK+Q9aX1vbWtY17sF/g9qb2c1v96tB0zts5/kYo2hGTOn/byk2db169n1XjGRovw477RERE783/jo6O/sv/jNkdkAsdB2bg4O03qCv/YaTEbwIqG1q30fCb2Ci3UZmf5RsQNJ3XaIfbGM2bm2TL+jXyWi/lGHq/hn+2/0o+1MqN1Q3Ps8UB4qtph2V+jXQdfXeocqvi40DFML7+Za1tw7487gNwvlmmQ+PhpcZ3vTyuvhPEQdONwjC+mvW0aHNvO4H6Nfpv4Lxs6phHKeOqpX6q+YGyjG8DeJxRzKHYeBi2bjTbguaH1m9Iura+gRnGF22HZp4j9YPL9Rr5DVvHq+LjWTP+YmX3ry9ERETvj/6kEhERERERERERvXsJv/2NiIiIiIiIiIjeO55UIiIiIiIiIiIiNZ5UIiIiIiIiIiIiNZ5UIiIiIiIiIiIiNZ5UIiIiIiIiIiIiNZ5UIiIiIiIiIiIiNZ5UIiIiIiIiIiIiNZ5UIiIiIiIiIiIiNZ5UIiIiIiIiIiIiNZ5UIiIiIiIiIiIitf8dHR39l/8ZNJPb5ys5yf8mspX7+Zlcb/K/ppheyuNqIRP3x/XyWC4esm/vzG7l+Wpf4t5alscXUk2O1k/Rjr76OdPLR1ktfIrc9l7mZ9dSyQ5th6K9ULkqxvEt9V2m3oZ6eTX19jTy80nmchatYD3v2HhxUsZfo5+V7fBMxz3KOL4eMD/29uUnx22sePSVGwD9N0rcUED9NHrnbxnSf15/Ot26BpSraQc8nlPK9U1pG/cI4/ju7PNtrV9nv9TrVVOOHzR/HTSdg48XTf/1x/dNH3+161DfuB8St6Bc7sDxEiTmV7H/d41xr+0/IiKid0x5p1J+AF4v5fj4OHzN70UWq2e5neVJVKZy+fgszzcid/fb/Htt/OYqK3P/VT+wo/VD02H1CxvL0yeZ53kdHy9lPVnI6vHS5VCHtMPrT6crF2EcX78pc5vUF7dBLfJbrk/k6vnWlVR4kIv8Z9Uv1xb30+3Tj/1GMJLfcVZBebysttj3zbNrywe3UdznWe9ncPw9XJTy8F9zuZd6PyvagZYboOMFccj5m5nduvLzP8dAcTOPBzpeNP1nGTfUIeZvBus/LJ1Pg65rULlwO/DxnFpu23qFsZ6/e93zEukXxXyD5q8DpsPHC95/1uMUM0Z8kXXI8jhY6CtXtz7b55fpOx5h/UdERESqk0rhAOyv+JQuYW2uv4nfh5yc6zdSs9uVnD65TdvZtfzKvzcEWj88HVa/zfVZSLPftDzId5/Z5FS+pO0uIdbl2sbXbZD9VT63QS5f8Xy48Ju8Eznv+VA1vTx3qbby9GPfutlnl5+r3/dSfrL5IU+hyV/29Zteys1iEq62dt0RkD7+NnJ957aqQD9H22E87lEHn78uLudhSGQb/QYwbk3D4oGWa91/1g42f9G4gengdQ3KD2/HDB3P6HhB1yvQaOPPtadrXsL9EhGdbw3o/I2nQ8cL3H/W4xR0qPUlPb74uovCxguuM7+ecU9EREQ4xUmlmYQ9cv2Kz+yruP2X21h8lKPsO7CHi54PISpo/fB2DK/fRD5qO8VESrnG8Z1+kg/uf9s/9W3qL/kT9t1dH6pm8tUXur6r3Pb/K/zDej2O5KOv38vvXb2nX05lUv8wFzEkvtNPvnUv8rvzn8fbYTvuUYeev1O5vFnIpPbhvgyNW8yQeGDl2vefrcPNXzRuQ+Kbqa5rUH6KdqDjGW0Hul5hxhp//fMyfb2Kz7cYbP7i6TLl8YL3n/U4xRxufRn/OIjCxwumK7/+cU9EREQ4/KRSvjl/Ke0ewi3iVyLLpb/O80E+jXUpLZiE28Cfn4uv2qMLaP1eqR1H4ZPDVhqfZfrasYOmq2ovt4d1v2x+u61mzEZ+x3+wU1xdvK/t6jfXd+HugqvnR8luMMgfF3DfXe52hlP5cur6wH1oO7ot999z4iMnEfmV7O39d+naj7a1QydtHDQceP5OL2/ch6NynOoGxG1QPMBy1f1nFDfUweYvGrdh87K5roH5DViH4vB2YOsVaKT52z8v08HrHzh/4XROY7zA/Wc9TkGjrc8jrkOd8dCX2z1ebPPDx/0rr+NERER/qeTf/jZzG67sfQLF8+Uj3pUTe5Z/W96sN6H1G6Uds1sJ73esXyFD25HQ3qCt3ATD++VBfrq98GRxU6mz3yiHOrbqurqYvTeheM+Ef+dF9v6JyDsOTq7k889SHw56l4njNtCPxcZytQhXsr91drLBVdfUcQB41fmb9wXyYRCOm3U8lOOls/9GjBvq1ecv2n8p87JrXevNL3Ud6gG1Q7FeKdnMX8W8VOuZb+j8Vc9zBzgO9vaf9ThVMonvGOsQEo+kcjvGi3V+6Lh/A+s4ERHR3yLhpJK/2vos53+yZ/D3x+uEq3PJNnJ95p+Dn8jia/26EVq/kdrhNpbZbwxBroJ1taMMSKcqt4tdv/jb6pfr6pW+G/nmvpcniOi+WpnVbbV4kWXY5Lk+cZt/n+/+Rab54yX129o31xJe/7D46nJJ4P79WWmDOX86lVWl3Cr4Kr0KOl66vP78Ld4V0v1hUBk3s3hox0tK/1nEDfXa8xftv8R52bqu4fmlrEPtNO1A1istu/hi8zJN7/rn+guav2i6Qu9xsK//rMepll18mwzWIW08gv5ydcfLYfmlj/vXXMeJiIj+LvhJpfwxgpMrfz929Rl82+fqE6H1G7Md/ipesbE0uBoNsyh3pH7xH+j85rP4cvtk8dk13h0RdF1d9L+hxm0GK230dwL4q4e+3sVt6dm7UmLCO06M7F6g+jm2uey5Sn8Ih5q/7sPW1Ynb3H8rf0CKGRa39HiA5f4r659S//xF45YQ3851TZefbh3qgpaLrlcg6/jC8zKFfv3rnr97nem6xgvcf9bjFPTW15cWaNy6WR8vO/IbddwTERG9X4o7lbLHCGRbf4Fl/g6C9c/mZspvtp79leERnkPP30GwfwErWr+EdiB8W/3t4NqNZaMdLdrSpZbb8ErxDS8ejf82lu6rlfkV5O0ft+0vq78bJf/7yedGncL7Lhr/PlVWn1jcdFddldDx0nCY+Rt+A5a/slu6SyQ8BuS/u1iFv2ePlAyNW2o80HIHrhvJcUMdav6i/aeMb++6NnC8dKxD3dBy0fUKZRtffF7qpa1/7fO3qiVd73hB+896nKJeaf6ar0Ng3DrKTRovifkNHvejr+NERER/J9Xjbw/f72U7WciqdK9z9sLD+AE8/BaV8KcTGXQhq67YyLkNWPkWZrR+2nb0St1YtrSjoS1darktxo5v9uLRE1kvzyJXJPuuVuabble/yp3nrg/8rwUub7pDO1ydKr/2PFyh9NnbXKEMt9C7fr9rVNb6qmsJOl5aHGL+1u8Qyb78IwRuY34/D38vrsoPiduQeKDlavtvZ2DcUGPHt23+qvoPiS+4rsH51XSvQ/2wcvH1CmUZX8281Elb/9rnb1U0nWa8AP1nPU5RlvGNGmEdguLWWW7CeBmQ36BxP0L/ERER/Sv+d3R09F/+Z8xuI1Xo2FDt0rakcRu17D0EEe7APc/fKeA/BKz8RqFkvTyuvvOggNYPSQfWz79Usy1ZSjvQdGi5KobxbbRjvZTjlvdNFGlb45qL9Y3fDDY2go12uI35vPYhcsD4a2sL1I4xxj3KML5oO5r8e0Ou5ENi3Mzj4SHjxQP6b5S4oQzj22hHx/xtlov2XzOdal0D8oPboRnPYHtjYyG6XqEa5Q6Yvw0t81LRL8h8i/VJLCZoumHjpaVvgPj+dcdfJxoX4+MgXK5TpNWOlyH5NcXHvaZcIiKi905/UomIiIiIiIiIiN45kf8DYSzZDqHmFUgAAAAASUVORK5CYII=;" vertex="1" parent="1">
                    <mxGeometry y="40" width="1173" height="813" as="geometry"/>
                </mxCell>
                <mxCell id="a5B41-JX9TS98yNfg6zU-5" value="" style="rounded=0;whiteSpace=wrap;html=1;strokeWidth=3;strokeColor=#82b366;fillColor=none;" parent="1" vertex="1">
                    <mxGeometry x="10" y="40" width="360" height="440" as="geometry"/>
                </mxCell>
                <mxCell id="a5B41-JX9TS98yNfg6zU-7" value="" style="rounded=0;whiteSpace=wrap;html=1;strokeWidth=3;strokeColor=#9673a6;fillColor=none;" parent="1" vertex="1">
                    <mxGeometry x="10" y="480" width="990" height="30" as="geometry"/>
                </mxCell>
                <mxCell id="a5B41-JX9TS98yNfg6zU-8" value="" style="rounded=0;whiteSpace=wrap;html=1;strokeWidth=3;strokeColor=#b85450;fillColor=none;" parent="1" vertex="1">
                    <mxGeometry x="10" y="510" width="980" height="20" as="geometry"/>
                </mxCell>
                <mxCell id="a5B41-JX9TS98yNfg6zU-12" value="" style="shape=flexArrow;endArrow=classic;html=1;" parent="1" edge="1">
                    <mxGeometry width="50" height="50" relative="1" as="geometry">
                        <mxPoint x="430" y="440" as="sourcePoint"/>
                        <mxPoint x="810" y="440" as="targetPoint"/>
                    </mxGeometry>
                </mxCell>
                <mxCell id="a5B41-JX9TS98yNfg6zU-13" value="Column Number Independent" style="text;html=1;strokeColor=none;fillColor=none;align=center;verticalAlign=middle;whiteSpace=wrap;rounded=0;" parent="1" vertex="1">
                    <mxGeometry x="520" y="400" width="170" height="20" as="geometry"/>
                </mxCell>
                <mxCell id="a5B41-JX9TS98yNfg6zU-15" value="3 Column Meta Data" style="text;html=1;strokeColor=none;fillColor=none;align=center;verticalAlign=middle;whiteSpace=wrap;rounded=0;" parent="1" vertex="1">
                    <mxGeometry x="360" y="50" width="170" height="20" as="geometry"/>
                </mxCell>
            </root>
        </mxGraphModel>
    </diagram>
</mxfile>
